<?xml version="1.0" encoding="UTF-8" standalone="no"?><!DOCTYPE svg PUBLIC "-//W3C//DTD SVG 1.1//EN" "http://www.w3.org/Graphics/SVG/1.1/DTD/svg11.dtd"><svg width="100%" height="100%" viewBox="0 0 132 110" version="1.1" xmlns="http://www.w3.org/2000/svg" xmlns:xlink="http://www.w3.org/1999/xlink" xml:space="preserve" xmlns:serif="http://www.serif.com/" style="fill-rule:evenodd;clip-rule:evenodd;stroke-linecap:round;stroke-linejoin:round;stroke-miterlimit:1.5;"><rect id="Artboard1" x="0" y="0" width="132" height="110" style="fill:none;"/><g><path d="M121.223,30.27l-29.857,15.552l-47.411,-27.741l-41.955,23.238l7.752,12.996l34.677,-19.206l46.608,28.185l37.938,-20.028l-7.752,-12.996Z" style="fill:url(#_Linear1);stroke:#2f8dcf;stroke-width:2px;"/><path d="M121.223,58.27l-29.857,15.552l-47.411,-27.741l-41.955,23.238l7.752,12.996l34.677,-19.206l46.608,28.185l37.938,-20.028l-7.752,-12.996Z" style="fill:url(#_Linear2);stroke:#2f8dcf;stroke-width:2px;"/><path d="M104.33,8.438l-9.288,-5.988l-63.397,98.335l9.288,5.988l63.397,-98.335Z" style="fill:#f84a00;"/></g><defs><linearGradient id="_Linear1" x1="0" y1="0" x2="1" y2="0" gradientUnits="userSpaceOnUse" gradientTransform="matrix(95.9178,-53.1256,31.0572,56.0735,17.5286,69.3554)"><stop offset="0" style="stop-color:#94dbff;stop-opacity:1"/><stop offset="0.5" style="stop-color:#01aafe;stop-opacity:1"/><stop offset="1" style="stop-color:#88d7ff;stop-opacity:1"/></linearGradient><linearGradient id="_Linear2" x1="0" y1="0" x2="1" y2="0" gradientUnits="userSpaceOnUse" gradientTransform="matrix(95.9178,-53.1256,31.0572,56.0735,17.5286,97.3554)"><stop offset="0" style="stop-color:#94dbff;stop-opacity:1"/><stop offset="0.5" style="stop-color:#01aafe;stop-opacity:1"/><stop offset="1" style="stop-color:#88d7ff;stop-opacity:1"/></linearGradient></defs></svg>