<?xml version="1.0" encoding="UTF-8" standalone="no"?>
<!DOCTYPE svg PUBLIC "-//W3C//DTD SVG 1.1//EN" "http://www.w3.org/Graphics/SVG/1.1/DTD/svg11.dtd">
<svg width="100%" height="100%" viewBox="0 0 830 830" version="1.1" xmlns="http://www.w3.org/2000/svg" xmlns:xlink="http://www.w3.org/1999/xlink" xml:space="preserve" xmlns:serif="http://www.serif.com/" style="fill-rule:evenodd;clip-rule:evenodd;stroke-linejoin:round;stroke-miterlimit:1.41421;">
    <g id="Artboard1" transform="matrix(0.648437,0,0,0.810547,0,0)">
        <rect x="0" y="0" width="1280" height="1024" style="fill:none;"/>
        <clipPath id="_clip1">
            <rect x="0" y="0" width="1280" height="1024"/>
        </clipPath>
        <g clip-path="url(#_clip1)">
            <g transform="matrix(-1.54217,0,0,-1.23373,1711.01,1147.68)">
                <path d="M1124.46,109.245L328.307,109.245C325.796,111.596 326.35,117.6 320.136,117.384C312.546,117.12 319.277,111.056 318.539,112.368C317.802,113.68 318.136,115.155 319.957,115.216C321.478,115.268 323.144,110.549 317.58,110.539C307.937,110.522 304.648,122.029 304.987,119.653C305.326,117.277 304.422,115.146 303.74,115.102C302.298,115.009 303.084,117.331 303.74,121.196L302.61,120.532C299.065,115.273 300.064,111.431 303.414,109.245L295.224,109.245C291.505,109.245 288.486,112.264 288.486,115.983L288.486,116.217C289.878,113.615 292.785,112.234 295.066,112.378C298.028,112.566 300.927,115.751 301.418,120.544C301.908,125.337 297.656,126.387 297.656,126.387C299.039,124.543 299.858,122.795 299.027,121.324C299.098,120.649 296.272,125.116 296.23,124.371C295.66,114.024 288.972,114.055 288.918,118.462C288.864,122.868 303.917,129.189 303.739,141.123C300.684,139.707 300.247,139.449 298.002,139.43C291.957,139.381 289.369,147.169 288.486,151.801L288.486,156.717C289.046,158.039 290.163,159.039 291.451,159.043C293.328,159.048 293.974,157.166 293.948,154.602C293.921,152.039 291.423,152.161 291.324,153.921C291.158,156.87 292.771,155.093 292.771,155.093C292.771,155.093 293.453,157.195 291.466,157.228L291.263,157.233L291.305,157.24C291.309,157.24 291.311,157.24 291.309,157.241L291.305,157.24C291.298,157.239 291.283,157.238 291.263,157.233C289.1,157.135 287.747,149.536 292.98,149.535C296.784,149.535 299.139,160.987 291.781,162.152C290.605,162.338 289.391,162.002 288.486,161.275L288.486,947.424L285.486,947.424L285.486,112.983C285.486,109.264 288.505,106.245 292.224,106.245L1124.46,106.245L1124.46,109.245ZM288.486,133.28L288.486,142.164C289.22,140.745 290.177,139.52 291.225,138.538C290.753,136.688 289.913,134.89 288.486,133.28ZM288.486,125.3L288.486,128.464C291.378,130.812 293.974,133.546 294.842,136.256C295.482,136.033 296.108,135.912 296.695,135.903C297.344,135.892 297.929,135.906 298.476,135.952C297.624,133.378 293.639,129.084 288.486,125.3Z" style="fill:rgb(44,16,15);"/>
            </g>
        </g>
    </g>
</svg>
