<?xml version="1.0" encoding="UTF-8" standalone="no"?>
<!DOCTYPE svg PUBLIC "-//W3C//DTD SVG 1.1//EN" "http://www.w3.org/Graphics/SVG/1.1/DTD/svg11.dtd">
<svg width="100%" height="100%" viewBox="0 0 593 484" version="1.1" xmlns="http://www.w3.org/2000/svg" xmlns:xlink="http://www.w3.org/1999/xlink" xml:space="preserve" xmlns:serif="http://www.serif.com/" style="fill-rule:evenodd;clip-rule:evenodd;stroke-linejoin:round;stroke-miterlimit:1.41421;">
  <g transform="matrix(0.463281,0,0,0.472656,0,0)">
    <g transform="matrix(2.15852,0,0,2.1157,-790.017,-459.107)">
      <path style="fill:#ba986b" d="M366,530.445C368.085,530.97 370.075,531.742 371.907,532.717C371.907,532.717 374.438,529.834 378.114,530.487C378.88,530.623 379.635,530.82 380.374,531.065C380.795,531.205 381.212,531.361 381.623,531.529C382.149,531.743 382.666,531.979 383.176,532.229C383.82,532.545 384.452,532.884 385.079,533.233C387.217,534.426 389.261,535.829 391.584,536.512C391.584,536.512 395.557,535.506 397.761,536.562C400.386,537.896 399.544,537.269 399.544,537.269C400.562,532.489 407.741,532.007 412.073,531.322C413.397,531.104 413.773,530.871 415.711,529.203C418.762,526.578 423.802,527.499 427.998,528.56C429.064,528.83 430.345,529.619 430.81,529.305C435.81,526.023 443.397,526.835 447.454,531.291C448.034,531.928 448.592,532.584 449.161,533.232C450.341,534.565 452.47,536.046 452.47,536.046C454.062,537.055 455.901,538.879 455.901,538.879C455.901,538.879 456.949,538.478 458.151,538.592C459.258,538.76 457.587,538.769 461.564,538.707C461.751,538.705 461.938,538.704 462.126,538.705C464.752,538.737 467.021,539.779 467.021,539.779C468.112,540.488 467.246,540.272 468.109,540.528C468.109,540.528 470.613,538.429 472.607,537.178C475.399,535.428 478.406,533.931 481.583,533.251C483.721,532.793 485.917,532.768 488.093,532.77C488.093,532.77 490.377,531.864 491.742,532.108C495.352,530.614 498.262,527.188 503.24,528.721C504.919,529.239 507.121,530.354 507.494,530.349C508.425,530.371 509.108,530.547 510.506,531.133C513.639,532.398 517.152,533.273 520.6,533.937C520.6,533.937 527.044,535.684 531.227,540.675C532.541,542.242 533.73,543.912 535.119,545.401C536.342,546.713 538.001,547.294 539.34,548.706C539.34,548.706 543.724,549.295 546.341,549.962C549.979,550.89 553.109,554.374 552.259,558.405C551.775,560.705 550.351,562.595 549.396,564.767C549.396,564.767 551.226,570.589 553.155,574.696C554.974,578.568 557.099,582.191 556.827,586.881C556.716,588.695 556.82,590.583 556.48,592.301C561.071,594.519 565.307,597.942 569.246,600.3C569.337,600.354 569.427,600.41 569.516,600.466C572.195,598.792 574.667,597.287 577.123,596.044C576.788,595.486 576.592,594.845 576.59,594.156C576.581,591.817 578.705,590.181 581.476,590.131C584.926,590.045 588.346,589.583 591.772,589.167C593.392,587.516 596.166,587.432 599.024,587.671L599.072,587.01C599.671,585.026 598.833,586.144 600.623,584.773L601.546,584.282C602.82,583.851 602.203,583.992 603.75,584.021C604.808,584.049 605.85,584.159 606.877,584.34C607.497,583.785 608.391,583.408 609.677,583.438C613.114,583.684 612.955,584.156 613.746,586.558C617.302,588.18 620.672,590.37 623.889,592.493C626.948,594.477 630.738,595.093 634.053,596.83C636.485,598.104 638.667,599.793 640.962,601.306C640.962,601.306 643.307,600.236 645.159,601.292C645.81,601.664 646.383,600.637 647.389,600.18C652.012,598.079 656.292,594.382 661.291,594.191C661.453,594.185 661.487,594.175 661.956,594.216C662.26,594.258 662.455,594.304 662.455,594.304C664.106,593.149 665.509,589.789 669.095,591.035C669.092,589.976 669.493,588.923 670.417,588.156C670.921,587.737 671.527,587.446 672.169,587.314C676.116,586.504 680.588,586.448 685.339,586.895C687.023,587.053 688.731,587.394 690.316,588.016C690.739,587.898 691.208,587.841 691.723,587.854C693.38,587.966 692.766,587.936 694.386,588.827C701.262,592.608 706.734,598.729 712.349,604.364C713.572,605.644 713.416,607.692 712.499,609.223C713.045,610.019 713.508,610.935 713.866,612.002C714.273,611.869 714.721,611.792 715.205,611.78C715.286,611.782 715.366,611.785 715.447,611.788C718.212,612.053 717.403,612.198 719.228,614.236C722.477,617.862 724.86,622.21 728.214,625.665C728.214,625.665 733.994,628.044 735.488,632.016C736.481,634.595 738.277,636.98 738.538,639.692C739.234,640.274 739.953,640.819 740.703,641.313C742.316,642.414 743.902,643.746 743.902,643.746C745.225,644.402 746.296,644.555 747.493,645.914L747.801,646.47C748.635,646.933 749.454,647.546 750.25,648.373C752.253,650.454 753.332,654.511 750.186,656.353C749.741,656.614 749.258,656.79 748.763,656.883C748.812,657.681 748.891,658.475 749.052,659.257C749.052,659.257 751.725,660.3 752.902,662.47C753.147,662.923 752.983,662.198 753.351,663.688L753.425,664.642C753.382,665.249 753.467,664.9 753.23,665.73L752.973,666.344C752.6,666.999 752.82,666.714 752.265,667.318L751.461,667.952C751.2,668.098 751.55,668.034 750.575,668.353C749.72,668.633 750.175,669.467 750.194,670.214C750.249,672.343 749.768,674.448 749.138,676.491C749.138,676.491 749.8,678.609 748.434,680.418C749.905,683.764 748.585,687.339 747.094,690.498L746.481,691.436C746.013,691.956 746.489,691.519 745.839,692.042L744.899,692.582C744.254,692.823 744.636,692.736 743.838,692.862L742.795,692.86C742.274,692.782 742.363,692.782 742.363,692.782C741.93,692.659 740.13,691.638 738.872,689.739C738.417,689.067 737.444,687.188 736.8,685.234C736.075,684.737 735.488,684.012 735.191,683.094L735.185,683.077C734.762,682.581 734.315,682.048 733.944,681.585C732.177,679.38 730.927,675.936 733.52,673.688C734.191,673.107 735.022,672.77 735.903,672.609C735.838,672.411 735.765,672.21 735.682,672.005C734.492,669.083 729.67,668.061 727.868,664.145C726.265,660.664 727.626,656.574 729.387,653.011C729.515,652.748 729.593,652.481 729.632,652.209C728.757,651.645 728.001,650.752 727.544,649.555C726.16,645.932 725.627,641.81 723.205,638.791C722.403,637.792 721.558,638.176 720.752,637.729C719.27,636.907 718.623,635.064 718.905,633.41C718.48,633.319 718.034,633.256 717.567,633.223C715.459,633.076 716.472,633.243 715.524,632.862L714.296,632.025C713.509,631.185 713.856,631.815 713.339,630.512L713.143,629.702C713.069,628.9 713.047,629.285 713.176,628.419C713.176,628.419 713.032,625.186 711.882,623.645C709.776,620.82 707.53,618.488 706.231,614.385C704.905,610.299 698.872,611.754 694.973,606.652C691.807,602.511 691.728,595.799 685.215,594.93C684.822,594.878 684.427,594.844 684.03,594.825C683.406,595.695 682.289,596.318 680.548,596.387C678.611,596.48 676.684,596.987 674.896,597.804C675.687,601.525 673.993,605.399 669.152,606.165C664.852,606.845 662.089,607.459 657.922,606.116C657.743,606.059 657.564,606.004 657.384,605.949C655.288,605.338 655.192,606.139 654.54,606.33C652.783,606.844 651.144,607.75 649.424,608.434C649.424,608.434 648.582,609.252 647.285,609.97C647.218,612.332 644.873,614.354 641.627,613.776C636.483,612.86 632.491,608.776 627.527,606.945C620.863,604.487 613.691,602.905 608.414,598.054C607.849,597.535 607.411,596.857 607.129,596.121C605.572,596.305 603.988,596.198 602.4,596.015C601.742,596.292 600.921,596.462 599.915,596.481C599.128,596.501 598.342,596.541 597.559,596.596C596.994,597.606 595.941,599.036 594.276,599.668C591.111,600.869 587.715,600.167 584.23,601.698C581.323,602.975 578.633,604.664 575.692,605.94C575.553,606 575.417,606.063 575.281,606.13C575.574,606.63 575.828,607.144 576.032,607.672C577.102,607.677 578.174,607.693 579.243,607.709C583.056,607.884 585.059,615.439 579.243,615.705C577.777,615.728 576.308,615.705 574.841,615.699C574.378,616.326 573.815,616.953 573.142,617.577C573.435,621.89 570.597,625.759 569.305,629.633C568.655,631.677 569.736,634.948 570.249,638.146C570.249,638.146 574.908,646.733 568.778,651.214C566.253,653.06 562.907,653.353 559.659,653.295C559.659,653.295 555.38,656.869 550.757,659.301C549.836,659.791 548.555,660.66 548.555,660.66C548.665,669.838 543.107,678.853 532.24,680.375C524.604,681.446 516.801,679.176 509.168,679.708C509.168,679.708 506.573,685.786 500.451,687.165C500.451,687.165 497.285,693.869 491.852,692.952C488.992,692.47 486.519,690.185 485.819,687.359C485.473,685.96 485.423,686.185 485.423,686.185L484.678,685.671C483.845,684.981 484.195,685.658 482.895,683.671C482.895,683.671 482.462,683.084 482.047,681.697C482.047,681.697 482.125,679.94 481.336,679.31C479.275,677.621 478.423,675.713 478.423,675.713C477.745,674.625 477.838,675.392 477.306,672.987L477.185,672.088C477.156,671.493 477.005,671.671 477.332,669.934L477.527,669.198C477.866,668.233 477.627,668.714 478.243,667.615L478.748,666.874C479.395,666.082 479.013,666.449 479.951,665.637L480.607,665.156C481.508,664.596 480.315,664.701 483.184,664.08C486.141,663.439 489.223,664.979 491.933,666.536C491.933,666.536 493.261,664.648 495.018,663.407C498.855,660.697 504.006,660.352 507.872,658.287C507.872,658.287 508.18,654.407 508.566,651.67C508.763,650.37 509.026,648.441 509.026,648.441C507.105,646.427 504.588,644.972 502.479,643.116C502.479,643.116 494,639.549 494.887,632.718C495.078,631.245 494.9,632.213 495.354,630.976L495.705,630.213C496.166,629.387 495.84,629.835 496.608,628.866L497.152,628.279C497.944,627.546 496.87,627.99 499.136,626.877C500.532,626.192 502.156,626.27 502.809,625.602C504.469,623.873 506.206,622.421 508.362,621.183C508.283,619.652 508.239,618.126 508.29,616.609C506.448,615.161 504.679,613.652 503.18,611.838C502.192,610.642 502.835,611.608 502.099,610.034L501.681,608.752C501.202,606.397 501.298,607.172 501.703,605.262C501.703,605.262 501.653,604.924 502.425,603.411C502.425,603.411 502.47,603.116 503.461,601.965C503.461,601.965 503.572,601.757 504.544,600.989L505.536,600.366C506.669,599.811 505.471,599.907 508.115,599.548C509.453,599.367 511.398,599.676 511.398,599.676C519.12,599.676 526.517,597.479 535.394,594.741C536.501,594.394 537.602,594.027 538.681,593.599C539.665,593.208 540.549,592.772 541.39,592.345C541.483,592.063 541.573,591.784 541.659,591.507C542.526,588.694 543.262,585.824 543.301,582.868C543.244,582.791 543.184,582.714 543.122,582.637C540.523,579.441 539.012,575.953 540.135,571.384C540.352,570.474 539.386,569.031 538.777,567.774C534.652,559.26 526.679,553.052 517.603,549.998C517.603,549.998 514.456,548.145 514.945,545.484C514.977,545.312 515.014,545.159 515.053,545.026C514.428,544.489 513.828,543.913 513.261,543.288C513.251,543.277 513.241,543.266 513.231,543.255C508.351,540.612 505.186,537.6 500.567,536.273C500.567,536.273 497.812,538.028 495.943,538.976C495.304,539.301 494.566,539.192 494.171,539.943C490.612,546.376 481.545,548.041 475.807,550.468L475.184,551.089C474.825,552.807 474.467,553.022 473.864,553.553C473.435,553.931 472.926,554.214 472.378,554.38C467.086,555.98 461.218,559.517 455.524,557.227C453.191,556.288 451.148,554.781 448.974,553.457C440.688,548.448 432.006,544.171 422.391,541.943C421.39,541.707 420.39,541.466 419.399,541.194C419.06,541.101 418.721,541.004 418.384,540.904C415.513,540.049 413.237,544.046 409.426,545.295C406.973,546.1 404.338,545.992 401.798,545.888L399.433,545.846C393.538,546.066 387.604,546.207 381.776,547.054C380.832,547.176 380.749,547.164 380.292,547.178C375.249,547.332 370.747,543.619 366,542.03L366,530.445ZM660.959,484.442C663.995,483.58 667.031,482.67 670.249,482.7C675.082,482.793 679.592,485.285 683.628,486.643C689.181,488.513 694.465,491.231 699.883,493.297C704.91,495.214 711.485,495.362 714.211,501.04C715.938,504.636 715.568,508.585 715.531,512.948C715.452,522.141 707.671,529.285 699.703,534.595C697.993,535.742 696.237,536.86 694.79,538.328C691.746,541.419 687.525,554.517 675.552,548.819C672.474,547.354 669.976,544.938 667.663,542.472C667.453,542.417 667.244,542.359 667.035,542.301C664.145,541.469 661.098,540.219 659.436,537.466C658.546,535.994 654.002,536.091 652.203,532.062C650.646,528.575 651.502,524.398 652.015,520.455C652.015,520.455 649.913,519.657 648.544,518.3C647.855,517.617 648.209,518.056 647.492,517.041L646.75,515.628C646.273,514.345 646.424,515.214 646.238,513.406C646.238,513.406 646.157,513.197 646.265,511.998C646.265,511.998 646.217,511.754 646.587,510.513C646.587,510.513 646.591,510.271 647.183,509.154L647.966,508.018C648.971,506.873 648.351,507.43 649.574,506.574L650.228,506.183C650.36,506.117 650.46,506.061 650.553,506.01C649.548,504.412 648.95,502.567 648.915,500.762C648.642,500.754 648.467,500.752 648.467,500.752C645.534,500.491 643.135,498.262 642.129,495.553C640.582,493.748 639.683,491.316 640.409,488.86C641.377,485.586 644.81,483.496 648.303,483.465C648.52,483.465 648.52,483.465 648.737,483.466C652.154,483.531 655.613,484.014 659.116,484.022C659.116,484.022 659.904,484.111 660.959,484.442ZM893.084,477.153L893.083,477.154L893.083,477.158L893.082,477.16L893.081,477.163L893.08,477.163L893.08,477.163L893.081,477.163L893.082,477.161L893.082,477.16L893.083,477.159L893.083,477.158L893.083,477.157L893.083,477.154L893.084,477.153L893.084,477.153ZM377.715,538.622L377.552,538.817C378.158,538.993 379.067,539.136 379.067,539.136C378.504,538.885 377.759,538.565 377.715,538.622ZM366,461.784C367.426,461.507 368.902,461.299 370.451,461.225C371.879,459.895 373.781,459.054 375.793,459.001C376.012,459 376.011,459 376.229,459.002C380.366,459.081 384.085,461.132 388.153,462.557C388.153,462.557 388.933,462.948 389.89,463.686C396.504,462.371 403.235,460.386 410.037,463.451C414.037,465.254 418.296,465.799 422.507,467.231C424.17,466.911 425.942,467.083 427.519,467.783C427.519,467.783 429.048,467.844 430.395,467.988C431.857,466.704 433.782,465.935 435.79,465.944C437.669,465.976 439.37,466.776 440.88,467.956C448.168,466.468 455.811,467.28 462.983,465.201C464.887,464.658 466.838,464.246 468.821,464.193C469.092,464.19 469.091,464.19 469.362,464.192C473.883,464.297 478.211,466.475 482.675,466.603C482.675,466.603 485.562,466.732 487.423,468.011C488.053,468.443 488.595,468.974 489.046,469.575C492.984,470.507 496.905,473.179 500.515,475.276C500.644,475.35 500.775,475.417 500.909,475.476C502.162,474.013 503.96,473.011 506.12,472.77C509.992,471.162 514.078,471.048 518.649,471.291C519.915,471.35 521.083,470.667 522.289,470.151C523.823,469.506 523.461,469.755 525.186,469.098C526.239,468.685 527.263,468.144 528.289,467.559C529.063,465.642 530.525,463.985 532.463,463.102C532.463,463.102 533.099,452.751 532.135,446.741C532.135,446.741 532.548,444.411 531.838,443.572C530.22,441.578 529.684,438.846 530.212,436.317C525.837,433.807 521.198,431.764 517.15,428.607C514.836,426.803 511.783,425.29 509.475,423.026C507.097,423.211 503.462,423.054 500.89,420.93C499.928,420.135 498.977,419.09 498.329,417.033C497.384,414.033 498.456,410.368 500.961,408.303C501.137,406.641 501.682,405.023 502.532,403.61C502.439,402.465 502.352,401.282 502.182,400.082C501.1,392.228 504.091,384.646 501.985,377.578C500.646,373.084 496.175,373.039 492.301,370.01C486.729,365.652 481.759,360.442 477.708,354.708C476.977,353.688 476.147,352.761 475.278,351.859L474.83,352.165C472.995,353.215 472.862,353.042 472.07,353.278C470.265,353.805 468.721,354.508 467.146,355.075C467.146,355.075 461.404,361.405 454.296,360.287C452.199,359.957 451.006,359.275 449.686,358.344C449.459,358.184 449.237,358.015 449.021,357.837C448.404,357.761 444.932,357.24 442.21,354.871C437.747,350.988 434.802,345.212 429.645,343.163C428.253,342.61 428.995,343.158 427.599,342.844C423.616,341.949 420.701,337.665 421.498,333.527C421.62,332.89 421.737,332.6 421.737,332.6C415.238,331.73 408.295,331.489 402.969,327.497C401.276,326.229 399.42,325.074 399.42,325.074C398.841,325.011 397.831,324.775 397.831,324.775C394.397,323.666 394.205,322.699 393.433,321.544C390.825,317.642 392.525,311.716 397.021,309.709C397.021,309.709 399.263,309.068 400.743,309.103C402.179,309.159 404.304,309.45 404.304,309.45C405.1,308.729 405.379,308.555 405.928,308.215C408.205,306.803 410.865,306.313 413.63,306.149C413.852,305.794 414.106,305.456 414.393,305.14C416.025,303.344 415.084,302.917 414.947,302.146C414.627,300.343 414.172,300.041 414.172,300.041L413.741,299.037C413.365,297.853 413.48,298.489 413.309,297.04L413.282,296.069C413.352,294.831 412.609,296.141 413.971,293.018C416.307,287.659 423.45,285.256 429.108,283.864C432.305,283.077 435.579,282.607 438.87,282.567C439.199,282.566 439.199,282.566 439.528,282.568C441.909,282.603 444.278,282.861 446.612,283.312C447.998,283.592 453.323,282.356 457.973,284.666C464.894,288.104 472.278,291.65 475.897,298.939C478.236,303.651 478.516,308.89 480.195,314.597C482.647,323.056 479.607,333.26 483.844,338.106C485.706,340.236 487.848,342.075 489.747,344.277C490.489,344.025 491.319,343.875 492.239,343.848C492.355,343.846 492.47,343.846 492.585,343.847C493.523,343.867 493.655,343.921 494.132,344.017C500.349,345.269 505.988,351.308 504.236,357.02C504.104,357.45 503.931,357.86 503.722,358.249C508.355,361.306 513.212,363.967 515.613,368.679C516.253,369.935 516.787,371.237 517.224,372.574C521.183,375.031 522.721,381.255 519.562,387.287C519.3,387.788 519.029,388.284 518.771,388.786C518.356,389.605 518.518,389.756 518.39,390.173C518.358,390.274 518.325,390.375 518.289,390.473C518.157,391.341 518.003,392.203 517.829,393.055C517.237,396.111 518.222,399.625 518.645,402.99C521.267,405.988 522.861,409.991 524.448,413.22C524.448,413.22 524.61,413.726 524.754,414.524C531.662,418.979 538.874,422.735 545.634,427.386C546.038,426.972 546.477,426.568 546.983,426.253C549.903,424.435 553.546,424.031 557.033,424.127C557.033,424.127 562.367,422.139 566.361,424.092C566.663,424.112 566.662,424.112 566.964,424.135C574.796,424.79 582.79,426.19 589.976,428.704C595.368,430.591 600.177,435.298 599.754,441.309C599.683,442.327 599.199,443.78 599.199,443.78C598.783,444.76 599.052,444.329 598.401,445.308C598.431,445.478 598.448,445.65 598.452,445.823C599.274,449.349 601.296,453.832 598.263,456.777C600.162,460.916 600.888,465.647 596.158,469.7C591.754,473.474 585.127,473.177 579.806,474.447C579.806,474.447 574.241,481.541 567.529,481.144C565.11,481 562.78,480.178 560.491,479.336C560.491,479.336 557.115,482.505 553.924,482.982C551.232,483.384 548.521,482.608 545.898,481.771C545.898,481.771 546.139,481.449 545.009,482.486C539.925,487.072 532.179,488.826 525.616,489.673C519.333,490.483 513.343,490.272 506.612,491.31C500.295,492.283 494.073,490.558 488.498,486.361C488.498,486.361 483.037,489.061 476.635,487.235C473.307,486.311 469.824,485.621 466.404,485.085C466.404,485.085 462.649,487.478 459.092,488.161C453.937,489.177 448.958,489.401 443.306,487.586C440.133,486.592 438.521,488.099 435.781,488.517C429.838,489.423 424.513,486.516 418.917,482.958C418.133,482.459 417.495,482.525 416.807,482.383C412.057,481.424 407.795,479.611 402.826,477.774C399.242,476.449 394.433,479.527 388.68,480.072C383.005,480.611 377.459,478.032 371.937,477.259C370.008,476.99 368.134,477.575 366,478.282L366,461.784ZM883.476,478.663C883.476,478.663 882.939,479.882 883.676,478.265C883.609,478.397 883.543,478.53 883.476,478.663ZM779.723,279.067C779.409,275.82 780.155,272.159 780.584,267.571C781.314,259.756 782.036,251.925 783.13,244.151C784.297,236.171 786.164,227.718 792.58,223.291C792.58,223.291 795.981,219.851 799.629,220.014C806.571,220.677 810.091,230.545 801.722,236.422C801.722,236.422 799.417,243.131 798.763,247.896C797.742,255.508 796.97,263.158 796.355,270.773C796.344,270.924 796.336,271.076 796.329,271.228C796.151,276.211 796.848,282.141 793.27,285.399C793.217,286.864 792.739,288.323 791.731,289.603C790.786,290.803 790.872,290.943 790.663,291.464C788.257,297.462 784.034,301.852 777.434,305.877C775.363,307.151 774.132,309.271 773.131,313.114C772.864,314.12 772.195,315.426 772.624,315.799C776.814,319.604 775.911,326.507 772.601,331.725C770.03,335.78 765.377,339.074 764.576,342.945C764.576,342.945 763.515,346.83 760.413,348.432C760.039,348.626 759.651,348.783 759.252,348.905C759.118,349.546 758.927,350.188 758.677,350.822C756.229,357.023 749.793,360.388 745.004,364.436C743.754,365.479 743.479,365.664 742.685,366.17C739.619,368.12 735.841,368.244 732.095,368.347C732.095,368.347 727.622,372.634 721.988,373.859C720.923,374.09 719.852,374.287 718.784,374.497C717.93,374.669 716.801,374.22 716.515,375.693C716.145,377.528 715.444,379.398 714.405,380.985C714.51,382.196 714.558,383.419 714.55,384.653C714.549,387.305 716.024,388.133 716.642,389.855C717.612,392.558 717.654,395.636 716.445,398.222C713.674,404.149 706.819,406.744 701.212,406.351C699.514,408.143 696.001,411.387 691.872,412.554C692.475,413.885 692.224,414.115 692.262,414.459C692.304,414.846 692.318,415.236 692.304,415.625C692.186,418.786 690.917,419.838 690.917,419.838C690.263,420.748 688.98,421.825 688.98,421.825C687.993,422.497 686.306,423.079 686.306,423.079C685.768,423.204 685.574,423.295 684.363,423.335C684.363,423.335 680.771,423.013 678.408,421.167C673.884,418.709 669.277,416.734 664.102,413.918C659.322,411.318 655.038,407.258 654.517,401.023C654.181,397.01 653.931,392.699 656.47,389.531C656.47,389.531 657.75,385.84 659.814,383.506C660.59,382.628 661.805,381.47 661.805,381.47C661.729,380.905 661.76,381.074 661.739,380.836C661.585,378.704 661.939,376.55 662.815,374.614C662.815,374.614 661.767,369.528 664.424,365.938C666.886,362.609 671.263,361.189 674.294,358.658C677.339,356.087 680.577,353.589 684.2,352.236C679.164,345.529 675.374,337.832 674.166,329.971C673.745,327.234 673.826,324.385 671.95,322.352C668.233,318.325 663.133,315.701 658.975,312.092C657.352,310.678 655.73,308.794 654.128,308.276C650.685,307.141 647.065,304.83 645.564,301.465C642.506,303.666 637.886,304.828 633.522,305.389C628.55,306.028 623.47,305.985 618.73,307.655C617.71,308.015 616.451,308.489 615.621,308.805C615.005,310.096 614.063,311.227 612.851,312.01C611.166,316.941 609.313,322.05 606.739,326.246C606.072,328.85 605.059,331.404 604.06,333.763C601.912,338.838 596.278,341.801 593.685,346.334C591.766,349.754 589.376,352.975 585.641,354.566C580.267,356.857 574.115,359.353 568.882,355.27C567.138,353.91 565.902,351.961 565.347,349.787C565.347,349.787 562.992,350.377 561.028,350.27C555.014,349.941 549.866,345.807 545.76,342.074C543.009,339.572 541.46,335.691 542.467,332.085C542.467,332.085 542.637,331.343 543.296,330.148C543.296,330.148 543.356,329.792 544.579,328.515L545.598,327.669C547.676,326.278 550.169,325.594 552.547,324.667C552.547,324.667 554.651,320.49 557.544,317.845C559.18,316.349 561.033,315.115 562.768,313.728C562.768,313.728 559.567,306.817 563.447,302.096C566.298,298.625 571.224,297.632 574.926,295.288C576.924,294.024 577.709,291.085 579.798,288.755C582.321,285.943 585.798,283.669 589.442,283.857C592.414,284.01 594.49,285.034 598.076,287.04C600.471,288.379 602.342,290.489 604.47,292.211C604.47,292.211 607.45,291.608 609.042,291.679C610.667,291.814 612.344,292.944 613.413,292.564C619.817,290.327 626.952,290.454 633.524,289.199C635.483,288.825 637.976,287.729 637.976,287.729C639.131,287.288 640.337,287.165 641.511,287.301C642.084,282.149 644.331,277.222 646.453,272.395C646.453,272.395 644.857,267.208 645.821,263.049C646.186,261.423 646.47,259.761 646.642,258.088C645.748,255.946 645.668,253.439 646.653,251.335C646.383,248.925 645.786,246.568 644.766,244.348C643.664,241.951 641.741,239.93 639.061,239.122C639.061,239.122 637.085,238.301 635.214,237.38C635.214,237.38 628.749,235.092 628.556,229.784C628.405,225.626 631.893,221.777 636.26,221.499C636.578,221.496 636.578,221.493 636.896,221.499C637.903,221.551 637.993,221.59 638.392,221.663C640.372,222.021 642.173,223.007 643.986,223.891C643.986,223.891 651.285,226.639 655.814,231.991L655.893,231.992C659.789,232.168 663.191,235.299 663.609,239.257C663.609,239.257 665.153,241.906 665.532,244.729C666.077,248.794 664.895,253.207 662.741,256.67C662.605,259.954 662.162,263.196 661.496,266.271C661.496,266.271 663.678,272.847 661.581,277.727C661.054,278.951 660.51,280.168 659.975,281.389C658.791,284.111 657.416,286.87 657.372,289.718C659.361,290.475 660.325,291.774 661.659,293.133L662.849,294.189C663.989,294.547 665.115,294.944 666.23,295.366C667.516,294.36 669.184,293.737 671.203,293.752C676.146,293.857 680.828,295.762 685.249,297.968C685.249,297.968 689.39,300.656 689.659,304.579C689.819,306.911 688.764,309.139 687.07,310.723C686.835,311.845 686.362,312.918 685.634,313.844C686.548,315.118 686.836,315.63 687.324,316.599C689.544,321.011 689.12,326.427 690.911,330.948C693.4,337.144 696.763,343.103 701.509,347.869C701.509,347.869 705.108,352.851 702.991,357.1C704.565,358.559 705.992,360.201 707.25,361.92C710.962,359.842 715.719,358.999 719.306,358.055C721.844,357.387 724.317,353.419 729.026,352.603C730.797,352.296 732.606,352.362 734.408,352.362C734.408,352.362 735.197,351.77 735.707,351.337C737.943,349.46 738.223,349.513 739.498,348.693C741.052,347.682 742.634,346.559 743.663,345.136C743.663,345.136 745.127,339.924 749.155,338.372C750.054,334.987 752.33,331.548 754.675,328.664C754.675,328.664 753.363,323.655 754.37,319.62C754.37,319.62 754.257,312.067 754.257,312.067C754.315,311.599 754.505,310.678 754.505,310.678C755.162,308.427 754.577,309.77 755.623,308.232C756.062,307.585 756.597,307.004 757.204,306.512C759.108,304.97 759.222,303.402 759.81,302.052C762.549,295.757 770.275,293.083 774.412,288.662C776.284,286.661 776.781,282.088 779.711,279.076C779.711,279.076 779.715,279.073 779.723,279.067ZM920.299,346.77C921.259,346.753 920.521,346.756 920.299,346.77ZM608.586,313.302C608.971,313.298 608.755,313.297 608.586,313.302ZM420.198,302.52C419.469,302.544 420.307,302.519 420.198,302.52ZM893.082,477.145L893.081,477.144L893.078,477.139L893.076,477.137L893.075,477.136C893.101,477.02 893.384,476.476 895.365,474.465C896.516,473.296 898.04,472.688 899.641,472.179C899.013,470.835 899.132,469.237 900.616,467.978C901.663,467.091 902.601,466.785 903.483,465.778C904.451,464.675 904.68,463.655 906.697,462.123C907.514,461.502 908.537,461.192 909.589,461.215C911.167,461.322 910.795,461.269 911.865,461.944C915.409,464.18 916.183,468.951 917.456,472.15C917.456,472.15 918.216,476.106 915.622,477.451C913.821,478.386 911.677,477.398 909.826,476.174L909.724,476.136C906.974,477.947 903.908,478.402 901.318,479.882C899.376,480.991 897.759,484.526 894.436,485.016C892.864,485.249 891.256,484.842 889.715,484.882C889.715,484.882 887.196,490.581 882.668,491.388C882.379,492.13 881.947,492.844 881.354,493.5C879.074,496.024 875.224,495.684 872.653,496.958C868.578,498.977 864.989,501.774 860.871,504.036C860.493,504.764 860.048,505.478 859.555,506.168C859.555,506.168 858.189,511.199 856.049,513.883C855.921,514.041 855.788,514.198 855.651,514.351C855.509,516.8 854.972,519.198 853.504,521.489C851.38,524.804 847.911,526.895 844.797,529.369C842.332,531.396 840.42,534.442 836.705,536.138C835.831,536.537 834.948,536.918 834.073,537.317C833.868,537.411 833.663,537.506 833.459,537.603C832.944,537.85 832.432,538.106 831.939,538.396C828.528,540.401 826.591,544.542 822.905,546.687C816.297,550.532 807.472,547.195 801.544,540.426C800.879,539.666 800.235,538.887 799.577,538.12C799.403,537.919 799.228,537.719 799.052,537.52C794.687,532.657 787.104,530.535 785.42,523.136C784.595,519.509 785.608,515.764 786.405,512.239C786.191,509.265 785.857,506.038 786.545,503.242C771.672,494.839 756.672,486.742 746.678,473.642C746.104,472.889 745.351,471.827 745.351,471.827C744.41,470.398 743.855,468.792 743.518,467.109C741.853,466.758 740.306,465.848 739.177,464.248C738.416,463.17 738.219,461.558 737.494,460.986C735.651,459.547 733.636,458.364 732.491,456.193C730.308,452.058 732.809,446.006 737.661,444.657C738.08,443.659 738.674,442.735 739.442,441.952C740.69,440.681 742.013,439.87 743.848,439.545C745.359,434.809 747.842,430.358 751.113,426.56C757.224,419.464 766.437,415.76 773.656,410.205C774.168,409.811 774.66,409.389 775.108,408.924C776.948,407.015 777.17,404.153 778.402,401.449C780.999,395.885 784.22,390.427 784.089,384.134C783.933,377.747 784.136,370.867 788.637,366.231C793.411,361.314 800.543,359.17 805.829,355.792C814.956,349.984 824.95,344.744 836.712,347.413C847.636,349.892 858.164,355.377 868.695,352.954C869.337,352.807 869.977,352.652 870.616,352.49C883.143,349.31 894.592,343.214 905.918,336.884C911.102,334.01 915.951,330.662 920.735,330.792C920.869,330.808 921.002,330.827 921.134,330.851C921.815,330.176 922.787,329.742 924.004,329.701C924.095,329.702 924.187,329.702 924.279,329.702C935.854,329.784 947.012,332.974 959,333.097L959,341.143C957.239,341.177 955.48,341.163 953.725,341.081C952.736,341.707 951.185,341.896 948.932,341.279C947.817,340.974 947.79,340.522 946.291,341.769C943.55,344.048 939.585,342.442 936.129,341.595C936.129,341.595 931.174,343.449 925.924,344.314C924.018,346.283 921.301,347.104 919.962,347.735C904.119,354.937 889.469,365.059 870.94,368.842C870.183,368.996 869.422,369.13 868.657,369.24C856.683,370.978 844.48,365.528 832.92,362.96C825.44,361.298 818.046,366.971 811.077,371.437C809.905,372.176 809.746,372.243 809.119,372.581C806.167,374.176 802.757,375.055 800.234,377.27C799.087,380.816 800.491,385.178 799.711,389.82C798.623,396.289 795.58,402.338 792.902,408.216C792.846,408.342 792.792,408.469 792.74,408.596C791.118,412.657 789.656,416.885 786.631,420.026C784.26,422.486 781.404,424.344 778.43,426.081C779.736,428.599 779.798,431.756 777.752,434.171C776.409,435.757 774.4,436.71 772.303,436.819C772.303,436.819 769.484,440.172 766.68,443.224C764.306,445.809 761.861,448.327 759.365,450.794C759.365,450.794 758.929,451.101 758.213,451.473C758.255,452.004 758.324,452.538 758.419,453.074C759.103,456.922 758.65,459.874 759.029,463.41C759.029,463.41 760.22,465.011 761.1,466.029C765.912,471.601 771.723,476.058 777.969,480.031C778.461,479.486 779.568,478.61 779.568,478.61C780.439,478.066 779.884,478.261 781.125,477.815C784.374,476.648 788.089,477.962 791.049,479.617L791.837,479.817C792.572,480.021 792.638,479.929 792.907,479.847C796.855,478.611 800.661,476.738 804.748,476.428C810.025,476.028 815.346,477.595 820.57,478.514C820.57,478.514 822.986,479.032 824.922,480.036C824.922,480.036 828.465,479.268 831.175,479.945C835.327,480.981 839.301,482.108 844.068,483.676C846.161,484.364 847.988,485.474 849.53,486.897C850.166,486.705 850.828,486.593 851.496,486.567C851.721,486.565 851.72,486.565 851.944,486.569C852.883,486.616 853.792,486.85 854.629,487.232C854.706,487.235 854.783,487.239 854.859,487.243C855.998,487.372 857.061,487.785 857.992,488.402C863.148,485.026 868.381,481.499 874.526,481.024C875.402,480.134 876.84,479.511 878.95,479.485C878.95,479.485 883.287,477.718 885.275,476.509C885.275,476.509 886.102,475.936 887.439,475.962C888.412,476.011 889.27,476.468 889.917,477.145C890.909,477.072 891.939,477.072 892.973,477.109C893.035,477.11 893.064,477.123 893.075,477.137L893.074,477.148L893.074,477.15L893.073,477.151L893.074,477.156L893.075,477.162L893.077,477.164L893.077,477.164L893.077,477.163L893.075,477.16L893.074,477.159L893.074,477.153L893.074,477.15L893.075,477.137L893.075,477.137L893.075,477.136L893.075,477.137L893.082,477.145L893.082,477.145Z" />
    </g>
  </g>
</svg>