<svg width="100%" height="100%" viewBox="0 0 45 52" version="1.1" xmlns="http://www.w3.org/2000/svg" xmlns:xlink="http://www.w3.org/1999/xlink" xml:space="preserve" xmlns:serif="http://www.serif.com/" style="fill-rule:evenodd;clip-rule:evenodd;stroke-linejoin:round;stroke-miterlimit:1.41421;">
  <path d="M28.925,38.459l-0.222,-11.334c-0.006,-0.282 0.103,-0.555 0.3,-0.756c0.197,-0.201 0.468,-0.315 0.75,-0.315c1.57,0 4.548,0 6.731,0c0.632,0 1.228,0.295 1.611,0.798c0.383,0.503 0.51,1.155 0.343,1.765l-2.702,9.842l-1.41,0l0,2.798l0.724,0c0.299,0 0.582,0.134 0.77,0.366c0.188,0.232 0.262,0.537 0.2,0.829l-1.694,8.048l-2.482,0l0,-5.108l-1.216,0l0,-6.933l-1.703,0Zm-22.259,12.041l-2.482,0c0,0 -1.168,-5.549 -1.694,-8.048c-0.061,-0.292 0.012,-0.597 0.2,-0.829c0.188,-0.232 0.471,-0.366 0.77,-0.366l0.724,0l0,-2.798l-1.41,0c0,0 -1.705,-6.209 -2.702,-9.842c-0.167,-0.61 -0.04,-1.262 0.343,-1.765c0.383,-0.503 0.979,-0.798 1.612,-0.798c2.182,0 5.16,0 6.73,0c0.283,0 0.553,0.114 0.75,0.315c0.198,0.201 0.306,0.474 0.3,0.756c-0.059,3.01 -0.222,11.334 -0.222,11.334l-1.703,0l0,6.933l-1.216,0l0,5.108Zm22.865,-46.824l6.567,0l0,13.135l-6.567,0l0,8.27l-2.189,0l0,8.027l-2.433,0l0,1.703l-11.189,0l0,-1.703l-2.432,0l0,-8.027l-2.19,0l0,-24.081l20.433,0l0,2.676Zm7.784,2.797l6.811,0l-0.73,12.649l-6.081,0l0,-12.649Zm-35.514,-2.797l6.325,0l0,13.865l-6.325,0l0,-13.865Zm21.162,2.675l-8.513,0l0,1.703l8.513,0l0,-1.703Z" />
</svg>