<?xml version="1.0" encoding="UTF-8" standalone="no"?><!DOCTYPE svg PUBLIC "-//W3C//DTD SVG 1.1//EN" "http://www.w3.org/Graphics/SVG/1.1/DTD/svg11.dtd"><svg width="100%" height="100%" viewBox="0 0 268 150" version="1.1" xmlns="http://www.w3.org/2000/svg" xmlns:xlink="http://www.w3.org/1999/xlink" xml:space="preserve" style="fill-rule:evenodd;clip-rule:evenodd;stroke-linejoin:round;stroke-miterlimit:1.41421;"><rect id="Artboard1" x="0" y="0" width="268" height="150" style="fill:none;"/><clipPath id="_clip1"><rect x="0" y="0" width="268" height="150"/></clipPath><g clip-path="url(#_clip1)"><path id="move_or_add" d="M184.8,0l-77,149l-13,0l77,-149l13,0Zm-88.8,37.443l-18.514,19.2l-56.229,-4.8l-21.257,23.314l12.343,8.229l15.086,-17.143l15.085,1.371l-2.057,30.172l31.543,4.114l8.914,33.6l14.4,-2.743l-10.971,-42.751l-28.296,-2.057l0,-20.335l24.867,3.429l24.686,-24l-9.6,-9.6Zm141.008,49.41l28.971,8.169l0,26.319l-46.67,13.159l-46.671,-13.159l0,-26.319l21.688,-6.115l1.339,5.61l-12.165,3.43l0,20.469l35.809,10.096l35.809,-10.096l0,-20.469l-21.247,-5.991l3.137,-5.103Zm-183.522,17.79l-13.029,-2.057l-0.686,6.857l-28.8,9.6l3.429,13.028l39.086,-12.342l0,-15.086Zm118.755,-62.834l5,-10.976c0,0 7.005,-0.295 24.463,10.237c17.457,10.531 20.947,46.836 20.947,46.836l8.869,-14.428l2.666,11.171l-13.305,21.642l-21.641,-13.304l-2.666,-11.171l14.428,8.869c0,0 -0.833,-28.766 -13.674,-38.117c-14.996,-10.919 -25.087,-10.759 -25.087,-10.759Zm-119.441,-26.309c10.218,0 18.514,8.296 18.514,18.514c0,10.219 -8.296,18.515 -18.514,18.515c-10.218,0 -18.514,-8.296 -18.514,-18.515c0,-10.218 8.296,-18.514 18.514,-18.514Z" style="fill:#fff;"/></g></svg>