<?xml version="1.0" encoding="UTF-8" standalone="no"?><!DOCTYPE svg PUBLIC "-//W3C//DTD SVG 1.1//EN" "http://www.w3.org/Graphics/SVG/1.1/DTD/svg11.dtd"><svg width="100%" height="100%" viewBox="0 0 107 139" version="1.1" xmlns="http://www.w3.org/2000/svg" xmlns:xlink="http://www.w3.org/1999/xlink" xml:space="preserve" xmlns:serif="http://www.serif.com/" style="fill-rule:evenodd;clip-rule:evenodd;stroke-linejoin:round;stroke-miterlimit:1.41421;"><rect id="Artboard1" x="0" y="0" width="106.306" height="138.604" style="fill:none;"/><g><path id="move" d="M96,24.838l-18.514,19.2l-56.229,-4.8l-21.257,23.314l12.343,8.229l15.086,-17.143l15.085,1.371l-2.057,30.172l31.543,4.114l8.914,33.6l14.4,-2.743l-10.971,-42.751l-28.296,-2.057l0,-20.335l24.867,3.429l24.686,-24l-9.6,-9.6Zm-42.514,67.2l-13.029,-2.057l-0.686,6.857l-28.8,9.6l3.429,13.028l39.086,-12.342l0,-15.086Zm-0.686,-89.143c10.218,0 18.514,8.296 18.514,18.514c0,10.219 -8.296,18.515 -18.514,18.515c-10.218,0 -18.514,-8.296 -18.514,-18.515c0,-10.218 8.296,-18.514 18.514,-18.514Z" style="fill:#2a1900;"/><path d="M100.271,4.952l-8.73,-4.952l-75.467,133.041l8.73,4.952l75.467,-133.041Z" style="fill:#cc593a;"/><path d="M100.271,4.952l-75.467,133.041l-8.73,-4.952l75.467,-133.041l8.73,4.952Zm-82.902,127.732l7.077,4.014l74.53,-131.388l-7.077,-4.015l-74.53,131.389Z" style="fill:#913b26;"/></g></svg>