<?xml version="1.0" encoding="UTF-8" standalone="no"?><!DOCTYPE svg PUBLIC "-//W3C//DTD SVG 1.1//EN" "http://www.w3.org/Graphics/SVG/1.1/DTD/svg11.dtd"><svg width="100%" height="100%" viewBox="0 0 132 106" version="1.1" xmlns="http://www.w3.org/2000/svg" xmlns:xlink="http://www.w3.org/1999/xlink" xml:space="preserve" xmlns:serif="http://www.serif.com/" style="fill-rule:evenodd;clip-rule:evenodd;stroke-linejoin:round;stroke-miterlimit:1.41421;"><rect id="Artboard1" x="0" y="0" width="131.149" height="105.521" style="fill:none;"/><g><path d="M68.028,0.812c-1.635,-0.077 -3.272,-0.077 -4.907,0c-0.287,2.096 -0.573,4.193 -0.857,6.289c-1.629,0.118 -3.251,0.323 -4.858,0.614c-0.797,-1.96 -1.595,-3.919 -2.394,-5.878c-1.603,0.331 -3.189,0.739 -4.753,1.22c0.243,2.102 0.488,4.203 0.734,6.305c-1.549,0.519 -3.068,1.121 -4.553,1.802c-1.259,-1.7 -2.519,-3.399 -3.781,-5.098c-1.469,0.72 -2.904,1.509 -4.3,2.364c0.759,1.975 1.518,3.95 2.279,5.924c-1.371,0.888 -2.693,1.849 -3.961,2.878c-1.643,-1.334 -3.286,-2.666 -4.93,-3.998c-1.245,1.063 -2.438,2.184 -3.577,3.359c1.225,1.725 2.452,3.448 3.68,5.172c-1.107,1.201 -2.149,2.46 -3.121,3.772c-1.923,-0.883 -3.846,-1.765 -5.769,-2.646c-0.941,1.339 -1.819,2.722 -2.63,4.143c1.616,1.366 3.233,2.73 4.851,4.094c-0.773,1.438 -1.469,2.917 -2.085,4.43c-2.082,-0.377 -4.164,-0.753 -6.246,-1.128c-0.578,1.531 -1.084,3.088 -1.516,4.667c1.905,0.92 3.81,1.84 5.716,2.758c-0.391,1.586 -0.697,3.191 -0.917,4.81c-2.111,0.152 -4.221,0.306 -6.331,0.46c-0.179,1.627 -0.282,3.261 -0.308,4.898c2.074,0.418 4.148,0.835 6.223,1.25c0.015,1.633 0.118,3.265 0.307,4.887c-2.006,0.672 -4.011,1.346 -6.017,2.02c0.231,1.62 0.538,3.229 0.92,4.82c2.113,-0.111 4.225,-0.223 6.338,-0.336c0.421,1.578 0.926,3.132 1.513,4.656c-1.776,1.151 -3.551,2.302 -5.325,3.454c0.626,1.512 1.323,2.994 2.089,4.44c2.019,-0.633 4.037,-1.267 6.055,-1.902c0.801,1.423 1.676,2.803 2.624,4.134c-1.434,1.555 -2.867,3.112 -4.3,4.669c0.983,1.309 2.027,2.57 3.128,3.781c1.798,-1.115 3.596,-2.231 5.393,-3.348c1.129,1.18 2.32,2.298 3.569,3.351c-1.002,1.864 -2.003,3.728 -3.003,5.592c1.277,1.023 2.602,1.986 3.97,2.884c1.464,-1.527 2.927,-3.055 4.39,-4.584c1.387,0.862 2.819,1.65 4.29,2.359c-0.507,2.054 -1.013,4.108 -1.518,6.163c1.492,0.673 3.014,1.276 4.563,1.806c1.038,-1.843 2.075,-3.687 3.112,-5.531c1.558,0.49 3.141,0.896 4.742,1.217c0.02,2.116 0.04,4.231 0.062,6.347c1.612,0.281 3.237,0.487 4.869,0.615c0.547,-2.044 1.093,-4.088 1.638,-6.132c1.631,0.087 3.266,0.087 4.896,0c0.545,2.044 1.092,4.088 1.639,6.132c1.632,-0.128 3.256,-0.334 4.869,-0.615c0.021,-2.116 0.042,-4.231 0.062,-6.347c1.601,-0.321 3.184,-0.727 4.742,-1.217c1.036,1.844 2.074,3.688 3.112,5.531c1.549,-0.53 3.071,-1.133 4.563,-1.806c-0.505,-2.055 -1.011,-4.109 -1.518,-6.163c1.471,-0.709 2.903,-1.497 4.29,-2.359c1.463,1.529 2.926,3.057 4.39,4.584c1.368,-0.898 2.693,-1.861 3.97,-2.884c-1,-1.864 -2.001,-3.728 -3.003,-5.592c1.248,-1.053 2.44,-2.171 3.569,-3.351c1.797,1.117 3.594,2.233 5.392,3.348c1.102,-1.211 2.146,-2.472 3.128,-3.781c-1.432,-1.557 -2.865,-3.114 -4.299,-4.669c0.947,-1.331 1.823,-2.711 2.623,-4.134c2.018,0.635 4.037,1.269 6.056,1.902c0.766,-1.446 1.463,-2.928 2.089,-4.44c-1.774,-1.152 -3.55,-2.303 -5.325,-3.454c0.586,-1.524 1.091,-3.078 1.513,-4.656c2.112,0.113 4.225,0.225 6.338,0.336c0.382,-1.591 0.689,-3.2 0.919,-4.82c-2.005,-0.674 -4.011,-1.348 -6.017,-2.02c0.19,-1.622 0.292,-3.254 0.308,-4.887c2.074,-0.415 4.148,-0.832 6.223,-1.25c-0.026,-1.637 -0.129,-3.271 -0.309,-4.898c-2.11,-0.154 -4.22,-0.308 -6.33,-0.46c-0.22,-1.619 -0.526,-3.224 -0.918,-4.81c1.906,-0.918 3.812,-1.838 5.717,-2.758c-0.432,-1.579 -0.938,-3.136 -1.517,-4.667c-2.082,0.375 -4.164,0.751 -6.246,1.128c-0.615,-1.513 -1.311,-2.992 -2.084,-4.43c1.617,-1.364 3.234,-2.728 4.85,-4.094c-0.81,-1.421 -1.688,-2.804 -2.629,-4.143c-1.924,0.881 -3.847,1.763 -5.769,2.646c-0.973,-1.312 -2.014,-2.571 -3.121,-3.772c1.227,-1.724 2.454,-3.447 3.68,-5.172c-1.139,-1.175 -2.333,-2.296 -3.577,-3.359c-1.644,1.332 -3.287,2.664 -4.93,3.998c-1.268,-1.029 -2.59,-1.99 -3.961,-2.878c0.76,-1.974 1.52,-3.949 2.279,-5.924c-1.396,-0.855 -2.831,-1.644 -4.301,-2.364c-1.261,1.699 -2.521,3.398 -3.781,5.098c-1.484,-0.681 -3.003,-1.283 -4.552,-1.802c0.246,-2.102 0.49,-4.203 0.734,-6.305c-1.564,-0.481 -3.151,-0.889 -4.753,-1.22c-0.799,1.959 -1.597,3.918 -2.394,5.878c-1.607,-0.291 -3.229,-0.496 -4.858,-0.614c-0.284,-2.096 -0.57,-4.193 -0.857,-6.289Zm14.543,81.86c-3.602,-4.952 -7.2,-9.905 -10.796,-14.86c-3.97,1.645 -8.431,1.645 -12.402,0c-3.595,4.955 -7.194,9.908 -10.795,14.86c5.012,2.864 10.815,4.501 16.996,4.501c6.182,0 11.984,-1.637 16.997,-4.501Zm-50.624,-36.779c-0.462,2.244 -0.705,4.568 -0.705,6.948c0,10.049 4.327,19.096 11.218,25.377c3.595,-4.953 7.192,-9.904 10.792,-14.853c-2.791,-3.268 -4.169,-7.511 -3.832,-11.795c-5.826,-1.889 -11.65,-3.781 -17.473,-5.677Zm67.255,0c-5.823,1.896 -11.648,3.788 -17.473,5.677c0.337,4.284 -1.042,8.527 -3.833,11.795c3.601,4.949 7.198,9.9 10.793,14.853c6.891,-6.281 11.218,-15.328 11.218,-25.377c0,-2.38 -0.243,-4.704 -0.705,-6.948Zm-33.628,2.539c2.434,0 4.409,1.976 4.409,4.409c0,2.433 -1.975,4.409 -4.409,4.409c-2.433,0 -4.409,-1.976 -4.409,-4.409c0,-2.433 1.976,-4.409 4.409,-4.409Zm-3.783,-29.717c-12.272,1.348 -22.607,9.175 -27.505,19.982c5.825,1.889 11.649,3.781 17.472,5.677c2.245,-3.664 5.855,-6.286 10.033,-7.29c-0.003,-6.123 -0.004,-12.246 0,-18.369Zm7.567,0c0.003,6.123 0.003,12.246 -0.001,18.369c4.179,1.004 7.788,3.626 10.034,7.29c5.823,-1.896 11.646,-3.788 17.471,-5.677c-4.898,-10.807 -15.232,-18.634 -27.504,-19.982Z" style="fill:#2a1900;"/><path d="M65.574,47.247l60.141,-41.532l5.156,7.467l-57.312,39.579l57.312,39.579l-5.156,7.466l-60.141,-41.531l-60.14,41.531l-5.157,-7.466l57.313,-39.579l-57.313,-39.579l5.157,-7.467l60.14,41.532Z" style="fill:#cc593a;"/><path d="M130.871,13.182l-57.312,39.579l57.312,39.579l-5.156,7.466l-60.141,-41.531l-60.14,41.531l-5.157,-7.466l57.313,-39.579l-57.313,-39.579l5.157,-7.467l60.14,41.532l60.141,-41.532l5.156,7.467Zm-128.507,-0.382l56.078,38.726l0.203,0.168l0.17,0.201l0.133,0.228l0.09,0.247l0.046,0.259l0,0.263l-0.046,0.26l-0.09,0.247l-0.133,0.227l-0.17,0.201l-0.203,0.168l-56.078,38.727l3.452,4.998l58.906,-40.68l0.225,-0.128l0.243,-0.087l0.255,-0.045l0.259,0l0.255,0.045l0.243,0.087l0.225,0.128l58.906,40.68l3.452,-4.998l-56.079,-38.727l-0.202,-0.168l-0.17,-0.201l-0.133,-0.227l-0.09,-0.247l-0.047,-0.26l0,-0.263l0.047,-0.259l0.09,-0.247l0.133,-0.228l0.17,-0.201l0.202,-0.168l56.079,-38.726l-3.452,-4.998l-58.906,40.679l-0.225,0.128l-0.243,0.088l-0.255,0.044l-0.259,0l-0.255,-0.044l-0.243,-0.088l-0.225,-0.128l-58.906,-40.679l-3.452,4.998Z" style="fill:#913b26;"/></g></svg>