<?xml version="1.0" encoding="UTF-8" standalone="no"?><!DOCTYPE svg PUBLIC "-//W3C//DTD SVG 1.1//EN" "http://www.w3.org/Graphics/SVG/1.1/DTD/svg11.dtd"><svg width="100%" height="100%" viewBox="0 0 112 103" version="1.1" xmlns="http://www.w3.org/2000/svg" xmlns:xlink="http://www.w3.org/1999/xlink" xml:space="preserve" xmlns:serif="http://www.serif.com/" style="fill-rule:evenodd;clip-rule:evenodd;stroke-linejoin:round;stroke-miterlimit:1.41421;"><rect id="Artboard1" x="0" y="0" width="111.079" height="102.988" style="fill:none;"/><path id="popularity" d="M53.469,13.825c0.515,0.537 1.228,0.84 1.972,0.84c0.744,0 1.456,-0.304 1.971,-0.841c11.232,-11.379 30.897,-10.857 41.022,-1.857c10.749,9.553 10.749,28.66 0,47.768c-7.185,13.685 -25.154,27.371 -40.8,36.896c-1.349,0.815 -3.037,0.815 -4.386,0.001c-15.645,-9.526 -33.615,-23.212 -40.8,-36.897c-10.749,-19.108 -10.749,-38.215 0,-47.768c10.125,-9 29.79,-9.522 41.021,1.858Zm-6.771,5.569c-8.751,-5.244 -19.535,-6.315 -25.789,-0.677c-8.633,7.782 -8.633,23.345 0,38.909c5.771,11.148 20.204,22.296 32.77,30.055c1.084,0.664 2.44,0.664 3.524,0c12.566,-7.759 26.999,-18.907 32.77,-30.055c8.634,-15.564 8.634,-31.127 0,-38.909c-6.254,-5.638 -17.038,-4.567 -25.789,0.677c5.821,-1.613 12.325,-0.286 16.302,3.35c6.262,5.723 6.262,17.171 0,28.618c-4.186,8.2 -14.653,16.4 -23.767,22.106c-0.786,0.488 -1.77,0.488 -2.556,0c-9.113,-5.706 -19.581,-13.906 -23.767,-22.106c-6.261,-11.447 -6.261,-22.895 0,-28.618c3.977,-3.636 10.481,-4.963 16.302,-3.35Z" style="fill:url(#_Linear1);"/><path d="M79.234,3.245l0.188,0.002l0.188,0.002l0.188,0.003l0.187,0.004l0.188,0.006l0.187,0.006l0.187,0.007l0.187,0.008l0.187,0.009l0.187,0.01l0.187,0.011l0.186,0.012l0.187,0.013l0.186,0.014l0.186,0.015l0.186,0.016l0.185,0.016l0.186,0.018l0.185,0.019l0.185,0.02l0.185,0.02l0.184,0.022l0.185,0.022l0.184,0.024l0.184,0.024l0.184,0.026l0.183,0.026l0.183,0.027l0.183,0.029l0.183,0.029l0.182,0.03l0.182,0.031l0.182,0.032l0.182,0.033l0.181,0.034l0.181,0.035l0.181,0.036l0.18,0.037l0.18,0.037l0.18,0.039l0.179,0.04l0.179,0.04l0.179,0.042l0.178,0.042l0.178,0.043l0.177,0.045l0.178,0.045l0.177,0.046l0.176,0.047l0.176,0.048l0.176,0.049l0.175,0.05l0.175,0.051l0.174,0.051l0.174,0.053l0.174,0.054l0.173,0.054l0.173,0.055l0.172,0.057l0.172,0.057l0.172,0.058l0.17,0.059l0.171,0.06l0.17,0.061l0.169,0.062l0.169,0.063l0.169,0.064l0.168,0.064l0.167,0.066l0.167,0.067l0.167,0.067l0.166,0.068l0.165,0.07l0.165,0.07l0.165,0.071l0.163,0.072l0.163,0.073l0.163,0.074l0.162,0.074l0.162,0.076l0.161,0.077l0.16,0.077l0.16,0.078l0.159,0.08l0.158,0.08l0.158,0.081l0.157,0.082l0.157,0.083l0.156,0.084l0.155,0.085l0.155,0.086l0.154,0.086l0.153,0.088l0.153,0.088l0.152,0.09l0.151,0.09l0.151,0.091l0.15,0.092l0.149,0.093l0.149,0.094l0.147,0.095l0.147,0.095l0.147,0.097l0.145,0.098l0.145,0.098l0.144,0.099l0.144,0.101l0.142,0.101l0.142,0.102l0.141,0.103l0.14,0.104l0.139,0.105l0.139,0.105l0.138,0.107l0.136,0.107l0.136,0.109l0.136,0.109l0.134,0.11l0.134,0.111l0.132,0.112l0.132,0.113l0.131,0.114l0.13,0.115l0.137,0.123l0.136,0.123l0.135,0.125l0.134,0.126l0.132,0.126l0.132,0.128l0.131,0.128l0.129,0.129l0.129,0.131l0.127,0.131l0.126,0.132l0.126,0.133l0.124,0.134l0.123,0.135l0.122,0.135l0.121,0.137l0.119,0.138l0.119,0.138l0.118,0.139l0.116,0.14l0.116,0.141l0.114,0.142l0.113,0.143l0.112,0.143l0.112,0.144l0.109,0.146l0.109,0.146l0.108,0.146l0.107,0.148l0.105,0.149l0.105,0.149l0.103,0.15l0.103,0.151l0.101,0.151l0.1,0.153l0.099,0.153l0.098,0.154l0.097,0.155l0.096,0.155l0.094,0.157l0.094,0.157l0.092,0.158l0.091,0.158l0.091,0.159l0.089,0.16l0.088,0.161l0.087,0.162l0.086,0.162l0.085,0.163l0.083,0.163l0.083,0.165l0.081,0.165l0.081,0.166l0.079,0.166l0.078,0.167l0.077,0.168l0.076,0.168l0.075,0.169l0.074,0.17l0.073,0.171l0.072,0.171l0.07,0.172l0.07,0.172l0.068,0.173l0.067,0.174l0.066,0.174l0.066,0.175l0.064,0.176l0.063,0.176l0.062,0.177l0.06,0.177l0.06,0.178l0.059,0.179l0.057,0.179l0.057,0.18l0.055,0.18l0.055,0.182l0.053,0.181l0.052,0.182l0.051,0.183l0.05,0.183l0.049,0.184l0.048,0.185l0.047,0.185l0.045,0.185l0.045,0.186l0.044,0.187l0.042,0.187l0.042,0.188l0.04,0.188l0.039,0.189l0.039,0.189l0.037,0.19l0.036,0.191l0.035,0.19l0.034,0.192l0.033,0.192l0.032,0.192l0.031,0.193l0.03,0.193l0.028,0.194l0.028,0.195l0.027,0.194l0.025,0.196l0.025,0.196l0.023,0.196l0.023,0.197l0.021,0.197l0.02,0.197l0.02,0.199l0.018,0.198l0.017,0.199l0.016,0.2l0.015,0.2l0.014,0.2l0.013,0.201l0.012,0.201l0.011,0.202l0.01,0.202l0.009,0.202l0.008,0.203l0.006,0.203l0.006,0.204l0.005,0.204l0.003,0.205l0.003,0.205l0.001,0.205l0.001,0.206l-0.001,0.206l-0.001,0.207l-0.003,0.207l-0.003,0.207l-0.005,0.208l-0.006,0.208l-0.006,0.208l-0.008,0.209l-0.009,0.209l-0.01,0.21l-0.011,0.21l-0.011,0.21l-0.013,0.211l-0.014,0.211l-0.015,0.211l-0.016,0.212l-0.017,0.212l-0.018,0.212l-0.019,0.213l-0.02,0.213l-0.021,0.213l-0.022,0.213l-0.023,0.214l-0.025,0.215l-0.025,0.214l-0.026,0.215l-0.027,0.215l-0.028,0.216l-0.03,0.216l-0.03,0.216l-0.031,0.216l-0.032,0.217l-0.034,0.217l-0.034,0.217l-0.035,0.218l-0.037,0.218l-0.037,0.218l-0.039,0.218l-0.039,0.219l-0.04,0.219l-0.042,0.219l-0.042,0.219l-0.044,0.22l-0.044,0.22l-0.046,0.22l-0.046,0.221l-0.048,0.22l-0.048,0.221l-0.05,0.221l-0.05,0.222l-0.052,0.221l-0.052,0.222l-0.054,0.222l-0.055,0.223l-0.055,0.222l-0.057,0.223l-0.057,0.223l-0.059,0.223l-0.06,0.223l-0.06,0.224l-0.062,0.224l-0.063,0.224l-0.063,0.224l-0.065,0.224l-0.065,0.225l-0.067,0.224l-0.068,0.225l-0.069,0.225l-0.069,0.226l-0.071,0.225l-0.072,0.226l-0.072,0.225l-0.074,0.226l-0.075,0.226l-0.075,0.226l-0.077,0.227l-0.078,0.226l-0.079,0.227l-0.079,0.227l-0.081,0.227l-0.082,0.227l-0.083,0.227l-0.083,0.227l-0.085,0.228l-0.086,0.227l-0.087,0.228l-0.087,0.228l-0.089,0.228l-0.09,0.228l-0.091,0.228l-0.091,0.228l-0.093,0.228l-0.094,0.229l-0.095,0.228l-0.095,0.229l-0.097,0.229l-0.098,0.228l-0.099,0.229l-0.1,0.229l-0.1,0.229l-0.102,0.229l-0.103,0.229l-0.104,0.23l-0.104,0.229l-0.106,0.229l-0.107,0.23l-0.108,0.229l-0.108,0.23l-0.11,0.229l-0.111,0.23l-0.112,0.229l-0.113,0.23l-0.113,0.23l-0.115,0.229l-0.116,0.23l-0.117,0.23l-0.117,0.23l-0.119,0.229l-0.12,0.23l-0.121,0.23l-0.121,0.23l-0.123,0.229l-0.124,0.23l-0.125,0.23l-0.125,0.23l-0.127,0.23l-0.128,0.229l-0.115,0.205l-0.075,0.143l-0.09,0.169l-0.091,0.169l-0.092,0.168l-0.094,0.169l-0.094,0.168l-0.095,0.168l-0.096,0.168l-0.096,0.169l-0.098,0.167l-0.099,0.168l-0.1,0.168l-0.1,0.168l-0.102,0.167l-0.102,0.168l-0.104,0.167l-0.104,0.167l-0.105,0.167l-0.106,0.168l-0.107,0.166l-0.108,0.167l-0.109,0.167l-0.109,0.167l-0.112,0.168l-0.222,0.331l-0.227,0.332l-0.23,0.332l-0.234,0.331l-0.236,0.331l-0.241,0.33l-0.243,0.33l-0.246,0.329l-0.25,0.329l-0.253,0.329l-0.255,0.328l-0.259,0.327l-0.262,0.327l-0.265,0.327l-0.267,0.326l-0.271,0.325l-0.273,0.325l-0.276,0.324l-0.279,0.324l-0.281,0.324l-0.285,0.322l-0.286,0.323l-0.29,0.321l-0.292,0.321l-0.295,0.321l-0.297,0.319l-0.299,0.32l-0.302,0.318l-0.304,0.318l-0.307,0.318l-0.309,0.316l-0.311,0.317l-0.314,0.315l-0.315,0.315l-0.318,0.314l-0.32,0.313l-0.322,0.313l-0.324,0.312l-0.326,0.312l-0.328,0.31l-0.33,0.31l-0.332,0.309l-0.334,0.309l-0.336,0.308l-0.337,0.307l-0.339,0.306l-0.341,0.305l-0.342,0.305l-0.345,0.304l-0.345,0.303l-0.348,0.302l-0.349,0.301l-0.35,0.301l-0.352,0.299l-0.353,0.299l-0.355,0.298l-0.356,0.297l-0.357,0.296l-0.359,0.296l-0.36,0.294l-0.361,0.293l-0.362,0.293l-0.363,0.292l-0.365,0.29l-0.365,0.29l-0.367,0.289l-0.367,0.287l-0.369,0.287l-0.369,0.286l-0.37,0.284l-0.371,0.284l-0.372,0.283l-0.373,0.281l-0.373,0.281l-0.374,0.279l-0.375,0.279l-0.375,0.277l-0.376,0.276l-0.377,0.275l-0.376,0.274l-0.378,0.273l-0.378,0.272l-0.378,0.27l-0.378,0.27l-0.379,0.268l-0.38,0.267l-0.379,0.265l-0.38,0.265l-0.379,0.263l-0.38,0.262l-0.38,0.261l-0.381,0.26l-0.38,0.258l-0.38,0.257l-0.38,0.256l-0.38,0.255l-0.38,0.253l-0.379,0.252l-0.38,0.25l-0.379,0.249l-0.379,0.248l-0.379,0.247l-0.378,0.245l-0.378,0.243l-0.378,0.243l-0.377,0.24l-0.377,0.24l-0.376,0.238l-0.375,0.236l-0.375,0.235l-0.374,0.234l-0.374,0.232l-0.373,0.231l-0.372,0.229l-0.371,0.228l-0.38,0.232l-0.09,0.053l-0.094,0.053l-0.095,0.052l-0.095,0.05l-0.096,0.048l-0.097,0.047l-0.097,0.044l-0.098,0.043l-0.099,0.042l-0.099,0.039l-0.099,0.038l-0.1,0.036l-0.101,0.034l-0.101,0.033l-0.101,0.031l-0.102,0.029l-0.102,0.027l-0.102,0.025l-0.103,0.024l-0.103,0.022l-0.103,0.02l-0.103,0.019l-0.104,0.016l-0.104,0.015l-0.104,0.013l-0.104,0.012l-0.105,0.009l-0.104,0.008l-0.105,0.007l-0.104,0.004l-0.105,0.003l-0.105,0l-0.105,0l-0.104,-0.003l-0.105,-0.004l-0.105,-0.007l-0.104,-0.007l-0.104,-0.01l-0.105,-0.011l-0.104,-0.014l-0.104,-0.015l-0.103,-0.016l-0.104,-0.019l-0.103,-0.02l-0.103,-0.022l-0.103,-0.023l-0.102,-0.026l-0.102,-0.027l-0.102,-0.029l-0.101,-0.031l-0.101,-0.032l-0.101,-0.035l-0.099,-0.036l-0.1,-0.037l-0.099,-0.04l-0.098,-0.041l-0.098,-0.043l-0.098,-0.045l-0.096,-0.046l-0.097,-0.049l-0.095,-0.05l-0.095,-0.051l-0.094,-0.054l-0.09,-0.053l-0.38,-0.232l-0.371,-0.228l-0.372,-0.229l-0.373,-0.23l-0.374,-0.233l-0.374,-0.233l-0.375,-0.235l-0.376,-0.237l-0.376,-0.238l-0.376,-0.239l-0.377,-0.241l-0.378,-0.242l-0.378,-0.244l-0.378,-0.245l-0.379,-0.247l-0.379,-0.247l-0.379,-0.25l-0.38,-0.25l-0.379,-0.252l-0.38,-0.253l-0.38,-0.255l-0.38,-0.255l-0.38,-0.257l-0.381,-0.259l-0.38,-0.259l-0.38,-0.261l-0.38,-0.262l-0.379,-0.264l-0.38,-0.264l-0.379,-0.266l-0.38,-0.267l-0.379,-0.268l-0.378,-0.27l-0.378,-0.27l-0.378,-0.272l-0.378,-0.273l-0.377,-0.274l-0.376,-0.275l-0.376,-0.276l-0.375,-0.277l-0.375,-0.279l-0.374,-0.279l-0.373,-0.281l-0.373,-0.281l-0.372,-0.283l-0.371,-0.284l-0.37,-0.284l-0.369,-0.286l-0.369,-0.287l-0.367,-0.287l-0.367,-0.289l-0.365,-0.29l-0.365,-0.29l-0.363,-0.292l-0.362,-0.292l-0.361,-0.294l-0.36,-0.294l-0.359,-0.296l-0.357,-0.296l-0.356,-0.297l-0.355,-0.298l-0.353,-0.299l-0.352,-0.299l-0.35,-0.301l-0.349,-0.301l-0.348,-0.302l-0.345,-0.303l-0.345,-0.304l-0.342,-0.305l-0.341,-0.305l-0.339,-0.306l-0.337,-0.307l-0.336,-0.308l-0.334,-0.309l-0.332,-0.309l-0.33,-0.31l-0.328,-0.31l-0.326,-0.312l-0.324,-0.312l-0.322,-0.313l-0.32,-0.313l-0.318,-0.314l-0.315,-0.315l-0.314,-0.315l-0.311,-0.317l-0.309,-0.316l-0.307,-0.318l-0.304,-0.318l-0.302,-0.318l-0.299,-0.32l-0.297,-0.319l-0.295,-0.321l-0.292,-0.321l-0.289,-0.321l-0.287,-0.323l-0.285,-0.322l-0.281,-0.324l-0.279,-0.324l-0.276,-0.324l-0.273,-0.325l-0.271,-0.325l-0.267,-0.326l-0.265,-0.327l-0.262,-0.327l-0.259,-0.327l-0.255,-0.328l-0.253,-0.329l-0.25,-0.329l-0.246,-0.329l-0.243,-0.33l-0.24,-0.33l-0.237,-0.331l-0.234,-0.331l-0.23,-0.332l-0.227,-0.332l-0.222,-0.331l-0.112,-0.168l-0.109,-0.167l-0.109,-0.167l-0.108,-0.167l-0.107,-0.166l-0.106,-0.168l-0.105,-0.167l-0.104,-0.167l-0.104,-0.167l-0.102,-0.168l-0.102,-0.167l-0.1,-0.168l-0.1,-0.168l-0.099,-0.168l-0.097,-0.167l-0.097,-0.169l-0.096,-0.168l-0.095,-0.168l-0.094,-0.168l-0.093,-0.169l-0.093,-0.168l-0.091,-0.169l-0.09,-0.169l-0.075,-0.143l-0.115,-0.205l-0.128,-0.229l-0.127,-0.23l-0.125,-0.23l-0.125,-0.23l-0.124,-0.23l-0.123,-0.229l-0.121,-0.23l-0.121,-0.23l-0.12,-0.23l-0.119,-0.23l-0.117,-0.229l-0.117,-0.23l-0.116,-0.23l-0.115,-0.229l-0.113,-0.23l-0.113,-0.23l-0.112,-0.229l-0.111,-0.23l-0.109,-0.229l-0.109,-0.23l-0.108,-0.229l-0.107,-0.23l-0.105,-0.229l-0.105,-0.229l-0.104,-0.23l-0.103,-0.229l-0.102,-0.229l-0.1,-0.229l-0.1,-0.229l-0.099,-0.229l-0.098,-0.228l-0.096,-0.229l-0.096,-0.229l-0.095,-0.228l-0.094,-0.229l-0.092,-0.228l-0.092,-0.228l-0.091,-0.228l-0.09,-0.228l-0.088,-0.228l-0.088,-0.228l-0.087,-0.228l-0.086,-0.227l-0.084,-0.228l-0.084,-0.227l-0.083,-0.227l-0.082,-0.227l-0.08,-0.227l-0.08,-0.227l-0.079,-0.227l-0.078,-0.226l-0.076,-0.227l-0.076,-0.226l-0.075,-0.226l-0.073,-0.226l-0.073,-0.225l-0.072,-0.226l-0.071,-0.225l-0.069,-0.226l-0.069,-0.225l-0.068,-0.225l-0.066,-0.224l-0.066,-0.225l-0.065,-0.224l-0.063,-0.224l-0.063,-0.224l-0.062,-0.224l-0.06,-0.224l-0.06,-0.223l-0.058,-0.223l-0.058,-0.223l-0.057,-0.223l-0.055,-0.222l-0.055,-0.223l-0.053,-0.222l-0.053,-0.222l-0.051,-0.221l-0.051,-0.222l-0.049,-0.221l-0.049,-0.221l-0.048,-0.22l-0.046,-0.221l-0.045,-0.22l-0.045,-0.22l-0.043,-0.22l-0.043,-0.219l-0.041,-0.219l-0.041,-0.219l-0.039,-0.219l-0.039,-0.218l-0.037,-0.218l-0.036,-0.218l-0.036,-0.218l-0.034,-0.217l-0.033,-0.217l-0.033,-0.217l-0.031,-0.216l-0.03,-0.216l-0.029,-0.216l-0.029,-0.216l-0.027,-0.215l-0.026,-0.215l-0.025,-0.214l-0.024,-0.215l-0.023,-0.214l-0.022,-0.213l-0.021,-0.213l-0.021,-0.213l-0.019,-0.213l-0.018,-0.212l-0.017,-0.212l-0.016,-0.212l-0.014,-0.211l-0.014,-0.211l-0.013,-0.211l-0.012,-0.21l-0.011,-0.21l-0.01,-0.21l-0.008,-0.209l-0.008,-0.209l-0.007,-0.208l-0.006,-0.208l-0.004,-0.208l-0.004,-0.207l-0.002,-0.207l-0.002,-0.207l-0.001,-0.206l0.001,-0.206l0.002,-0.205l0.002,-0.205l0.004,-0.205l0.004,-0.204l0.006,-0.204l0.007,-0.203l0.008,-0.203l0.008,-0.202l0.01,-0.202l0.011,-0.202l0.012,-0.201l0.013,-0.201l0.014,-0.2l0.015,-0.2l0.016,-0.2l0.018,-0.199l0.018,-0.198l0.019,-0.199l0.02,-0.197l0.022,-0.197l0.022,-0.197l0.024,-0.196l0.024,-0.196l0.026,-0.196l0.026,-0.194l0.028,-0.195l0.029,-0.194l0.029,-0.193l0.031,-0.193l0.032,-0.192l0.033,-0.192l0.034,-0.192l0.035,-0.19l0.036,-0.191l0.038,-0.19l0.038,-0.189l0.039,-0.189l0.041,-0.188l0.041,-0.188l0.043,-0.187l0.043,-0.187l0.045,-0.186l0.046,-0.185l0.046,-0.185l0.048,-0.185l0.049,-0.184l0.05,-0.183l0.051,-0.183l0.053,-0.182l0.053,-0.181l0.054,-0.182l0.056,-0.18l0.056,-0.18l0.058,-0.179l0.058,-0.179l0.06,-0.178l0.061,-0.177l0.062,-0.177l0.063,-0.176l0.064,-0.176l0.065,-0.175l0.066,-0.174l0.067,-0.174l0.069,-0.173l0.069,-0.172l0.071,-0.172l0.071,-0.171l0.073,-0.171l0.074,-0.17l0.075,-0.169l0.076,-0.168l0.077,-0.168l0.078,-0.167l0.08,-0.166l0.08,-0.166l0.081,-0.165l0.083,-0.165l0.084,-0.163l0.084,-0.163l0.086,-0.162l0.087,-0.162l0.088,-0.161l0.089,-0.16l0.091,-0.159l0.091,-0.158l0.093,-0.158l0.093,-0.157l0.095,-0.157l0.095,-0.155l0.097,-0.155l0.098,-0.154l0.099,-0.153l0.1,-0.153l0.102,-0.151l0.102,-0.151l0.103,-0.15l0.105,-0.149l0.105,-0.149l0.107,-0.148l0.108,-0.146l0.109,-0.146l0.11,-0.146l0.111,-0.144l0.112,-0.143l0.113,-0.143l0.114,-0.142l0.116,-0.141l0.116,-0.14l0.118,-0.139l0.119,-0.138l0.12,-0.138l0.12,-0.137l0.122,-0.135l0.123,-0.135l0.125,-0.134l0.125,-0.133l0.126,-0.132l0.127,-0.131l0.129,-0.131l0.129,-0.129l0.131,-0.128l0.132,-0.128l0.132,-0.126l0.134,-0.126l0.135,-0.125l0.136,-0.123l0.137,-0.123l0.13,-0.115l0.131,-0.114l0.132,-0.113l0.132,-0.112l0.134,-0.111l0.134,-0.11l0.136,-0.109l0.136,-0.109l0.137,-0.107l0.137,-0.107l0.139,-0.105l0.139,-0.105l0.14,-0.104l0.141,-0.103l0.142,-0.102l0.143,-0.101l0.143,-0.101l0.144,-0.099l0.145,-0.098l0.145,-0.098l0.147,-0.097l0.147,-0.095l0.147,-0.095l0.149,-0.094l0.149,-0.093l0.15,-0.092l0.151,-0.091l0.151,-0.09l0.152,-0.09l0.153,-0.088l0.153,-0.088l0.154,-0.086l0.155,-0.086l0.155,-0.085l0.156,-0.084l0.157,-0.083l0.157,-0.082l0.158,-0.081l0.158,-0.08l0.159,-0.08l0.16,-0.078l0.16,-0.077l0.161,-0.077l0.162,-0.076l0.162,-0.074l0.163,-0.074l0.163,-0.073l0.164,-0.072l0.164,-0.071l0.165,-0.07l0.165,-0.07l0.166,-0.068l0.167,-0.067l0.167,-0.067l0.167,-0.066l0.168,-0.064l0.169,-0.064l0.169,-0.063l0.169,-0.062l0.17,-0.061l0.171,-0.06l0.17,-0.059l0.172,-0.058l0.172,-0.057l0.172,-0.057l0.173,-0.055l0.173,-0.054l0.174,-0.054l0.174,-0.053l0.174,-0.051l0.175,-0.051l0.175,-0.05l0.176,-0.049l0.176,-0.048l0.176,-0.047l0.177,-0.046l0.178,-0.045l0.177,-0.045l0.178,-0.043l0.178,-0.042l0.179,-0.042l0.179,-0.04l0.179,-0.04l0.18,-0.039l0.18,-0.037l0.18,-0.037l0.181,-0.036l0.181,-0.035l0.181,-0.034l0.182,-0.033l0.182,-0.032l0.182,-0.031l0.182,-0.03l0.183,-0.029l0.183,-0.028l0.183,-0.028l0.183,-0.026l0.184,-0.026l0.184,-0.024l0.184,-0.024l0.185,-0.022l0.184,-0.022l0.185,-0.02l0.185,-0.02l0.185,-0.019l0.186,-0.017l0.185,-0.017l0.186,-0.016l0.186,-0.015l0.186,-0.014l0.187,-0.013l0.186,-0.012l0.187,-0.011l0.187,-0.01l0.187,-0.009l0.187,-0.008l0.187,-0.007l0.187,-0.006l0.188,-0.006l0.187,-0.004l0.188,-0.003l0.188,-0.002l0.188,-0.001l0.187,-0.001l0.189,0.001l0.188,0.002l0.188,0.002l0.188,0.004l0.188,0.005l0.189,0.005l0.188,0.007l0.188,0.007l0.189,0.009l0.188,0.01l0.189,0.01l0.188,0.012l0.189,0.012l0.188,0.014l0.189,0.015l0.189,0.015l0.188,0.017l0.188,0.017l0.189,0.019l0.188,0.02l0.189,0.02l0.188,0.022l0.188,0.023l0.188,0.023l0.188,0.025l0.189,0.026l0.187,0.026l0.188,0.028l0.188,0.029l0.188,0.03l0.187,0.031l0.188,0.031l0.187,0.033l0.187,0.034l0.188,0.035l0.186,0.036l0.187,0.037l0.187,0.038l0.186,0.039l0.187,0.04l0.186,0.042l0.186,0.042l0.186,0.043l0.185,0.044l0.186,0.046l0.185,0.046l0.185,0.048l0.185,0.048l0.184,0.05l0.185,0.05l0.184,0.052l0.184,0.053l0.183,0.054l0.184,0.054l0.183,0.056l0.183,0.057l0.182,0.058l0.183,0.06l0.182,0.06l0.181,0.061l0.182,0.063l0.181,0.063l0.181,0.064l0.18,0.066l0.18,0.067l0.18,0.068l0.179,0.068l0.179,0.07l0.179,0.071l0.179,0.072l0.178,0.074l0.177,0.074l0.178,0.075l0.176,0.077l0.177,0.078l0.176,0.078l0.176,0.08l0.175,0.081l0.175,0.082l0.174,0.083l0.174,0.084l0.174,0.086l0.173,0.086l0.172,0.088l0.172,0.088l0.172,0.09l0.171,0.091l0.171,0.092l0.17,0.093l0.17,0.095l0.169,0.095l0.169,0.097l0.168,0.097l0.167,0.099l0.168,0.1l0.166,0.101l0.166,0.103l0.165,0.103l0.165,0.104l0.165,0.106l0.163,0.107l0.163,0.108l0.163,0.109l0.162,0.11l0.161,0.111l0.161,0.113l0.16,0.114l0.159,0.114l0.159,0.116l0.158,0.117l0.157,0.119l0.157,0.119l0.156,0.121l0.156,0.121l0.155,0.123l0.154,0.124l0.153,0.126l0.153,0.126l0.152,0.128l0.151,0.128l0.15,0.13l0.15,0.131l0.149,0.132l0.148,0.134l0.148,0.134l0.146,0.136l0.146,0.137l0.145,0.138l0.145,0.139l0.143,0.141l0.143,0.141l0.14,0.141l0.034,0.035l0.014,0.013l0.013,0.013l0.014,0.012l0.015,0.012l0.014,0.011l0.015,0.011l0.015,0.011l0.015,0.01l0.016,0.01l0.015,0.009l0.016,0.009l0.017,0.009l0.016,0.008l0.017,0.008l0.016,0.007l0.017,0.007l0.017,0.007l0.018,0.006l0.017,0.006l0.018,0.005l0.018,0.005l0.017,0.004l0.018,0.004l0.018,0.004l0.019,0.003l0.018,0.002l0.018,0.002l0.019,0.002l0.018,0.001l0.019,0.001l0.019,0l0.018,0l0.019,-0.001l0.018,-0.001l0.019,-0.002l0.018,-0.002l0.019,-0.002l0.018,-0.003l0.018,-0.004l0.018,-0.004l0.018,-0.004l0.017,-0.005l0.018,-0.005l0.017,-0.006l0.018,-0.006l0.017,-0.007l0.017,-0.007l0.016,-0.007l0.017,-0.008l0.016,-0.008l0.017,-0.009l0.016,-0.009l0.015,-0.009l0.016,-0.01l0.015,-0.01l0.015,-0.011l0.015,-0.011l0.014,-0.011l0.015,-0.012l0.014,-0.012l0.013,-0.013l0.014,-0.013l0.034,-0.035l0.141,-0.141l0.143,-0.142l0.143,-0.14l0.144,-0.14l0.145,-0.138l0.146,-0.137l0.147,-0.135l0.148,-0.135l0.148,-0.133l0.149,-0.132l0.149,-0.131l0.151,-0.13l0.151,-0.129l0.152,-0.128l0.153,-0.126l0.153,-0.125l0.154,-0.124l0.155,-0.123l0.155,-0.122l0.156,-0.12l0.157,-0.12l0.158,-0.118l0.158,-0.117l0.159,-0.116l0.159,-0.115l0.16,-0.114l0.161,-0.112l0.161,-0.111l0.162,-0.111l0.162,-0.109l0.163,-0.108l0.164,-0.106l0.164,-0.106l0.165,-0.105l0.166,-0.103l0.166,-0.102l0.166,-0.101l0.167,-0.1l0.168,-0.099l0.168,-0.098l0.169,-0.096l0.169,-0.096l0.17,-0.094l0.17,-0.093l0.171,-0.092l0.171,-0.091l0.171,-0.09l0.172,-0.089l0.173,-0.087l0.173,-0.087l0.174,-0.085l0.174,-0.084l0.174,-0.083l0.175,-0.082l0.175,-0.081l0.176,-0.08l0.176,-0.079l0.176,-0.077l0.177,-0.077l0.178,-0.075l0.177,-0.075l0.178,-0.073l0.179,-0.072l0.178,-0.071l0.179,-0.07l0.18,-0.069l0.18,-0.067l0.18,-0.067l0.18,-0.066l0.181,-0.064l0.181,-0.064l0.182,-0.062l0.181,-0.061l0.182,-0.061l0.183,-0.059l0.182,-0.058l0.183,-0.057l0.183,-0.056l0.184,-0.055l0.183,-0.053l0.184,-0.053l0.184,-0.052l0.184,-0.05l0.185,-0.05l0.185,-0.049l0.185,-0.047l0.185,-0.046l0.186,-0.046l0.185,-0.044l0.186,-0.043l0.186,-0.043l0.186,-0.041l0.186,-0.04l0.187,-0.039l0.187,-0.038l0.186,-0.037l0.187,-0.036l0.187,-0.035l0.188,-0.034l0.187,-0.033l0.188,-0.032l0.187,-0.03l0.188,-0.03l0.188,-0.029l0.187,-0.028l0.188,-0.026l0.188,-0.026l0.189,-0.025l0.188,-0.023l0.188,-0.023l0.188,-0.022l0.189,-0.02l0.188,-0.02l0.188,-0.019l0.189,-0.017l0.188,-0.017l0.189,-0.015l0.188,-0.015l0.189,-0.014l0.189,-0.012l0.188,-0.012l0.189,-0.01l0.188,-0.01l0.188,-0.009l0.189,-0.007l0.188,-0.007l0.189,-0.005l0.188,-0.005l0.188,-0.004l0.188,-0.002l0.188,-0.002l0.188,-0.001l0.188,0Zm-0.363,2.001l-0.178,0.001l-0.177,0.003l-0.178,0.003l-0.178,0.005l-0.178,0.005l-0.178,0.006l-0.178,0.008l-0.178,0.008l-0.177,0.009l-0.178,0.01l-0.178,0.011l-0.178,0.012l-0.178,0.012l-0.178,0.014l-0.178,0.015l-0.178,0.016l-0.178,0.016l-0.178,0.018l-0.178,0.018l-0.178,0.02l-0.177,0.02l-0.178,0.022l-0.177,0.022l-0.178,0.023l-0.177,0.024l-0.178,0.026l-0.177,0.026l-0.177,0.027l-0.177,0.028l-0.177,0.029l-0.177,0.03l-0.176,0.031l-0.177,0.032l-0.176,0.033l-0.176,0.034l-0.176,0.035l-0.176,0.036l-0.176,0.037l-0.175,0.037l-0.176,0.039l-0.175,0.04l-0.175,0.041l-0.175,0.041l-0.174,0.043l-0.175,0.044l-0.174,0.044l-0.174,0.046l-0.173,0.047l-0.174,0.047l-0.173,0.049l-0.173,0.05l-0.173,0.05l-0.172,0.052l-0.172,0.052l-0.172,0.054l-0.172,0.054l-0.171,0.056l-0.171,0.057l-0.171,0.057l-0.17,0.059l-0.17,0.059l-0.17,0.061l-0.169,0.061l-0.169,0.063l-0.169,0.064l-0.169,0.064l-0.168,0.066l-0.167,0.067l-0.168,0.067l-0.167,0.069l-0.166,0.07l-0.166,0.07l-0.166,0.072l-0.166,0.073l-0.165,0.073l-0.164,0.075l-0.164,0.076l-0.164,0.077l-0.163,0.078l-0.163,0.078l-0.163,0.08l-0.161,0.081l-0.162,0.082l-0.161,0.083l-0.161,0.084l-0.16,0.085l-0.159,0.086l-0.159,0.087l-0.159,0.089l-0.158,0.089l-0.158,0.09l-0.157,0.091l-0.157,0.093l-0.156,0.093l-0.155,0.094l-0.155,0.096l-0.154,0.096l-0.154,0.098l-0.154,0.098l-0.152,0.1l-0.153,0.101l-0.151,0.101l-0.151,0.103l-0.151,0.104l-0.149,0.105l-0.15,0.106l-0.148,0.107l-0.148,0.108l-0.148,0.109l-0.146,0.11l-0.146,0.112l-0.146,0.112l-0.145,0.113l-0.144,0.115l-0.143,0.115l-0.143,0.117l-0.142,0.118l-0.142,0.118l-0.141,0.12l-0.14,0.121l-0.139,0.122l-0.139,0.123l-0.138,0.124l-0.137,0.125l-0.136,0.127l-0.136,0.127l-0.135,0.129l-0.134,0.129l-0.134,0.131l-0.133,0.131l-0.132,0.133l-0.049,0.05l-0.05,0.048l-0.051,0.047l-0.052,0.046l-0.053,0.044l-0.054,0.042l-0.055,0.042l-0.056,0.039l-0.057,0.039l-0.058,0.036l-0.059,0.036l-0.06,0.033l-0.06,0.033l-0.061,0.03l-0.062,0.03l-0.063,0.027l-0.063,0.026l-0.064,0.025l-0.064,0.022l-0.065,0.022l-0.066,0.019l-0.066,0.018l-0.066,0.017l-0.068,0.014l-0.067,0.013l-0.068,0.012l-0.068,0.009l-0.069,0.008l-0.069,0.006l-0.069,0.005l-0.069,0.002l-0.07,0.001l-0.07,-0.001l-0.069,-0.002l-0.07,-0.005l-0.068,-0.006l-0.069,-0.008l-0.068,-0.009l-0.068,-0.012l-0.068,-0.013l-0.067,-0.014l-0.066,-0.016l-0.067,-0.018l-0.065,-0.02l-0.065,-0.021l-0.065,-0.023l-0.064,-0.025l-0.063,-0.026l-0.062,-0.027l-0.062,-0.029l-0.061,-0.031l-0.061,-0.032l-0.059,-0.034l-0.059,-0.035l-0.058,-0.037l-0.057,-0.038l-0.056,-0.04l-0.055,-0.041l-0.055,-0.043l-0.053,-0.044l-0.052,-0.045l-0.051,-0.047l-0.05,-0.049l-0.049,-0.049l-0.132,-0.133l-0.133,-0.132l-0.133,-0.13l-0.134,-0.13l-0.135,-0.128l-0.136,-0.128l-0.137,-0.126l-0.137,-0.125l-0.138,-0.124l-0.139,-0.123l-0.139,-0.122l-0.14,-0.121l-0.141,-0.12l-0.141,-0.119l-0.142,-0.118l-0.143,-0.116l-0.144,-0.116l-0.144,-0.114l-0.145,-0.114l-0.145,-0.112l-0.146,-0.111l-0.147,-0.11l-0.147,-0.11l-0.148,-0.108l-0.149,-0.107l-0.149,-0.106l-0.15,-0.105l-0.15,-0.103l-0.151,-0.103l-0.152,-0.102l-0.152,-0.101l-0.153,-0.099l-0.153,-0.099l-0.154,-0.097l-0.154,-0.097l-0.155,-0.095l-0.156,-0.095l-0.156,-0.093l-0.156,-0.092l-0.158,-0.092l-0.157,-0.09l-0.158,-0.089l-0.159,-0.088l-0.159,-0.087l-0.16,-0.086l-0.16,-0.086l-0.16,-0.084l-0.161,-0.083l-0.162,-0.081l-0.162,-0.081l-0.162,-0.08l-0.163,-0.079l-0.163,-0.078l-0.164,-0.077l-0.164,-0.076l-0.165,-0.074l-0.165,-0.074l-0.165,-0.073l-0.166,-0.072l-0.166,-0.07l-0.167,-0.07l-0.167,-0.069l-0.167,-0.067l-0.168,-0.067l-0.168,-0.065l-0.168,-0.065l-0.169,-0.064l-0.169,-0.062l-0.169,-0.062l-0.17,-0.06l-0.17,-0.06l-0.17,-0.059l-0.171,-0.057l-0.171,-0.057l-0.171,-0.055l-0.172,-0.055l-0.172,-0.054l-0.172,-0.052l-0.173,-0.052l-0.172,-0.05l-0.173,-0.05l-0.173,-0.049l-0.174,-0.047l-0.173,-0.047l-0.174,-0.045l-0.175,-0.045l-0.174,-0.044l-0.174,-0.043l-0.175,-0.041l-0.175,-0.041l-0.175,-0.04l-0.176,-0.039l-0.175,-0.037l-0.176,-0.037l-0.176,-0.036l-0.176,-0.035l-0.176,-0.034l-0.176,-0.033l-0.177,-0.032l-0.177,-0.031l-0.176,-0.03l-0.177,-0.029l-0.177,-0.028l-0.177,-0.027l-0.177,-0.026l-0.178,-0.025l-0.177,-0.025l-0.178,-0.023l-0.177,-0.022l-0.178,-0.022l-0.177,-0.02l-0.178,-0.02l-0.178,-0.018l-0.178,-0.018l-0.178,-0.016l-0.178,-0.016l-0.178,-0.015l-0.178,-0.014l-0.178,-0.012l-0.178,-0.012l-0.178,-0.011l-0.178,-0.01l-0.178,-0.009l-0.177,-0.008l-0.178,-0.008l-0.178,-0.006l-0.178,-0.005l-0.178,-0.005l-0.178,-0.003l-0.177,-0.002l-0.178,-0.002l-0.178,-0.001l-0.177,0.001l-0.178,0.001l-0.177,0.002l-0.177,0.003l-0.177,0.004l-0.177,0.005l-0.177,0.006l-0.177,0.006l-0.177,0.008l-0.176,0.009l-0.177,0.009l-0.176,0.01l-0.176,0.012l-0.176,0.012l-0.176,0.013l-0.175,0.014l-0.176,0.015l-0.175,0.016l-0.175,0.017l-0.175,0.017l-0.174,0.019l-0.175,0.019l-0.174,0.021l-0.174,0.021l-0.174,0.022l-0.173,0.023l-0.173,0.024l-0.173,0.025l-0.173,0.026l-0.173,0.027l-0.172,0.027l-0.172,0.029l-0.171,0.029l-0.172,0.03l-0.171,0.031l-0.171,0.032l-0.17,0.033l-0.17,0.034l-0.17,0.034l-0.17,0.036l-0.169,0.036l-0.169,0.037l-0.168,0.039l-0.168,0.039l-0.168,0.04l-0.167,0.04l-0.167,0.042l-0.167,0.042l-0.166,0.044l-0.166,0.044l-0.166,0.045l-0.165,0.046l-0.165,0.047l-0.164,0.048l-0.164,0.048l-0.163,0.05l-0.163,0.05l-0.163,0.051l-0.162,0.052l-0.161,0.053l-0.161,0.054l-0.161,0.054l-0.16,0.056l-0.16,0.056l-0.159,0.057l-0.159,0.058l-0.158,0.059l-0.158,0.059l-0.157,0.061l-0.157,0.061l-0.156,0.063l-0.156,0.063l-0.155,0.063l-0.154,0.065l-0.155,0.066l-0.153,0.066l-0.153,0.067l-0.152,0.068l-0.152,0.069l-0.151,0.07l-0.151,0.07l-0.15,0.072l-0.149,0.072l-0.149,0.073l-0.148,0.074l-0.147,0.075l-0.147,0.075l-0.147,0.076l-0.145,0.078l-0.145,0.078l-0.144,0.078l-0.144,0.08l-0.143,0.08l-0.142,0.082l-0.142,0.082l-0.141,0.082l-0.14,0.084l-0.14,0.085l-0.139,0.085l-0.138,0.086l-0.137,0.087l-0.137,0.088l-0.136,0.088l-0.135,0.089l-0.134,0.09l-0.134,0.091l-0.133,0.092l-0.132,0.092l-0.132,0.094l-0.13,0.094l-0.13,0.095l-0.129,0.095l-0.129,0.097l-0.127,0.097l-0.127,0.098l-0.126,0.099l-0.125,0.1l-0.124,0.1l-0.123,0.101l-0.123,0.102l-0.121,0.103l-0.121,0.103l-0.12,0.105l-0.119,0.105l-0.126,0.112l-0.124,0.113l-0.124,0.115l-0.122,0.115l-0.122,0.115l-0.12,0.117l-0.12,0.118l-0.118,0.118l-0.118,0.119l-0.117,0.121l-0.115,0.12l-0.115,0.122l-0.114,0.123l-0.112,0.123l-0.112,0.125l-0.111,0.125l-0.109,0.126l-0.109,0.126l-0.108,0.128l-0.107,0.128l-0.105,0.129l-0.105,0.13l-0.104,0.131l-0.103,0.132l-0.102,0.132l-0.101,0.133l-0.099,0.134l-0.099,0.135l-0.098,0.135l-0.097,0.137l-0.096,0.137l-0.095,0.138l-0.094,0.138l-0.093,0.139l-0.092,0.141l-0.091,0.14l-0.09,0.142l-0.089,0.142l-0.088,0.143l-0.087,0.144l-0.086,0.145l-0.086,0.145l-0.084,0.146l-0.083,0.147l-0.082,0.148l-0.081,0.148l-0.08,0.149l-0.08,0.149l-0.078,0.151l-0.077,0.151l-0.076,0.151l-0.076,0.153l-0.074,0.153l-0.073,0.154l-0.073,0.155l-0.071,0.155l-0.07,0.156l-0.07,0.156l-0.068,0.158l-0.067,0.158l-0.067,0.158l-0.065,0.159l-0.065,0.16l-0.063,0.161l-0.063,0.161l-0.061,0.162l-0.061,0.163l-0.059,0.163l-0.059,0.164l-0.057,0.164l-0.057,0.165l-0.056,0.166l-0.054,0.167l-0.054,0.167l-0.052,0.167l-0.052,0.168l-0.051,0.169l-0.049,0.17l-0.049,0.17l-0.048,0.171l-0.047,0.171l-0.045,0.172l-0.045,0.172l-0.044,0.173l-0.043,0.174l-0.042,0.174l-0.04,0.175l-0.04,0.176l-0.039,0.175l-0.038,0.177l-0.037,0.177l-0.036,0.178l-0.035,0.178l-0.034,0.179l-0.033,0.179l-0.032,0.18l-0.031,0.181l-0.03,0.181l-0.029,0.181l-0.028,0.182l-0.027,0.183l-0.026,0.183l-0.025,0.184l-0.024,0.184l-0.023,0.184l-0.022,0.186l-0.022,0.185l-0.02,0.187l-0.019,0.186l-0.018,0.188l-0.017,0.187l-0.017,0.189l-0.015,0.188l-0.014,0.19l-0.013,0.189l-0.013,0.19l-0.011,0.191l-0.01,0.191l-0.01,0.192l-0.008,0.192l-0.007,0.193l-0.007,0.193l-0.005,0.193l-0.005,0.194l-0.003,0.194l-0.003,0.195l-0.001,0.195l-0.001,0.196l0.001,0.196l0.001,0.197l0.003,0.197l0.003,0.197l0.005,0.198l0.005,0.198l0.007,0.199l0.007,0.199l0.008,0.2l0.01,0.2l0.01,0.2l0.011,0.201l0.013,0.201l0.013,0.201l0.014,0.202l0.015,0.202l0.017,0.203l0.017,0.203l0.018,0.204l0.019,0.203l0.02,0.205l0.022,0.204l0.022,0.205l0.023,0.205l0.024,0.206l0.025,0.206l0.026,0.206l0.027,0.207l0.028,0.207l0.029,0.207l0.03,0.208l0.031,0.208l0.032,0.208l0.033,0.209l0.034,0.209l0.035,0.209l0.036,0.21l0.037,0.21l0.038,0.21l0.039,0.21l0.04,0.211l0.04,0.211l0.042,0.212l0.043,0.211l0.044,0.212l0.045,0.213l0.045,0.212l0.047,0.213l0.048,0.213l0.049,0.214l0.049,0.213l0.051,0.214l0.052,0.214l0.052,0.215l0.054,0.215l0.054,0.214l0.056,0.216l0.057,0.215l0.057,0.216l0.059,0.216l0.059,0.216l0.061,0.216l0.061,0.217l0.063,0.216l0.063,0.217l0.065,0.218l0.065,0.217l0.067,0.218l0.067,0.218l0.068,0.218l0.07,0.218l0.07,0.218l0.071,0.219l0.073,0.219l0.073,0.219l0.074,0.219l0.076,0.22l0.076,0.219l0.077,0.22l0.078,0.22l0.08,0.22l0.08,0.22l0.081,0.22l0.082,0.221l0.083,0.221l0.084,0.22l0.086,0.221l0.086,0.222l0.087,0.221l0.088,0.221l0.089,0.222l0.09,0.221l0.091,0.222l0.092,0.222l0.093,0.222l0.094,0.222l0.095,0.222l0.096,0.223l0.097,0.222l0.098,0.222l0.099,0.223l0.099,0.223l0.101,0.223l0.102,0.223l0.103,0.222l0.104,0.224l0.105,0.223l0.105,0.223l0.107,0.223l0.108,0.223l0.109,0.224l0.109,0.223l0.111,0.224l0.112,0.223l0.112,0.224l0.114,0.224l0.115,0.223l0.115,0.224l0.117,0.224l0.118,0.224l0.118,0.223l0.12,0.224l0.12,0.224l0.122,0.224l0.122,0.224l0.124,0.224l0.124,0.224l0.126,0.224l0.084,0.16l0.086,0.16l0.087,0.161l0.087,0.16l0.089,0.16l0.09,0.161l0.09,0.16l0.092,0.16l0.092,0.161l0.093,0.16l0.095,0.16l0.095,0.161l0.096,0.16l0.097,0.16l0.098,0.16l0.099,0.161l0.1,0.16l0.101,0.16l0.101,0.16l0.103,0.16l0.103,0.16l0.105,0.16l0.105,0.16l0.106,0.16l0.215,0.32l0.218,0.32l0.222,0.319l0.225,0.32l0.229,0.319l0.231,0.319l0.235,0.318l0.239,0.319l0.241,0.318l0.245,0.318l0.248,0.318l0.251,0.317l0.253,0.318l0.257,0.317l0.26,0.316l0.263,0.316l0.266,0.316l0.268,0.316l0.272,0.315l0.274,0.315l0.277,0.314l0.28,0.315l0.282,0.313l0.285,0.313l0.288,0.313l0.29,0.313l0.292,0.312l0.295,0.311l0.298,0.311l0.3,0.311l0.302,0.31l0.305,0.309l0.307,0.309l0.309,0.309l0.312,0.307l0.314,0.308l0.315,0.307l0.318,0.306l0.32,0.305l0.322,0.305l0.325,0.305l0.326,0.303l0.327,0.303l0.33,0.303l0.332,0.302l0.333,0.301l0.336,0.3l0.337,0.3l0.338,0.299l0.341,0.298l0.342,0.298l0.343,0.296l0.345,0.296l0.347,0.296l0.348,0.294l0.35,0.294l0.351,0.292l0.352,0.293l0.354,0.291l0.355,0.29l0.356,0.29l0.357,0.288l0.359,0.288l0.359,0.287l0.361,0.286l0.362,0.285l0.363,0.284l0.364,0.283l0.364,0.282l0.366,0.281l0.367,0.281l0.367,0.279l0.368,0.278l0.369,0.277l0.37,0.277l0.37,0.275l0.372,0.274l0.371,0.273l0.372,0.272l0.373,0.271l0.373,0.27l0.374,0.269l0.374,0.267l0.375,0.267l0.375,0.265l0.375,0.264l0.375,0.263l0.376,0.262l0.376,0.261l0.376,0.259l0.376,0.258l0.377,0.257l0.376,0.256l0.376,0.255l0.377,0.253l0.376,0.252l0.376,0.251l0.376,0.249l0.376,0.248l0.375,0.247l0.376,0.245l0.375,0.244l0.375,0.243l0.374,0.241l0.374,0.24l0.374,0.239l0.373,0.237l0.372,0.236l0.372,0.234l0.372,0.233l0.37,0.232l0.371,0.23l0.369,0.228l0.369,0.227l0.368,0.226l0.367,0.224l0.063,0.037l0.064,0.037l0.065,0.035l0.064,0.034l0.066,0.033l0.065,0.031l0.067,0.031l0.066,0.029l0.067,0.028l0.067,0.027l0.068,0.025l0.068,0.025l0.068,0.023l0.069,0.022l0.068,0.021l0.069,0.02l0.07,0.018l0.069,0.018l0.07,0.016l0.07,0.015l0.07,0.013l0.071,0.013l0.07,0.011l0.071,0.01l0.07,0.009l0.071,0.008l0.071,0.006l0.071,0.006l0.071,0.004l0.072,0.003l0.071,0.002l0.071,0l0.071,0l0.071,-0.002l0.071,-0.003l0.072,-0.004l0.071,-0.006l0.071,-0.006l0.07,-0.008l0.071,-0.009l0.071,-0.01l0.07,-0.011l0.071,-0.013l0.07,-0.014l0.07,-0.015l0.07,-0.016l0.069,-0.017l0.069,-0.018l0.069,-0.02l0.069,-0.021l0.069,-0.022l0.068,-0.023l0.068,-0.025l0.068,-0.025l0.067,-0.027l0.067,-0.028l0.066,-0.03l0.066,-0.03l0.066,-0.032l0.065,-0.032l0.065,-0.034l0.065,-0.036l0.064,-0.036l0.063,-0.038l0.367,-0.224l0.368,-0.225l0.369,-0.227l0.369,-0.229l0.37,-0.23l0.371,-0.231l0.372,-0.233l0.372,-0.234l0.372,-0.236l0.373,-0.237l0.374,-0.239l0.374,-0.24l0.374,-0.241l0.375,-0.243l0.375,-0.244l0.375,-0.245l0.376,-0.247l0.376,-0.248l0.376,-0.25l0.376,-0.25l0.376,-0.252l0.377,-0.254l0.376,-0.254l0.376,-0.256l0.377,-0.257l0.376,-0.258l0.376,-0.26l0.376,-0.26l0.375,-0.262l0.376,-0.263l0.375,-0.264l0.375,-0.266l0.375,-0.266l0.374,-0.268l0.373,-0.268l0.374,-0.27l0.373,-0.271l0.372,-0.272l0.371,-0.273l0.371,-0.274l0.371,-0.276l0.37,-0.276l0.369,-0.277l0.368,-0.278l0.367,-0.28l0.367,-0.28l0.366,-0.281l0.364,-0.282l0.364,-0.283l0.363,-0.284l0.362,-0.285l0.361,-0.286l0.359,-0.287l0.359,-0.288l0.357,-0.289l0.356,-0.289l0.355,-0.29l0.354,-0.292l0.352,-0.292l0.351,-0.292l0.35,-0.294l0.348,-0.294l0.347,-0.296l0.345,-0.296l0.343,-0.296l0.342,-0.298l0.341,-0.298l0.338,-0.299l0.337,-0.3l0.336,-0.3l0.333,-0.301l0.332,-0.302l0.33,-0.303l0.327,-0.303l0.326,-0.303l0.325,-0.305l0.322,-0.305l0.32,-0.305l0.318,-0.306l0.315,-0.307l0.314,-0.308l0.312,-0.307l0.309,-0.309l0.307,-0.309l0.305,-0.309l0.302,-0.31l0.3,-0.311l0.298,-0.311l0.295,-0.311l0.292,-0.312l0.291,-0.313l0.287,-0.313l0.285,-0.313l0.282,-0.313l0.28,-0.315l0.277,-0.314l0.274,-0.315l0.272,-0.315l0.268,-0.316l0.266,-0.316l0.263,-0.316l0.26,-0.316l0.257,-0.317l0.254,-0.318l0.25,-0.317l0.248,-0.318l0.245,-0.318l0.241,-0.318l0.239,-0.319l0.235,-0.318l0.231,-0.319l0.229,-0.319l0.225,-0.32l0.222,-0.319l0.218,-0.32l0.215,-0.32l0.106,-0.16l0.105,-0.16l0.105,-0.16l0.103,-0.16l0.103,-0.16l0.101,-0.16l0.101,-0.16l0.1,-0.16l0.099,-0.161l0.098,-0.16l0.097,-0.16l0.096,-0.16l0.095,-0.161l0.095,-0.16l0.093,-0.16l0.093,-0.161l0.091,-0.16l0.091,-0.16l0.089,-0.161l0.089,-0.16l0.087,-0.16l0.087,-0.161l0.086,-0.16l0.084,-0.16l0.126,-0.224l0.124,-0.224l0.124,-0.224l0.122,-0.224l0.122,-0.224l0.12,-0.224l0.12,-0.224l0.119,-0.223l0.117,-0.224l0.117,-0.224l0.115,-0.224l0.115,-0.223l0.114,-0.224l0.112,-0.224l0.112,-0.223l0.111,-0.224l0.11,-0.223l0.108,-0.224l0.108,-0.223l0.107,-0.223l0.106,-0.223l0.104,-0.223l0.104,-0.224l0.103,-0.222l0.102,-0.223l0.101,-0.223l0.1,-0.223l0.099,-0.223l0.097,-0.222l0.097,-0.222l0.096,-0.223l0.095,-0.222l0.094,-0.222l0.093,-0.222l0.092,-0.222l0.091,-0.222l0.09,-0.221l0.089,-0.222l0.088,-0.221l0.088,-0.221l0.086,-0.222l0.085,-0.221l0.084,-0.22l0.083,-0.221l0.082,-0.221l0.081,-0.22l0.081,-0.22l0.079,-0.22l0.078,-0.22l0.077,-0.22l0.077,-0.219l0.075,-0.22l0.074,-0.219l0.073,-0.219l0.073,-0.219l0.071,-0.219l0.071,-0.218l0.069,-0.218l0.068,-0.218l0.068,-0.218l0.066,-0.218l0.066,-0.217l0.064,-0.218l0.064,-0.217l0.062,-0.216l0.062,-0.217l0.06,-0.216l0.06,-0.216l0.058,-0.216l0.058,-0.216l0.056,-0.215l0.056,-0.216l0.054,-0.214l0.054,-0.215l0.053,-0.215l0.051,-0.214l0.051,-0.214l0.05,-0.213l0.049,-0.214l0.047,-0.213l0.047,-0.213l0.046,-0.212l0.045,-0.213l0.043,-0.212l0.043,-0.211l0.042,-0.212l0.041,-0.211l0.04,-0.211l0.039,-0.21l0.037,-0.21l0.037,-0.21l0.036,-0.21l0.035,-0.209l0.034,-0.209l0.033,-0.209l0.032,-0.208l0.031,-0.208l0.03,-0.208l0.029,-0.207l0.028,-0.207l0.027,-0.207l0.026,-0.206l0.025,-0.206l0.024,-0.206l0.024,-0.205l0.022,-0.205l0.021,-0.204l0.02,-0.205l0.019,-0.203l0.018,-0.204l0.018,-0.203l0.016,-0.203l0.015,-0.202l0.014,-0.202l0.014,-0.201l0.012,-0.201l0.011,-0.201l0.011,-0.2l0.009,-0.2l0.008,-0.2l0.008,-0.199l0.006,-0.199l0.006,-0.198l0.004,-0.198l0.003,-0.197l0.003,-0.197l0.001,-0.197l0.001,-0.196l-0.001,-0.196l-0.001,-0.195l-0.003,-0.195l-0.003,-0.194l-0.004,-0.194l-0.006,-0.193l-0.006,-0.193l-0.008,-0.193l-0.008,-0.192l-0.009,-0.192l-0.011,-0.191l-0.011,-0.191l-0.012,-0.19l-0.014,-0.189l-0.014,-0.19l-0.015,-0.188l-0.016,-0.189l-0.018,-0.187l-0.018,-0.188l-0.019,-0.186l-0.02,-0.187l-0.021,-0.185l-0.022,-0.186l-0.024,-0.184l-0.024,-0.184l-0.025,-0.184l-0.026,-0.183l-0.027,-0.183l-0.028,-0.182l-0.029,-0.181l-0.03,-0.181l-0.031,-0.181l-0.032,-0.18l-0.033,-0.179l-0.034,-0.179l-0.035,-0.178l-0.036,-0.178l-0.037,-0.177l-0.037,-0.177l-0.039,-0.175l-0.04,-0.176l-0.041,-0.175l-0.042,-0.174l-0.043,-0.174l-0.043,-0.173l-0.045,-0.172l-0.046,-0.172l-0.047,-0.171l-0.047,-0.171l-0.049,-0.17l-0.05,-0.17l-0.051,-0.169l-0.051,-0.168l-0.053,-0.167l-0.054,-0.167l-0.054,-0.167l-0.056,-0.166l-0.056,-0.165l-0.058,-0.164l-0.058,-0.164l-0.06,-0.163l-0.06,-0.163l-0.062,-0.162l-0.062,-0.161l-0.064,-0.161l-0.064,-0.16l-0.066,-0.159l-0.066,-0.158l-0.068,-0.158l-0.068,-0.158l-0.069,-0.156l-0.071,-0.156l-0.071,-0.155l-0.073,-0.155l-0.073,-0.154l-0.074,-0.153l-0.075,-0.153l-0.077,-0.151l-0.077,-0.151l-0.078,-0.151l-0.079,-0.149l-0.081,-0.149l-0.081,-0.148l-0.082,-0.148l-0.083,-0.147l-0.084,-0.146l-0.085,-0.145l-0.086,-0.145l-0.088,-0.144l-0.088,-0.143l-0.089,-0.142l-0.09,-0.142l-0.091,-0.14l-0.092,-0.141l-0.093,-0.139l-0.094,-0.138l-0.095,-0.138l-0.096,-0.137l-0.097,-0.137l-0.097,-0.135l-0.099,-0.135l-0.1,-0.134l-0.101,-0.133l-0.102,-0.132l-0.103,-0.132l-0.104,-0.131l-0.104,-0.13l-0.106,-0.129l-0.107,-0.128l-0.108,-0.128l-0.108,-0.126l-0.11,-0.126l-0.111,-0.125l-0.112,-0.125l-0.112,-0.123l-0.114,-0.123l-0.115,-0.122l-0.115,-0.12l-0.117,-0.121l-0.117,-0.119l-0.119,-0.118l-0.12,-0.118l-0.12,-0.117l-0.122,-0.115l-0.122,-0.115l-0.124,-0.115l-0.124,-0.113l-0.126,-0.112l-0.119,-0.105l-0.12,-0.105l-0.121,-0.103l-0.121,-0.103l-0.123,-0.102l-0.123,-0.101l-0.124,-0.1l-0.125,-0.1l-0.126,-0.099l-0.127,-0.098l-0.127,-0.097l-0.129,-0.097l-0.129,-0.095l-0.13,-0.095l-0.13,-0.094l-0.132,-0.094l-0.132,-0.092l-0.133,-0.092l-0.133,-0.091l-0.135,-0.09l-0.135,-0.089l-0.136,-0.088l-0.137,-0.088l-0.137,-0.087l-0.138,-0.086l-0.139,-0.085l-0.14,-0.085l-0.14,-0.084l-0.141,-0.082l-0.142,-0.082l-0.142,-0.082l-0.143,-0.08l-0.144,-0.08l-0.144,-0.078l-0.145,-0.078l-0.145,-0.078l-0.147,-0.076l-0.147,-0.075l-0.147,-0.075l-0.148,-0.074l-0.149,-0.073l-0.149,-0.072l-0.15,-0.072l-0.151,-0.07l-0.151,-0.07l-0.152,-0.069l-0.152,-0.068l-0.153,-0.067l-0.153,-0.066l-0.154,-0.066l-0.155,-0.065l-0.155,-0.063l-0.156,-0.063l-0.156,-0.063l-0.157,-0.061l-0.157,-0.061l-0.158,-0.059l-0.158,-0.059l-0.159,-0.058l-0.159,-0.057l-0.16,-0.056l-0.16,-0.056l-0.161,-0.054l-0.161,-0.054l-0.161,-0.053l-0.162,-0.052l-0.163,-0.051l-0.163,-0.05l-0.163,-0.05l-0.164,-0.048l-0.164,-0.048l-0.165,-0.047l-0.165,-0.046l-0.166,-0.045l-0.166,-0.044l-0.166,-0.044l-0.166,-0.042l-0.168,-0.042l-0.167,-0.04l-0.168,-0.04l-0.168,-0.039l-0.168,-0.039l-0.169,-0.037l-0.169,-0.036l-0.17,-0.036l-0.17,-0.034l-0.17,-0.034l-0.17,-0.033l-0.171,-0.032l-0.171,-0.031l-0.172,-0.03l-0.171,-0.03l-0.172,-0.028l-0.172,-0.027l-0.173,-0.027l-0.173,-0.026l-0.173,-0.025l-0.173,-0.024l-0.173,-0.023l-0.174,-0.022l-0.174,-0.021l-0.174,-0.021l-0.175,-0.019l-0.174,-0.019l-0.175,-0.017l-0.175,-0.017l-0.175,-0.016l-0.176,-0.015l-0.175,-0.014l-0.176,-0.013l-0.176,-0.012l-0.176,-0.012l-0.176,-0.01l-0.177,-0.01l-0.176,-0.008l-0.177,-0.008l-0.177,-0.006l-0.177,-0.006l-0.177,-0.005l-0.177,-0.004l-0.177,-0.003l-0.177,-0.002l-0.178,-0.002l-0.177,0l-0.178,0.001Zm-46.857,9.704l0.212,0.003l0.213,0.005l0.214,0.007l0.214,0.01l0.214,0.011l0.215,0.013l0.216,0.015l0.216,0.017l0.216,0.019l0.216,0.022l0.217,0.023l0.217,0.025l0.218,0.027l0.218,0.028l0.218,0.031l0.218,0.033l0.219,0.034l0.218,0.037l0.219,0.038l0.219,0.04l0.22,0.043l0.219,0.044l0.22,0.045l0.219,0.048l0.22,0.05l0.22,0.051l0.22,0.053l0.219,0.055l0.22,0.057l0.22,0.059l0.22,0.06l0.22,0.063l0.219,0.064l0.22,0.066l0.22,0.067l0.219,0.07l0.219,0.071l0.219,0.073l0.219,0.074l0.219,0.077l0.218,0.078l0.219,0.08l0.218,0.081l0.217,0.084l0.218,0.085l0.217,0.086l0.217,0.089l0.216,0.09l0.216,0.092l0.216,0.093l0.215,0.095l0.215,0.097l0.214,0.098l0.214,0.1l0.214,0.102l0.212,0.103l0.213,0.105l0.212,0.106l0.211,0.108l0.211,0.11l0.21,0.111l0.21,0.113l0.208,0.114l0.209,0.116l0.207,0.118l0.207,0.119l0.206,0.121l0.206,0.122l-0.137,-0.038l-0.136,-0.036l-0.137,-0.035l-0.138,-0.034l-0.137,-0.033l-0.138,-0.032l-0.138,-0.031l-0.138,-0.029l-0.138,-0.029l-0.138,-0.028l-0.139,-0.026l-0.139,-0.026l-0.138,-0.024l-0.139,-0.024l-0.139,-0.022l-0.14,-0.021l-0.139,-0.021l-0.139,-0.019l-0.14,-0.018l-0.139,-0.017l-0.14,-0.016l-0.14,-0.015l-0.139,-0.014l-0.14,-0.013l-0.14,-0.012l-0.14,-0.011l-0.14,-0.01l-0.139,-0.009l-0.14,-0.008l-0.14,-0.007l-0.14,-0.006l-0.14,-0.004l-0.139,-0.004l-0.14,-0.003l-0.139,-0.002l-0.14,0l-0.139,0l-0.14,0.001l-0.139,0.003l-0.139,0.003l-0.139,0.004l-0.139,0.006l-0.139,0.006l-0.138,0.007l-0.139,0.008l-0.138,0.01l-0.138,0.01l-0.138,0.011l-0.138,0.013l-0.138,0.013l-0.137,0.014l-0.137,0.015l-0.137,0.017l-0.137,0.017l-0.136,0.018l-0.136,0.019l-0.136,0.02l-0.136,0.022l-0.135,0.022l-0.135,0.023l-0.135,0.024l-0.134,0.025l-0.134,0.026l-0.134,0.027l-0.134,0.027l-0.133,0.029l-0.133,0.03l-0.132,0.031l-0.132,0.032l-0.132,0.032l-0.131,0.034l-0.131,0.034l-0.13,0.036l-0.13,0.036l-0.13,0.038l-0.129,0.038l-0.129,0.039l-0.128,0.04l-0.128,0.042l-0.127,0.042l-0.127,0.043l-0.126,0.044l-0.126,0.045l-0.125,0.045l-0.125,0.047l-0.124,0.048l-0.124,0.048l-0.123,0.05l-0.123,0.05l-0.122,0.051l-0.121,0.053l-0.121,0.053l-0.12,0.054l-0.12,0.055l-0.119,0.056l-0.118,0.057l-0.118,0.057l-0.117,0.059l-0.117,0.059l-0.116,0.061l-0.115,0.061l-0.114,0.062l-0.114,0.063l-0.113,0.064l-0.113,0.065l-0.112,0.066l-0.111,0.066l-0.11,0.068l-0.109,0.068l-0.109,0.069l-0.108,0.071l-0.107,0.071l-0.107,0.071l-0.105,0.073l-0.105,0.074l-0.104,0.074l-0.104,0.076l-0.102,0.076l-0.102,0.077l-0.1,0.078l-0.1,0.079l-0.099,0.08l-0.098,0.08l-0.098,0.082l-0.096,0.082l-0.096,0.083l-0.094,0.084l-0.094,0.085l-0.073,0.067l-0.073,0.068l-0.071,0.068l-0.072,0.069l-0.071,0.069l-0.07,0.07l-0.07,0.071l-0.069,0.071l-0.068,0.071l-0.068,0.072l-0.067,0.073l-0.067,0.073l-0.066,0.073l-0.066,0.074l-0.065,0.075l-0.065,0.074l-0.063,0.076l-0.064,0.076l-0.063,0.076l-0.062,0.077l-0.122,0.155l-0.121,0.158l-0.118,0.159l-0.116,0.161l-0.113,0.162l-0.111,0.165l-0.109,0.167l-0.107,0.168l-0.104,0.17l-0.102,0.172l-0.1,0.174l-0.098,0.175l-0.095,0.177l-0.093,0.179l-0.09,0.181l-0.088,0.182l-0.086,0.184l-0.084,0.186l-0.081,0.187l-0.08,0.189l-0.076,0.19l-0.075,0.192l-0.072,0.194l-0.07,0.195l-0.068,0.197l-0.065,0.198l-0.063,0.2l-0.061,0.201l-0.058,0.203l-0.057,0.204l-0.053,0.205l-0.052,0.207l-0.049,0.209l-0.047,0.21l-0.045,0.211l-0.042,0.213l-0.041,0.213l-0.037,0.216l-0.036,0.216l-0.033,0.218l-0.031,0.219l-0.029,0.221l-0.026,0.221l-0.024,0.223l-0.022,0.224l-0.02,0.225l-0.017,0.227l-0.015,0.227l-0.012,0.229l-0.011,0.23l-0.008,0.231l-0.005,0.232l-0.004,0.233l-0.001,0.235l0.001,0.235l0.004,0.236l0.005,0.238l0.008,0.238l0.011,0.239l0.012,0.24l0.015,0.242l0.017,0.242l0.02,0.243l0.022,0.244l0.024,0.245l0.026,0.245l0.029,0.247l0.031,0.247l0.033,0.249l0.036,0.249l0.037,0.25l0.041,0.25l0.042,0.252l0.045,0.252l0.047,0.252l0.049,0.254l0.052,0.254l0.053,0.255l0.057,0.256l0.058,0.256l0.061,0.257l0.063,0.257l0.065,0.258l0.068,0.258l0.07,0.26l0.072,0.259l0.075,0.26l0.076,0.261l0.08,0.261l0.081,0.262l0.084,0.262l0.086,0.263l0.088,0.263l0.09,0.263l0.093,0.264l0.095,0.264l0.098,0.264l0.1,0.265l0.102,0.265l0.104,0.266l0.107,0.266l0.109,0.266l0.111,0.266l0.113,0.267l0.116,0.266l0.118,0.268l0.121,0.267l0.122,0.267l0.125,0.268l0.127,0.267l0.13,0.268l0.132,0.268l0.134,0.268l0.136,0.268l0.139,0.269l0.141,0.268l0.143,0.268l0.146,0.268l0.099,0.193l0.102,0.192l0.104,0.192l0.106,0.192l0.108,0.192l0.11,0.192l0.113,0.192l0.115,0.192l0.117,0.192l0.118,0.192l0.122,0.192l0.123,0.191l0.125,0.192l0.127,0.192l0.129,0.191l0.131,0.191l0.133,0.192l0.135,0.191l0.137,0.191l0.139,0.19l0.141,0.191l0.142,0.191l0.145,0.19l0.146,0.19l0.148,0.19l0.149,0.19l0.152,0.19l0.153,0.189l0.155,0.19l0.156,0.189l0.158,0.189l0.16,0.188l0.161,0.189l0.163,0.188l0.165,0.188l0.166,0.187l0.167,0.188l0.169,0.187l0.171,0.187l0.172,0.186l0.173,0.187l0.175,0.186l0.176,0.186l0.177,0.185l0.179,0.185l0.18,0.185l0.182,0.184l0.183,0.184l0.184,0.184l0.185,0.184l0.186,0.183l0.188,0.183l0.189,0.182l0.19,0.182l0.191,0.181l0.192,0.182l0.193,0.18l0.194,0.181l0.195,0.18l0.197,0.179l0.197,0.179l0.198,0.179l0.2,0.178l0.2,0.178l0.201,0.178l0.202,0.176l0.202,0.177l0.204,0.176l0.205,0.175l0.205,0.175l0.206,0.175l0.207,0.174l0.207,0.173l0.208,0.173l0.209,0.172l0.21,0.172l0.21,0.171l0.211,0.171l0.211,0.17l0.212,0.17l0.212,0.169l0.213,0.169l0.214,0.168l0.214,0.167l0.214,0.167l0.215,0.166l0.432,0.33l0.432,0.328l0.434,0.325l0.435,0.323l0.436,0.32l0.437,0.317l0.438,0.315l0.438,0.311l0.438,0.309l0.439,0.306l0.438,0.302l0.438,0.3l0.438,0.296l0.437,0.294l0.437,0.29l0.435,0.286l0.435,0.284l0.433,0.28l0.431,0.276l0.43,0.273l0.428,0.269l0.037,0.023l0.038,0.022l0.037,0.021l0.038,0.02l0.076,0.039l0.078,0.036l0.078,0.032l0.079,0.03l0.079,0.028l0.081,0.024l0.081,0.021l0.081,0.019l0.082,0.016l0.082,0.012l0.083,0.01l0.082,0.008l0.083,0.004l0.083,0.001l0.083,-0.001l0.083,-0.004l0.083,-0.008l0.082,-0.01l0.082,-0.012l0.082,-0.016l0.082,-0.019l0.08,-0.021l0.081,-0.025l0.079,-0.027l0.079,-0.03l0.078,-0.033l0.078,-0.035l0.076,-0.039l0.038,-0.02l0.037,-0.021l0.038,-0.022l0.037,-0.023l0.428,-0.269l0.43,-0.273l0.431,-0.276l0.433,-0.28l0.435,-0.284l0.435,-0.286l0.437,-0.29l0.437,-0.294l0.438,-0.296l0.438,-0.3l0.438,-0.303l0.439,-0.305l0.438,-0.309l0.438,-0.312l0.438,-0.314l0.437,-0.317l0.436,-0.32l0.435,-0.323l0.434,-0.325l0.433,-0.328l0.431,-0.33l0.215,-0.166l0.214,-0.167l0.214,-0.168l0.214,-0.167l0.213,-0.169l0.212,-0.169l0.212,-0.17l0.212,-0.17l0.21,-0.171l0.211,-0.171l0.209,-0.172l0.209,-0.172l0.208,-0.173l0.208,-0.173l0.206,-0.174l0.206,-0.175l0.206,-0.175l0.204,-0.175l0.204,-0.176l0.202,-0.177l0.202,-0.176l0.201,-0.178l0.201,-0.178l0.199,-0.178l0.198,-0.179l0.197,-0.179l0.197,-0.179l0.195,-0.18l0.194,-0.181l0.193,-0.18l0.193,-0.182l0.191,-0.181l0.19,-0.182l0.188,-0.182l0.188,-0.183l0.186,-0.183l0.186,-0.184l0.184,-0.184l0.182,-0.184l0.182,-0.184l0.18,-0.185l0.179,-0.185l0.177,-0.185l0.176,-0.186l0.175,-0.186l0.174,-0.187l0.171,-0.186l0.171,-0.187l0.169,-0.187l0.167,-0.188l0.167,-0.187l0.164,-0.188l0.163,-0.188l0.161,-0.189l0.16,-0.188l0.158,-0.189l0.157,-0.189l0.154,-0.19l0.153,-0.189l0.152,-0.19l0.149,-0.19l0.148,-0.19l0.147,-0.19l0.144,-0.19l0.142,-0.191l0.141,-0.191l0.139,-0.19l0.137,-0.191l0.135,-0.191l0.133,-0.192l0.131,-0.191l0.129,-0.191l0.127,-0.192l0.126,-0.192l0.123,-0.191l0.121,-0.192l0.119,-0.192l0.117,-0.192l0.114,-0.192l0.113,-0.192l0.11,-0.192l0.109,-0.192l0.106,-0.192l0.103,-0.192l0.102,-0.192l0.099,-0.193l0.146,-0.268l0.143,-0.268l0.141,-0.268l0.139,-0.269l0.136,-0.268l0.134,-0.268l0.132,-0.268l0.13,-0.268l0.127,-0.267l0.125,-0.268l0.123,-0.267l0.12,-0.267l0.118,-0.268l0.116,-0.266l0.113,-0.267l0.112,-0.266l0.109,-0.266l0.106,-0.266l0.105,-0.266l0.102,-0.265l0.099,-0.265l0.098,-0.264l0.095,-0.264l0.093,-0.264l0.09,-0.263l0.089,-0.263l0.086,-0.263l0.083,-0.262l0.082,-0.262l0.079,-0.261l0.077,-0.261l0.074,-0.26l0.072,-0.259l0.07,-0.26l0.068,-0.258l0.065,-0.258l0.063,-0.257l0.061,-0.257l0.059,-0.256l0.056,-0.256l0.054,-0.255l0.051,-0.254l0.05,-0.254l0.047,-0.252l0.044,-0.252l0.043,-0.252l0.04,-0.25l0.038,-0.25l0.035,-0.249l0.034,-0.249l0.031,-0.247l0.028,-0.247l0.027,-0.245l0.024,-0.245l0.021,-0.244l0.02,-0.243l0.017,-0.242l0.015,-0.242l0.013,-0.24l0.01,-0.239l0.008,-0.238l0.006,-0.238l0.003,-0.236l0.001,-0.235l-0.001,-0.235l-0.003,-0.233l-0.006,-0.232l-0.008,-0.231l-0.01,-0.23l-0.013,-0.229l-0.015,-0.227l-0.017,-0.227l-0.02,-0.225l-0.021,-0.224l-0.024,-0.223l-0.027,-0.221l-0.028,-0.221l-0.031,-0.219l-0.034,-0.218l-0.035,-0.216l-0.038,-0.216l-0.04,-0.213l-0.043,-0.213l-0.044,-0.211l-0.047,-0.21l-0.05,-0.209l-0.051,-0.207l-0.054,-0.205l-0.056,-0.204l-0.059,-0.203l-0.061,-0.201l-0.063,-0.2l-0.065,-0.198l-0.068,-0.197l-0.07,-0.195l-0.072,-0.194l-0.074,-0.192l-0.077,-0.19l-0.079,-0.189l-0.082,-0.187l-0.083,-0.186l-0.086,-0.184l-0.089,-0.182l-0.09,-0.181l-0.093,-0.179l-0.095,-0.177l-0.098,-0.175l-0.099,-0.174l-0.102,-0.172l-0.105,-0.17l-0.106,-0.168l-0.109,-0.167l-0.112,-0.165l-0.113,-0.162l-0.116,-0.161l-0.118,-0.159l-0.12,-0.158l-0.123,-0.155l-0.062,-0.077l-0.063,-0.076l-0.063,-0.076l-0.064,-0.076l-0.065,-0.074l-0.065,-0.075l-0.065,-0.074l-0.067,-0.073l-0.066,-0.073l-0.068,-0.073l-0.068,-0.072l-0.068,-0.071l-0.069,-0.071l-0.07,-0.071l-0.07,-0.07l-0.071,-0.069l-0.071,-0.069l-0.072,-0.068l-0.073,-0.068l-0.073,-0.067l-0.094,-0.085l-0.094,-0.084l-0.096,-0.083l-0.096,-0.083l-0.097,-0.081l-0.099,-0.08l-0.099,-0.08l-0.099,-0.079l-0.101,-0.078l-0.102,-0.077l-0.102,-0.076l-0.103,-0.076l-0.105,-0.074l-0.104,-0.074l-0.106,-0.073l-0.107,-0.071l-0.107,-0.071l-0.108,-0.071l-0.109,-0.069l-0.109,-0.068l-0.11,-0.068l-0.111,-0.066l-0.112,-0.066l-0.112,-0.065l-0.114,-0.064l-0.113,-0.063l-0.115,-0.062l-0.115,-0.061l-0.116,-0.061l-0.117,-0.059l-0.117,-0.059l-0.118,-0.058l-0.118,-0.056l-0.119,-0.056l-0.12,-0.055l-0.12,-0.054l-0.121,-0.053l-0.121,-0.053l-0.122,-0.051l-0.123,-0.05l-0.123,-0.05l-0.124,-0.048l-0.124,-0.048l-0.125,-0.047l-0.125,-0.045l-0.126,-0.045l-0.126,-0.044l-0.127,-0.043l-0.127,-0.042l-0.128,-0.042l-0.128,-0.04l-0.129,-0.039l-0.129,-0.038l-0.13,-0.038l-0.13,-0.036l-0.13,-0.036l-0.131,-0.034l-0.131,-0.034l-0.132,-0.033l-0.132,-0.031l-0.132,-0.031l-0.133,-0.03l-0.133,-0.029l-0.134,-0.027l-0.134,-0.027l-0.134,-0.026l-0.134,-0.025l-0.135,-0.024l-0.135,-0.023l-0.135,-0.023l-0.136,-0.021l-0.136,-0.02l-0.136,-0.019l-0.136,-0.018l-0.137,-0.017l-0.137,-0.017l-0.137,-0.015l-0.137,-0.014l-0.138,-0.013l-0.138,-0.013l-0.138,-0.011l-0.138,-0.01l-0.138,-0.01l-0.139,-0.008l-0.138,-0.007l-0.139,-0.007l-0.139,-0.005l-0.139,-0.004l-0.139,-0.003l-0.139,-0.003l-0.14,-0.001l-0.139,0l-0.14,0l-0.139,0.002l-0.14,0.003l-0.139,0.004l-0.14,0.004l-0.14,0.006l-0.14,0.007l-0.14,0.008l-0.139,0.009l-0.14,0.01l-0.14,0.011l-0.14,0.012l-0.14,0.013l-0.139,0.014l-0.14,0.015l-0.14,0.016l-0.139,0.017l-0.14,0.018l-0.139,0.019l-0.139,0.021l-0.14,0.021l-0.139,0.022l-0.139,0.024l-0.138,0.024l-0.139,0.026l-0.139,0.026l-0.138,0.028l-0.138,0.029l-0.138,0.029l-0.138,0.031l-0.138,0.032l-0.137,0.033l-0.137,0.034l-0.138,0.035l-0.136,0.036l-0.137,0.038l0.206,-0.122l0.206,-0.121l0.207,-0.119l0.207,-0.118l0.209,-0.116l0.209,-0.114l0.209,-0.113l0.21,-0.111l0.211,-0.11l0.211,-0.108l0.212,-0.106l0.213,-0.105l0.213,-0.103l0.213,-0.102l0.214,-0.1l0.214,-0.098l0.215,-0.097l0.215,-0.095l0.216,-0.093l0.216,-0.092l0.216,-0.09l0.217,-0.089l0.217,-0.086l0.218,-0.085l0.217,-0.084l0.218,-0.081l0.219,-0.08l0.218,-0.078l0.219,-0.077l0.219,-0.074l0.219,-0.073l0.219,-0.071l0.219,-0.07l0.22,-0.067l0.22,-0.066l0.219,-0.064l0.22,-0.063l0.22,-0.06l0.22,-0.059l0.22,-0.057l0.219,-0.055l0.22,-0.053l0.22,-0.051l0.22,-0.05l0.219,-0.048l0.22,-0.045l0.219,-0.044l0.22,-0.043l0.219,-0.04l0.219,-0.038l0.219,-0.037l0.218,-0.034l0.218,-0.033l0.218,-0.031l0.218,-0.028l0.218,-0.027l0.217,-0.025l0.217,-0.023l0.216,-0.022l0.217,-0.019l0.215,-0.017l0.216,-0.015l0.215,-0.013l0.214,-0.011l0.214,-0.01l0.214,-0.007l0.213,-0.005l0.213,-0.003l0.212,-0.002l0.211,0.001l0.211,0.003l0.21,0.005l0.21,0.007l0.209,0.009l0.209,0.011l0.207,0.013l0.208,0.015l0.206,0.018l0.206,0.019l0.205,0.022l0.204,0.023l0.203,0.026l0.203,0.028l0.202,0.03l0.201,0.032l0.2,0.034l0.199,0.037l0.198,0.038l0.198,0.041l0.196,0.043l0.196,0.045l0.195,0.047l0.193,0.05l0.193,0.052l0.192,0.054l0.19,0.056l0.19,0.058l0.188,0.061l0.187,0.062l0.187,0.065l0.185,0.068l0.184,0.069l0.182,0.072l0.182,0.074l0.18,0.077l0.18,0.078l0.178,0.081l0.176,0.084l0.176,0.085l0.174,0.088l0.172,0.09l0.172,0.093l0.17,0.095l0.168,0.097l0.168,0.1l0.166,0.102l0.164,0.104l0.163,0.107l0.161,0.109l0.16,0.112l0.159,0.113l0.157,0.117l0.155,0.118l0.154,0.122l0.152,0.123l0.151,0.126l0.149,0.129l0.147,0.131l0.101,0.091l0.1,0.092l0.099,0.093l0.099,0.094l0.097,0.094l0.097,0.095l0.096,0.096l0.096,0.097l0.094,0.097l0.094,0.098l0.093,0.098l0.092,0.099l0.091,0.1l0.09,0.101l0.09,0.101l0.089,0.102l0.088,0.103l0.088,0.103l0.086,0.104l0.086,0.104l0.085,0.105l0.084,0.106l0.083,0.107l0.083,0.107l0.082,0.108l0.081,0.108l0.08,0.109l0.079,0.11l0.079,0.11l0.078,0.111l0.077,0.112l0.076,0.112l0.076,0.113l0.075,0.114l0.073,0.114l0.074,0.115l0.072,0.115l0.071,0.116l0.071,0.116l0.07,0.118l0.069,0.117l0.069,0.119l0.067,0.119l0.067,0.119l0.066,0.12l0.065,0.121l0.065,0.121l0.063,0.122l0.063,0.123l0.062,0.123l0.061,0.124l0.061,0.124l0.06,0.124l0.058,0.126l0.059,0.126l0.057,0.126l0.056,0.127l0.056,0.128l0.055,0.128l0.054,0.128l0.053,0.13l0.053,0.129l0.052,0.131l0.051,0.131l0.05,0.131l0.049,0.132l0.049,0.132l0.048,0.133l0.047,0.134l0.046,0.134l0.046,0.134l0.044,0.135l0.044,0.136l0.043,0.136l0.042,0.136l0.042,0.137l0.041,0.138l0.04,0.138l0.039,0.138l0.038,0.14l0.038,0.139l0.036,0.14l0.036,0.141l0.035,0.141l0.035,0.141l0.033,0.142l0.033,0.142l0.032,0.143l0.031,0.144l0.031,0.143l0.03,0.145l0.028,0.144l0.028,0.146l0.028,0.145l0.026,0.146l0.026,0.147l0.025,0.147l0.024,0.147l0.023,0.148l0.023,0.148l0.021,0.149l0.021,0.149l0.021,0.15l0.019,0.15l0.018,0.15l0.018,0.151l0.017,0.152l0.016,0.151l0.016,0.152l0.015,0.153l0.013,0.153l0.013,0.153l0.013,0.154l0.011,0.154l0.011,0.155l0.01,0.155l0.009,0.155l0.008,0.156l0.008,0.156l0.006,0.156l0.006,0.157l0.005,0.157l0.005,0.158l0.003,0.158l0.003,0.158l0.002,0.159l0.001,0.159l0.001,0.159l-0.001,0.16l-0.001,0.16l-0.002,0.161l-0.003,0.16l-0.003,0.162l-0.005,0.161l-0.005,0.162l-0.006,0.162l-0.006,0.163l-0.008,0.162l-0.008,0.164l-0.009,0.163l-0.01,0.164l-0.011,0.164l-0.011,0.165l-0.013,0.164l-0.013,0.165l-0.013,0.166l-0.015,0.166l-0.016,0.166l-0.016,0.166l-0.017,0.166l-0.018,0.167l-0.018,0.168l-0.019,0.167l-0.021,0.168l-0.042,0.336l-0.046,0.338l-0.049,0.338l-0.052,0.34l-0.056,0.341l-0.058,0.341l-0.062,0.343l-0.065,0.344l-0.068,0.345l-0.071,0.345l-0.074,0.347l-0.077,0.347l-0.081,0.348l-0.084,0.349l-0.087,0.35l-0.09,0.351l-0.093,0.352l-0.097,0.352l-0.099,0.353l-0.103,0.354l-0.106,0.354l-0.109,0.355l-0.112,0.356l-0.116,0.356l-0.118,0.357l-0.122,0.358l-0.125,0.358l-0.128,0.359l-0.131,0.359l-0.134,0.359l-0.138,0.36l-0.141,0.361l-0.143,0.361l-0.147,0.361l-0.151,0.362l-0.153,0.362l-0.157,0.363l-0.159,0.362l-0.163,0.363l-0.166,0.364l-0.169,0.363l-0.172,0.364l-0.176,0.364l-0.179,0.364l-0.181,0.364l-0.185,0.365l-0.188,0.364l-0.192,0.365l-0.194,0.365l-0.198,0.365l-0.201,0.364l-0.136,0.262l-0.14,0.261l-0.143,0.261l-0.147,0.261l-0.149,0.262l-0.152,0.261l-0.155,0.261l-0.159,0.261l-0.161,0.261l-0.164,0.261l-0.167,0.26l-0.169,0.261l-0.173,0.26l-0.175,0.261l-0.178,0.26l-0.181,0.26l-0.184,0.26l-0.186,0.26l-0.189,0.26l-0.191,0.259l-0.194,0.259l-0.197,0.259l-0.199,0.259l-0.201,0.259l-0.204,0.258l-0.206,0.258l-0.209,0.258l-0.211,0.258l-0.214,0.257l-0.215,0.257l-0.218,0.257l-0.221,0.256l-0.222,0.257l-0.225,0.255l-0.227,0.256l-0.228,0.255l-0.231,0.255l-0.233,0.254l-0.235,0.254l-0.238,0.254l-0.239,0.254l-0.241,0.252l-0.242,0.253l-0.245,0.252l-0.247,0.252l-0.248,0.251l-0.25,0.251l-0.252,0.25l-0.254,0.25l-0.255,0.249l-0.257,0.249l-0.259,0.249l-0.26,0.248l-0.262,0.247l-0.264,0.247l-0.265,0.246l-0.266,0.246l-0.268,0.245l-0.269,0.245l-0.271,0.244l-0.272,0.244l-0.273,0.243l-0.275,0.242l-0.276,0.242l-0.277,0.241l-0.278,0.24l-0.28,0.24l-0.281,0.239l-0.282,0.239l-0.283,0.238l-0.284,0.237l-0.285,0.236l-0.286,0.236l-0.287,0.235l-0.288,0.235l-0.289,0.233l-0.29,0.233l-0.29,0.232l-0.292,0.232l-0.292,0.23l-0.293,0.23l-0.294,0.229l-0.294,0.229l-0.295,0.227l-0.296,0.227l-0.296,0.226l-0.297,0.225l-0.298,0.224l-0.298,0.223l-0.298,0.223l-0.299,0.221l-0.3,0.221l-0.3,0.22l-0.3,0.219l-0.3,0.218l-0.301,0.217l-0.301,0.216l-0.302,0.215l-0.301,0.214l-0.302,0.213l-0.302,0.213l-0.302,0.211l-0.302,0.21l-0.302,0.21l-0.303,0.208l-0.302,0.207l-0.302,0.207l-0.302,0.205l-0.303,0.204l-0.302,0.203l-0.301,0.202l-0.302,0.201l-0.302,0.2l-0.301,0.199l-0.301,0.198l-0.301,0.196l-0.3,0.196l-0.3,0.194l-0.3,0.193l-0.299,0.193l-0.597,0.38l-0.595,0.376l-0.593,0.371l-0.59,0.366l-0.051,0.031l-0.052,0.029l-0.052,0.029l-0.052,0.028l-0.052,0.027l-0.053,0.025l-0.053,0.025l-0.053,0.024l-0.054,0.023l-0.054,0.022l-0.054,0.02l-0.055,0.02l-0.055,0.019l-0.055,0.018l-0.055,0.017l-0.056,0.016l-0.055,0.015l-0.056,0.015l-0.056,0.013l-0.056,0.012l-0.057,0.011l-0.056,0.01l-0.057,0.009l-0.057,0.009l-0.056,0.007l-0.057,0.006l-0.057,0.006l-0.057,0.004l-0.058,0.003l-0.057,0.003l-0.057,0.001l-0.057,0.001l-0.057,-0.001l-0.057,-0.001l-0.057,-0.003l-0.058,-0.003l-0.057,-0.004l-0.057,-0.006l-0.057,-0.006l-0.056,-0.007l-0.057,-0.008l-0.057,-0.01l-0.056,-0.01l-0.057,-0.011l-0.056,-0.012l-0.056,-0.013l-0.056,-0.014l-0.055,-0.015l-0.056,-0.016l-0.055,-0.017l-0.055,-0.018l-0.055,-0.019l-0.055,-0.02l-0.054,-0.021l-0.054,-0.022l-0.054,-0.023l-0.053,-0.024l-0.053,-0.024l-0.053,-0.026l-0.052,-0.027l-0.053,-0.028l-0.051,-0.028l-0.052,-0.03l-0.051,-0.031l-0.59,-0.366l-0.593,-0.371l-0.595,-0.376l-0.597,-0.38l-0.599,-0.386l-0.3,-0.194l-0.3,-0.195l-0.301,-0.197l-0.301,-0.198l-0.301,-0.198l-0.302,-0.2l-0.302,-0.201l-0.301,-0.203l-0.302,-0.203l-0.303,-0.204l-0.302,-0.205l-0.302,-0.206l-0.302,-0.208l-0.303,-0.208l-0.302,-0.209l-0.302,-0.211l-0.302,-0.211l-0.302,-0.212l-0.302,-0.214l-0.301,-0.214l-0.302,-0.215l-0.301,-0.216l-0.301,-0.217l-0.3,-0.218l-0.3,-0.219l-0.3,-0.22l-0.3,-0.221l-0.299,-0.221l-0.298,-0.223l-0.298,-0.223l-0.298,-0.224l-0.297,-0.225l-0.296,-0.226l-0.296,-0.227l-0.295,-0.227l-0.294,-0.229l-0.294,-0.229l-0.293,-0.229l-0.292,-0.231l-0.292,-0.232l-0.29,-0.232l-0.29,-0.233l-0.289,-0.233l-0.288,-0.235l-0.287,-0.235l-0.286,-0.235l-0.285,-0.237l-0.284,-0.237l-0.283,-0.238l-0.282,-0.239l-0.281,-0.239l-0.279,-0.24l-0.279,-0.24l-0.277,-0.241l-0.276,-0.242l-0.275,-0.242l-0.273,-0.243l-0.272,-0.244l-0.271,-0.244l-0.269,-0.245l-0.268,-0.245l-0.266,-0.246l-0.265,-0.246l-0.264,-0.247l-0.262,-0.247l-0.26,-0.248l-0.258,-0.249l-0.258,-0.249l-0.255,-0.249l-0.254,-0.25l-0.252,-0.25l-0.25,-0.251l-0.248,-0.251l-0.247,-0.252l-0.244,-0.252l-0.243,-0.253l-0.241,-0.252l-0.239,-0.254l-0.237,-0.254l-0.235,-0.254l-0.234,-0.254l-0.23,-0.255l-0.229,-0.255l-0.227,-0.256l-0.225,-0.255l-0.222,-0.257l-0.22,-0.256l-0.218,-0.257l-0.216,-0.257l-0.214,-0.257l-0.211,-0.258l-0.208,-0.258l-0.207,-0.258l-0.204,-0.258l-0.201,-0.259l-0.199,-0.259l-0.197,-0.259l-0.194,-0.259l-0.191,-0.259l-0.189,-0.26l-0.186,-0.26l-0.184,-0.26l-0.18,-0.26l-0.179,-0.26l-0.175,-0.261l-0.172,-0.26l-0.17,-0.261l-0.167,-0.26l-0.164,-0.261l-0.161,-0.261l-0.158,-0.261l-0.156,-0.261l-0.152,-0.261l-0.149,-0.262l-0.146,-0.261l-0.144,-0.261l-0.14,-0.261l-0.136,-0.262l-0.201,-0.364l-0.198,-0.365l-0.194,-0.365l-0.191,-0.365l-0.189,-0.364l-0.184,-0.365l-0.182,-0.364l-0.179,-0.364l-0.175,-0.364l-0.173,-0.364l-0.169,-0.363l-0.166,-0.364l-0.163,-0.363l-0.159,-0.362l-0.157,-0.363l-0.153,-0.362l-0.15,-0.362l-0.147,-0.361l-0.144,-0.361l-0.141,-0.361l-0.137,-0.36l-0.135,-0.359l-0.131,-0.359l-0.128,-0.359l-0.125,-0.358l-0.122,-0.358l-0.118,-0.357l-0.116,-0.356l-0.112,-0.356l-0.109,-0.355l-0.106,-0.354l-0.102,-0.354l-0.1,-0.353l-0.097,-0.352l-0.093,-0.352l-0.09,-0.351l-0.087,-0.35l-0.084,-0.349l-0.08,-0.348l-0.078,-0.347l-0.074,-0.347l-0.071,-0.345l-0.068,-0.345l-0.065,-0.344l-0.062,-0.343l-0.058,-0.341l-0.055,-0.341l-0.053,-0.34l-0.049,-0.338l-0.045,-0.338l-0.043,-0.336l-0.02,-0.168l-0.02,-0.167l-0.018,-0.168l-0.018,-0.167l-0.017,-0.166l-0.016,-0.166l-0.016,-0.166l-0.014,-0.166l-0.014,-0.166l-0.013,-0.165l-0.012,-0.164l-0.012,-0.165l-0.01,-0.164l-0.01,-0.164l-0.009,-0.163l-0.009,-0.164l-0.007,-0.162l-0.007,-0.163l-0.006,-0.162l-0.005,-0.162l-0.004,-0.161l-0.004,-0.162l-0.003,-0.16l-0.002,-0.161l-0.001,-0.16l0,-0.16l0,-0.159l0.001,-0.159l0.002,-0.159l0.003,-0.158l0.004,-0.158l0.004,-0.158l0.005,-0.157l0.006,-0.157l0.007,-0.156l0.007,-0.156l0.009,-0.156l0.009,-0.155l0.01,-0.155l0.01,-0.155l0.012,-0.154l0.012,-0.154l0.013,-0.153l0.014,-0.153l0.014,-0.153l0.016,-0.152l0.016,-0.151l0.017,-0.152l0.018,-0.151l0.018,-0.15l0.02,-0.15l0.02,-0.15l0.021,-0.149l0.022,-0.149l0.022,-0.148l0.023,-0.148l0.025,-0.147l0.024,-0.147l0.026,-0.147l0.027,-0.146l0.027,-0.145l0.028,-0.146l0.029,-0.144l0.029,-0.145l0.031,-0.143l0.031,-0.144l0.032,-0.143l0.033,-0.142l0.034,-0.142l0.034,-0.141l0.035,-0.141l0.036,-0.141l0.037,-0.14l0.037,-0.139l0.039,-0.14l0.039,-0.138l0.04,-0.138l0.04,-0.138l0.042,-0.137l0.042,-0.136l0.043,-0.136l0.044,-0.136l0.045,-0.135l0.045,-0.134l0.046,-0.134l0.047,-0.134l0.048,-0.133l0.049,-0.132l0.049,-0.132l0.051,-0.131l0.05,-0.131l0.052,-0.131l0.053,-0.129l0.053,-0.13l0.054,-0.128l0.055,-0.128l0.056,-0.128l0.056,-0.127l0.058,-0.126l0.058,-0.126l0.059,-0.126l0.059,-0.124l0.061,-0.124l0.061,-0.124l0.062,-0.123l0.063,-0.123l0.064,-0.122l0.064,-0.121l0.065,-0.121l0.066,-0.12l0.067,-0.119l0.068,-0.119l0.068,-0.119l0.069,-0.117l0.07,-0.118l0.071,-0.116l0.071,-0.116l0.073,-0.115l0.073,-0.115l0.074,-0.114l0.074,-0.114l0.076,-0.113l0.076,-0.112l0.077,-0.112l0.078,-0.111l0.079,-0.11l0.079,-0.11l0.08,-0.109l0.081,-0.108l0.082,-0.108l0.083,-0.107l0.083,-0.107l0.084,-0.106l0.085,-0.105l0.086,-0.104l0.087,-0.104l0.087,-0.103l0.088,-0.103l0.089,-0.102l0.09,-0.101l0.09,-0.101l0.092,-0.1l0.092,-0.099l0.092,-0.098l0.094,-0.098l0.095,-0.097l0.095,-0.097l0.096,-0.096l0.097,-0.095l0.097,-0.094l0.099,-0.094l0.099,-0.093l0.1,-0.092l0.101,-0.091l0.147,-0.131l0.149,-0.129l0.151,-0.126l0.152,-0.123l0.154,-0.122l0.155,-0.118l0.157,-0.117l0.159,-0.113l0.16,-0.112l0.161,-0.109l0.163,-0.107l0.165,-0.104l0.165,-0.102l0.168,-0.1l0.168,-0.097l0.17,-0.095l0.172,-0.093l0.173,-0.09l0.174,-0.088l0.175,-0.085l0.177,-0.084l0.178,-0.081l0.179,-0.078l0.18,-0.077l0.182,-0.074l0.182,-0.072l0.184,-0.069l0.185,-0.068l0.187,-0.065l0.187,-0.062l0.188,-0.061l0.19,-0.058l0.191,-0.056l0.191,-0.054l0.193,-0.052l0.193,-0.05l0.195,-0.047l0.196,-0.045l0.196,-0.043l0.198,-0.041l0.198,-0.038l0.199,-0.037l0.2,-0.034l0.201,-0.032l0.202,-0.03l0.203,-0.028l0.203,-0.026l0.204,-0.023l0.205,-0.022l0.206,-0.019l0.207,-0.018l0.207,-0.015l0.207,-0.013l0.209,-0.011l0.209,-0.009l0.21,-0.007l0.21,-0.005l0.211,-0.003l0.212,-0.001l0.212,0.002Zm-0.406,1.999l-0.192,0.003l-0.191,0.004l-0.19,0.007l-0.189,0.008l-0.188,0.01l-0.188,0.012l-0.186,0.013l-0.186,0.016l-0.185,0.017l-0.184,0.02l-0.183,0.021l-0.182,0.023l-0.182,0.025l-0.18,0.027l-0.179,0.028l-0.178,0.031l-0.177,0.032l-0.176,0.034l-0.175,0.036l-0.174,0.038l-0.173,0.04l-0.172,0.042l-0.17,0.044l-0.17,0.045l-0.168,0.047l-0.167,0.05l-0.166,0.051l-0.165,0.053l-0.164,0.055l-0.162,0.056l-0.161,0.059l-0.16,0.06l-0.159,0.063l-0.157,0.064l-0.156,0.066l-0.155,0.068l-0.154,0.07l-0.152,0.072l-0.151,0.074l-0.149,0.075l-0.149,0.078l-0.147,0.079l-0.146,0.081l-0.144,0.084l-0.143,0.085l-0.142,0.087l-0.14,0.089l-0.139,0.091l-0.138,0.093l-0.136,0.095l-0.135,0.097l-0.133,0.099l-0.132,0.101l-0.131,0.103l-0.129,0.105l-0.128,0.107l-0.127,0.109l-0.128,0.114l-0.087,0.078l-0.088,0.082l-0.088,0.082l-0.087,0.083l-0.087,0.084l-0.085,0.084l-0.085,0.085l-0.085,0.085l-0.084,0.086l-0.082,0.087l-0.083,0.087l-0.081,0.088l-0.081,0.089l-0.081,0.089l-0.079,0.09l-0.079,0.09l-0.078,0.091l-0.078,0.092l-0.076,0.092l-0.076,0.093l-0.076,0.093l-0.075,0.094l-0.074,0.095l-0.073,0.095l-0.073,0.096l-0.072,0.096l-0.071,0.097l-0.071,0.098l-0.07,0.098l-0.069,0.099l-0.069,0.099l-0.068,0.1l-0.067,0.101l-0.067,0.101l-0.065,0.102l-0.066,0.102l-0.064,0.103l-0.064,0.104l-0.063,0.104l-0.063,0.105l-0.062,0.105l-0.061,0.106l-0.06,0.106l-0.06,0.107l-0.059,0.108l-0.059,0.108l-0.058,0.109l-0.057,0.11l-0.056,0.11l-0.056,0.11l-0.055,0.111l-0.054,0.112l-0.054,0.112l-0.053,0.113l-0.052,0.113l-0.052,0.114l-0.051,0.115l-0.05,0.115l-0.05,0.116l-0.049,0.116l-0.048,0.117l-0.048,0.117l-0.046,0.118l-0.047,0.119l-0.045,0.119l-0.045,0.119l-0.044,0.12l-0.043,0.121l-0.043,0.121l-0.042,0.122l-0.041,0.122l-0.041,0.123l-0.04,0.123l-0.039,0.124l-0.039,0.125l-0.038,0.125l-0.037,0.125l-0.036,0.126l-0.036,0.127l-0.035,0.127l-0.034,0.128l-0.034,0.128l-0.033,0.129l-0.032,0.129l-0.032,0.13l-0.03,0.13l-0.031,0.13l-0.029,0.132l-0.029,0.131l-0.028,0.133l-0.027,0.132l-0.026,0.134l-0.026,0.133l-0.025,0.135l-0.025,0.134l-0.024,0.136l-0.023,0.135l-0.022,0.136l-0.021,0.137l-0.021,0.137l-0.02,0.138l-0.02,0.138l-0.018,0.139l-0.018,0.139l-0.018,0.139l-0.016,0.14l-0.016,0.14l-0.015,0.141l-0.014,0.142l-0.014,0.142l-0.013,0.142l-0.012,0.142l-0.011,0.144l-0.011,0.143l-0.01,0.144l-0.009,0.145l-0.008,0.145l-0.008,0.145l-0.007,0.146l-0.007,0.146l-0.005,0.146l-0.005,0.147l-0.004,0.148l-0.003,0.148l-0.003,0.148l-0.002,0.149l-0.001,0.149l0,0.149l0,0.15l0.001,0.15l0.002,0.151l0.003,0.151l0.003,0.152l0.004,0.151l0.005,0.153l0.006,0.152l0.006,0.153l0.007,0.154l0.008,0.153l0.008,0.154l0.01,0.155l0.01,0.155l0.011,0.155l0.011,0.155l0.012,0.156l0.014,0.157l0.013,0.156l0.015,0.157l0.015,0.157l0.016,0.158l0.017,0.158l0.018,0.158l0.018,0.159l0.019,0.157l0.041,0.321l0.043,0.32l0.047,0.321l0.049,0.323l0.053,0.324l0.055,0.325l0.059,0.326l0.062,0.327l0.064,0.328l0.068,0.33l0.071,0.33l0.074,0.332l0.077,0.332l0.08,0.334l0.083,0.334l0.086,0.336l0.09,0.336l0.092,0.337l0.095,0.339l0.099,0.338l0.101,0.34l0.105,0.341l0.108,0.341l0.11,0.342l0.114,0.343l0.117,0.343l0.12,0.344l0.123,0.345l0.126,0.346l0.13,0.346l0.132,0.346l0.135,0.347l0.139,0.348l0.142,0.348l0.144,0.349l0.148,0.349l0.151,0.349l0.154,0.35l0.157,0.351l0.16,0.35l0.164,0.351l0.166,0.352l0.17,0.351l0.172,0.352l0.176,0.352l0.179,0.353l0.182,0.352l0.185,0.353l0.188,0.353l0.191,0.353l0.208,0.377l0.142,0.271l0.131,0.245l0.134,0.245l0.138,0.246l0.14,0.246l0.144,0.246l0.146,0.246l0.15,0.247l0.152,0.247l0.156,0.247l0.158,0.247l0.161,0.248l0.164,0.248l0.167,0.248l0.17,0.248l0.172,0.248l0.176,0.248l0.178,0.248l0.18,0.249l0.184,0.248l0.186,0.249l0.188,0.248l0.191,0.249l0.194,0.249l0.196,0.248l0.199,0.249l0.201,0.248l0.204,0.249l0.206,0.248l0.208,0.248l0.211,0.248l0.212,0.248l0.216,0.248l0.217,0.248l0.22,0.247l0.222,0.248l0.224,0.247l0.226,0.247l0.228,0.247l0.231,0.246l0.232,0.246l0.234,0.246l0.237,0.246l0.238,0.246l0.24,0.245l0.242,0.245l0.244,0.244l0.246,0.244l0.248,0.244l0.249,0.244l0.251,0.243l0.253,0.242l0.254,0.243l0.256,0.242l0.258,0.241l0.259,0.241l0.26,0.241l0.263,0.24l0.263,0.239l0.266,0.24l0.266,0.238l0.268,0.238l0.27,0.238l0.27,0.237l0.272,0.237l0.273,0.236l0.275,0.235l0.275,0.235l0.277,0.234l0.278,0.234l0.279,0.233l0.28,0.232l0.282,0.232l0.282,0.231l0.283,0.231l0.284,0.229l0.285,0.23l0.286,0.228l0.287,0.228l0.288,0.227l0.288,0.226l0.289,0.226l0.29,0.224l0.291,0.225l0.291,0.223l0.292,0.222l0.293,0.222l0.293,0.221l0.294,0.22l0.294,0.219l0.295,0.219l0.295,0.218l0.296,0.216l0.296,0.216l0.297,0.215l0.296,0.214l0.298,0.214l0.297,0.212l0.298,0.211l0.297,0.211l0.298,0.21l0.299,0.208l0.298,0.208l0.298,0.206l0.299,0.206l0.298,0.205l0.299,0.204l0.298,0.202l0.299,0.202l0.298,0.201l0.298,0.199l0.298,0.199l0.298,0.197l0.298,0.197l0.297,0.195l0.297,0.195l0.297,0.193l0.296,0.191l0.592,0.381l0.591,0.377l0.588,0.371l0.586,0.367l0.574,0.356l0.024,0.014l0.021,0.013l0.021,0.011l0.022,0.012l0.021,0.011l0.022,0.01l0.022,0.01l0.021,0.01l0.022,0.009l0.022,0.009l0.022,0.009l0.023,0.008l0.022,0.008l0.022,0.007l0.023,0.007l0.022,0.006l0.023,0.006l0.023,0.006l0.022,0.006l0.023,0.004l0.023,0.005l0.023,0.004l0.023,0.004l0.023,0.003l0.023,0.003l0.023,0.003l0.023,0.002l0.023,0.002l0.023,0.001l0.023,0.001l0.024,0.001l0.023,0l0.023,0l0.023,-0.001l0.023,-0.001l0.023,-0.001l0.024,-0.002l0.023,-0.002l0.023,-0.003l0.023,-0.003l0.023,-0.003l0.023,-0.004l0.023,-0.004l0.023,-0.005l0.023,-0.005l0.022,-0.005l0.023,-0.006l0.022,-0.006l0.023,-0.006l0.022,-0.007l0.023,-0.007l0.022,-0.008l0.022,-0.008l0.022,-0.009l0.022,-0.009l0.022,-0.009l0.022,-0.01l0.022,-0.01l0.021,-0.01l0.022,-0.011l0.021,-0.012l0.022,-0.012l0.021,-0.012l0.023,-0.014l0.575,-0.357l0.586,-0.366l0.588,-0.372l0.591,-0.376l0.295,-0.19l0.296,-0.191l0.297,-0.192l0.297,-0.193l0.297,-0.194l0.297,-0.195l0.298,-0.197l0.298,-0.197l0.298,-0.199l0.298,-0.199l0.298,-0.201l0.299,-0.202l0.298,-0.203l0.299,-0.203l0.298,-0.205l0.299,-0.206l0.298,-0.206l0.298,-0.208l0.299,-0.209l0.298,-0.209l0.298,-0.211l0.297,-0.211l0.298,-0.213l0.297,-0.213l0.296,-0.214l0.297,-0.215l0.296,-0.216l0.296,-0.217l0.295,-0.217l0.295,-0.219l0.294,-0.219l0.294,-0.22l0.293,-0.221l0.293,-0.222l0.292,-0.222l0.291,-0.224l0.291,-0.224l0.29,-0.224l0.289,-0.226l0.288,-0.226l0.288,-0.227l0.287,-0.228l0.286,-0.229l0.285,-0.229l0.284,-0.229l0.283,-0.231l0.282,-0.231l0.282,-0.232l0.28,-0.232l0.279,-0.233l0.278,-0.234l0.277,-0.234l0.275,-0.235l0.275,-0.235l0.273,-0.236l0.272,-0.237l0.271,-0.237l0.269,-0.238l0.268,-0.238l0.266,-0.238l0.266,-0.24l0.263,-0.239l0.263,-0.24l0.26,-0.241l0.26,-0.241l0.257,-0.241l0.256,-0.242l0.255,-0.243l0.252,-0.242l0.251,-0.243l0.25,-0.244l0.247,-0.244l0.246,-0.244l0.244,-0.244l0.242,-0.245l0.24,-0.245l0.238,-0.246l0.237,-0.246l0.234,-0.246l0.232,-0.246l0.231,-0.246l0.228,-0.247l0.226,-0.247l0.224,-0.247l0.222,-0.248l0.22,-0.247l0.217,-0.248l0.216,-0.248l0.213,-0.248l0.21,-0.248l0.209,-0.248l0.206,-0.248l0.203,-0.249l0.201,-0.248l0.199,-0.249l0.196,-0.248l0.194,-0.249l0.191,-0.249l0.188,-0.248l0.186,-0.249l0.184,-0.248l0.18,-0.249l0.178,-0.248l0.176,-0.248l0.172,-0.248l0.17,-0.248l0.167,-0.248l0.164,-0.248l0.161,-0.248l0.158,-0.247l0.156,-0.247l0.152,-0.247l0.15,-0.247l0.146,-0.246l0.144,-0.246l0.14,-0.246l0.138,-0.246l0.134,-0.245l0.131,-0.245l0.142,-0.271l0.208,-0.377l0.191,-0.353l0.188,-0.353l0.185,-0.353l0.182,-0.352l0.179,-0.353l0.176,-0.352l0.172,-0.352l0.17,-0.351l0.166,-0.352l0.164,-0.351l0.16,-0.35l0.157,-0.351l0.154,-0.35l0.151,-0.349l0.148,-0.349l0.145,-0.349l0.141,-0.348l0.139,-0.348l0.135,-0.347l0.133,-0.346l0.129,-0.346l0.126,-0.346l0.123,-0.345l0.12,-0.344l0.117,-0.343l0.114,-0.343l0.111,-0.342l0.107,-0.341l0.105,-0.341l0.102,-0.34l0.098,-0.338l0.095,-0.339l0.093,-0.337l0.089,-0.336l0.086,-0.336l0.083,-0.334l0.08,-0.334l0.077,-0.332l0.074,-0.332l0.071,-0.33l0.068,-0.33l0.065,-0.328l0.061,-0.327l0.059,-0.326l0.056,-0.325l0.052,-0.324l0.05,-0.323l0.046,-0.321l0.044,-0.32l0.04,-0.321l0.019,-0.157l0.019,-0.159l0.017,-0.158l0.017,-0.158l0.016,-0.158l0.015,-0.157l0.015,-0.157l0.014,-0.156l0.013,-0.157l0.012,-0.156l0.012,-0.155l0.011,-0.155l0.01,-0.155l0.009,-0.155l0.009,-0.154l0.007,-0.153l0.007,-0.154l0.007,-0.153l0.005,-0.152l0.005,-0.153l0.004,-0.151l0.004,-0.152l0.002,-0.151l0.002,-0.151l0.001,-0.15l0.001,-0.15l-0.001,-0.149l-0.001,-0.149l-0.002,-0.149l-0.002,-0.148l-0.004,-0.148l-0.004,-0.148l-0.005,-0.147l-0.005,-0.146l-0.006,-0.146l-0.007,-0.146l-0.008,-0.145l-0.009,-0.145l-0.009,-0.145l-0.01,-0.144l-0.01,-0.143l-0.012,-0.144l-0.012,-0.142l-0.013,-0.143l-0.013,-0.141l-0.015,-0.142l-0.015,-0.141l-0.016,-0.14l-0.016,-0.14l-0.017,-0.139l-0.018,-0.139l-0.019,-0.139l-0.019,-0.138l-0.02,-0.138l-0.021,-0.137l-0.022,-0.137l-0.022,-0.136l-0.023,-0.135l-0.024,-0.136l-0.024,-0.134l-0.025,-0.135l-0.026,-0.133l-0.027,-0.134l-0.027,-0.132l-0.028,-0.133l-0.029,-0.131l-0.029,-0.132l-0.03,-0.13l-0.031,-0.13l-0.032,-0.13l-0.032,-0.129l-0.033,-0.129l-0.033,-0.128l-0.035,-0.128l-0.035,-0.127l-0.035,-0.127l-0.037,-0.126l-0.037,-0.125l-0.038,-0.125l-0.038,-0.125l-0.04,-0.124l-0.04,-0.123l-0.04,-0.123l-0.042,-0.122l-0.042,-0.122l-0.042,-0.121l-0.044,-0.121l-0.044,-0.12l-0.045,-0.119l-0.045,-0.119l-0.046,-0.119l-0.047,-0.118l-0.048,-0.117l-0.048,-0.117l-0.049,-0.116l-0.049,-0.116l-0.051,-0.115l-0.051,-0.114l-0.051,-0.115l-0.053,-0.113l-0.053,-0.113l-0.053,-0.112l-0.055,-0.112l-0.055,-0.111l-0.056,-0.11l-0.056,-0.11l-0.057,-0.11l-0.058,-0.109l-0.058,-0.108l-0.059,-0.108l-0.06,-0.107l-0.061,-0.106l-0.061,-0.106l-0.062,-0.105l-0.062,-0.105l-0.064,-0.104l-0.063,-0.104l-0.065,-0.103l-0.065,-0.102l-0.066,-0.102l-0.067,-0.101l-0.067,-0.101l-0.068,-0.1l-0.069,-0.099l-0.069,-0.099l-0.07,-0.098l-0.071,-0.098l-0.071,-0.097l-0.072,-0.096l-0.073,-0.096l-0.073,-0.095l-0.074,-0.095l-0.075,-0.094l-0.075,-0.093l-0.076,-0.093l-0.077,-0.092l-0.078,-0.092l-0.078,-0.091l-0.079,-0.09l-0.079,-0.09l-0.081,-0.089l-0.08,-0.089l-0.082,-0.088l-0.082,-0.087l-0.083,-0.087l-0.084,-0.086l-0.084,-0.085l-0.085,-0.085l-0.086,-0.084l-0.087,-0.084l-0.087,-0.083l-0.088,-0.082l-0.088,-0.082l-0.087,-0.079l-0.128,-0.113l-0.126,-0.109l-0.128,-0.107l-0.13,-0.105l-0.131,-0.103l-0.132,-0.101l-0.133,-0.099l-0.135,-0.097l-0.136,-0.095l-0.138,-0.093l-0.139,-0.091l-0.14,-0.089l-0.142,-0.087l-0.143,-0.085l-0.144,-0.084l-0.146,-0.081l-0.147,-0.079l-0.148,-0.078l-0.15,-0.075l-0.151,-0.074l-0.152,-0.072l-0.154,-0.07l-0.155,-0.068l-0.156,-0.066l-0.157,-0.064l-0.159,-0.063l-0.16,-0.06l-0.161,-0.059l-0.162,-0.056l-0.164,-0.055l-0.165,-0.053l-0.166,-0.051l-0.167,-0.05l-0.168,-0.047l-0.17,-0.045l-0.17,-0.044l-0.172,-0.042l-0.173,-0.04l-0.174,-0.038l-0.175,-0.036l-0.176,-0.034l-0.177,-0.032l-0.178,-0.031l-0.179,-0.028l-0.18,-0.027l-0.182,-0.025l-0.182,-0.023l-0.183,-0.021l-0.184,-0.02l-0.185,-0.017l-0.185,-0.016l-0.187,-0.013l-0.188,-0.012l-0.188,-0.01l-0.189,-0.008l-0.19,-0.007l-0.191,-0.004l-0.191,-0.003l-0.193,-0.001l-0.193,0.002l-0.193,0.002l-0.195,0.005l-0.195,0.007l-0.195,0.008l-0.197,0.011l-0.197,0.012l-0.197,0.014l-0.198,0.015l-0.199,0.018l-0.199,0.019l-0.199,0.022l-0.2,0.023l-0.201,0.024l-0.201,0.027l-0.201,0.028l-0.202,0.031l-0.202,0.031l-0.202,0.034l-0.203,0.036l-0.203,0.037l-0.203,0.039l-0.115,0.023l0.01,0.003l0.145,0.039l0.144,0.041l0.145,0.041l0.143,0.043l0.144,0.044l0.143,0.044l0.142,0.046l0.142,0.047l0.141,0.048l0.141,0.049l0.141,0.05l0.14,0.052l0.14,0.052l0.139,0.053l0.138,0.054l0.138,0.056l0.138,0.056l0.136,0.058l0.137,0.059l0.135,0.059l0.136,0.061l0.134,0.062l0.134,0.063l0.133,0.064l0.133,0.065l0.132,0.066l0.132,0.067l0.131,0.068l0.13,0.069l0.129,0.07l0.129,0.072l0.128,0.072l0.128,0.074l0.126,0.074l0.126,0.076l0.126,0.077l0.124,0.077l0.124,0.079l0.123,0.08l0.122,0.081l0.122,0.082l0.12,0.083l0.12,0.084l0.119,0.086l0.118,0.086l0.118,0.087l0.116,0.089l0.116,0.089l0.115,0.091l0.114,0.091l0.113,0.093l0.112,0.094l0.111,0.095l0.11,0.095l0.109,0.097l0.108,0.098l0.085,0.078l0.084,0.079l0.083,0.079l0.083,0.08l0.082,0.08l0.081,0.081l0.08,0.081l0.08,0.082l0.079,0.083l0.079,0.083l0.078,0.084l0.077,0.084l0.076,0.085l0.076,0.085l0.075,0.086l0.075,0.087l0.074,0.087l0.073,0.088l0.072,0.088l0.074,0.091l0.139,0.176l0.139,0.181l0.136,0.184l0.133,0.185l0.131,0.187l0.127,0.189l0.125,0.191l0.123,0.193l0.119,0.195l0.117,0.196l0.114,0.199l0.111,0.2l0.109,0.202l0.105,0.204l0.103,0.205l0.101,0.208l0.097,0.208l0.095,0.211l0.092,0.212l0.09,0.213l0.086,0.215l0.085,0.217l0.081,0.218l0.079,0.219l0.075,0.221l0.074,0.223l0.07,0.224l0.068,0.225l0.066,0.226l0.062,0.228l0.06,0.229l0.058,0.23l0.055,0.232l0.052,0.233l0.049,0.234l0.047,0.235l0.045,0.237l0.042,0.238l0.039,0.238l0.036,0.24l0.034,0.241l0.032,0.242l0.029,0.244l0.026,0.244l0.024,0.245l0.021,0.246l0.019,0.248l0.016,0.248l0.014,0.249l0.011,0.251l0.009,0.251l0.006,0.252l0.004,0.253l0.001,0.254l-0.001,0.254l-0.004,0.256l-0.006,0.256l-0.009,0.258l-0.011,0.258l-0.013,0.259l-0.016,0.259l-0.019,0.261l-0.021,0.261l-0.023,0.262l-0.026,0.262l-0.028,0.264l-0.031,0.264l-0.033,0.264l-0.036,0.266l-0.038,0.266l-0.04,0.266l-0.043,0.268l-0.045,0.268l-0.048,0.268l-0.05,0.269l-0.052,0.27l-0.055,0.27l-0.057,0.271l-0.06,0.271l-0.062,0.272l-0.064,0.272l-0.067,0.272l-0.069,0.274l-0.072,0.273l-0.074,0.274l-0.076,0.275l-0.079,0.274l-0.081,0.276l-0.083,0.275l-0.086,0.276l-0.088,0.276l-0.091,0.277l-0.093,0.277l-0.095,0.277l-0.098,0.278l-0.1,0.277l-0.102,0.279l-0.105,0.278l-0.107,0.278l-0.11,0.279l-0.112,0.279l-0.114,0.279l-0.117,0.279l-0.119,0.28l-0.121,0.279l-0.124,0.28l-0.126,0.279l-0.128,0.28l-0.131,0.28l-0.133,0.28l-0.135,0.28l-0.138,0.28l-0.14,0.28l-0.143,0.28l-0.145,0.28l-0.147,0.28l-0.149,0.28l-0.139,0.256l-0.094,0.183l-0.111,0.208l-0.112,0.208l-0.115,0.208l-0.116,0.207l-0.12,0.207l-0.121,0.207l-0.123,0.206l-0.125,0.206l-0.128,0.206l-0.129,0.205l-0.132,0.205l-0.133,0.204l-0.136,0.204l-0.137,0.204l-0.139,0.203l-0.142,0.203l-0.143,0.202l-0.145,0.203l-0.147,0.201l-0.148,0.202l-0.15,0.201l-0.153,0.2l-0.153,0.201l-0.156,0.2l-0.157,0.199l-0.159,0.199l-0.161,0.199l-0.162,0.198l-0.164,0.198l-0.165,0.198l-0.167,0.197l-0.168,0.197l-0.17,0.196l-0.172,0.196l-0.173,0.195l-0.174,0.195l-0.176,0.195l-0.177,0.194l-0.179,0.194l-0.18,0.194l-0.181,0.193l-0.183,0.192l-0.184,0.192l-0.185,0.192l-0.186,0.191l-0.188,0.191l-0.189,0.19l-0.19,0.19l-0.191,0.19l-0.193,0.189l-0.193,0.188l-0.195,0.188l-0.196,0.188l-0.196,0.187l-0.198,0.186l-0.199,0.186l-0.2,0.186l-0.201,0.185l-0.202,0.185l-0.202,0.184l-0.204,0.183l-0.204,0.183l-0.206,0.183l-0.206,0.182l-0.207,0.181l-0.208,0.181l-0.209,0.18l-0.209,0.18l-0.211,0.179l-0.211,0.179l-0.211,0.178l-0.213,0.177l-0.213,0.177l-0.213,0.177l-0.214,0.175l-0.215,0.176l-0.216,0.174l-0.216,0.174l-0.216,0.173l-0.217,0.173l-0.218,0.172l-0.218,0.171l-0.218,0.171l-0.219,0.17l-0.221,0.171l-0.438,0.336l-0.441,0.334l-0.443,0.332l-0.443,0.328l-0.444,0.326l-0.445,0.323l-0.446,0.32l-0.446,0.318l-0.446,0.314l-0.446,0.311l-0.446,0.308l-0.445,0.304l-0.445,0.302l-0.445,0.298l-0.443,0.295l-0.443,0.291l-0.441,0.288l-0.44,0.285l-0.439,0.28l-0.437,0.278l-0.444,0.279l-0.064,0.039l-0.068,0.04l-0.068,0.038l-0.076,0.041l-0.131,0.066l-0.141,0.065l-0.142,0.06l-0.144,0.055l-0.146,0.05l-0.146,0.044l-0.148,0.039l-0.149,0.034l-0.15,0.029l-0.151,0.024l-0.151,0.018l-0.151,0.013l-0.152,0.008l-0.152,0.003l-0.152,-0.003l-0.151,-0.008l-0.152,-0.013l-0.151,-0.018l-0.15,-0.024l-0.15,-0.029l-0.149,-0.034l-0.148,-0.039l-0.147,-0.044l-0.146,-0.05l-0.144,-0.055l-0.142,-0.059l-0.141,-0.066l-0.131,-0.066l-0.076,-0.041l-0.068,-0.038l-0.068,-0.04l-0.064,-0.039l-0.444,-0.279l-0.437,-0.277l-0.439,-0.281l-0.44,-0.285l-0.441,-0.288l-0.443,-0.291l-0.443,-0.295l-0.445,-0.298l-0.445,-0.302l-0.445,-0.304l-0.446,-0.308l-0.446,-0.311l-0.446,-0.314l-0.446,-0.317l-0.446,-0.321l-0.445,-0.323l-0.444,-0.326l-0.443,-0.328l-0.443,-0.332l-0.441,-0.334l-0.438,-0.336l-0.221,-0.171l-0.219,-0.17l-0.218,-0.17l-0.218,-0.172l-0.218,-0.172l-0.217,-0.173l-0.216,-0.173l-0.216,-0.174l-0.216,-0.174l-0.214,-0.176l-0.215,-0.175l-0.213,-0.177l-0.213,-0.176l-0.213,-0.178l-0.211,-0.178l-0.211,-0.179l-0.21,-0.179l-0.21,-0.18l-0.209,-0.18l-0.208,-0.181l-0.207,-0.181l-0.206,-0.182l-0.205,-0.183l-0.205,-0.183l-0.204,-0.183l-0.202,-0.184l-0.202,-0.185l-0.201,-0.185l-0.2,-0.186l-0.199,-0.186l-0.197,-0.186l-0.197,-0.187l-0.196,-0.188l-0.195,-0.188l-0.193,-0.188l-0.193,-0.189l-0.191,-0.19l-0.19,-0.19l-0.189,-0.19l-0.188,-0.191l-0.186,-0.191l-0.185,-0.192l-0.184,-0.192l-0.183,-0.192l-0.181,-0.193l-0.18,-0.194l-0.179,-0.194l-0.177,-0.194l-0.176,-0.195l-0.174,-0.195l-0.173,-0.195l-0.171,-0.196l-0.17,-0.196l-0.169,-0.197l-0.167,-0.197l-0.165,-0.198l-0.164,-0.198l-0.162,-0.198l-0.161,-0.199l-0.159,-0.199l-0.157,-0.199l-0.155,-0.2l-0.154,-0.201l-0.152,-0.2l-0.151,-0.201l-0.148,-0.202l-0.147,-0.201l-0.145,-0.203l-0.143,-0.202l-0.141,-0.203l-0.14,-0.203l-0.137,-0.204l-0.136,-0.204l-0.133,-0.204l-0.132,-0.205l-0.129,-0.205l-0.127,-0.206l-0.126,-0.206l-0.123,-0.206l-0.121,-0.207l-0.119,-0.207l-0.117,-0.207l-0.115,-0.208l-0.112,-0.208l-0.11,-0.208l-0.095,-0.183l-0.139,-0.256l-0.149,-0.28l-0.147,-0.28l-0.145,-0.28l-0.143,-0.28l-0.14,-0.28l-0.138,-0.28l-0.135,-0.28l-0.133,-0.28l-0.131,-0.28l-0.128,-0.28l-0.126,-0.279l-0.124,-0.28l-0.121,-0.279l-0.119,-0.28l-0.117,-0.279l-0.114,-0.279l-0.112,-0.279l-0.109,-0.279l-0.107,-0.278l-0.105,-0.279l-0.103,-0.278l-0.1,-0.277l-0.097,-0.278l-0.096,-0.277l-0.093,-0.277l-0.09,-0.277l-0.089,-0.276l-0.085,-0.276l-0.084,-0.275l-0.081,-0.276l-0.079,-0.274l-0.076,-0.275l-0.074,-0.274l-0.072,-0.273l-0.069,-0.274l-0.067,-0.272l-0.064,-0.272l-0.062,-0.272l-0.06,-0.271l-0.057,-0.271l-0.055,-0.27l-0.052,-0.27l-0.05,-0.269l-0.048,-0.268l-0.045,-0.268l-0.043,-0.268l-0.04,-0.266l-0.038,-0.266l-0.036,-0.266l-0.033,-0.264l-0.03,-0.264l-0.029,-0.264l-0.026,-0.262l-0.023,-0.262l-0.021,-0.261l-0.018,-0.261l-0.016,-0.259l-0.014,-0.259l-0.011,-0.258l-0.009,-0.258l-0.006,-0.256l-0.004,-0.256l-0.001,-0.254l0.001,-0.254l0.004,-0.253l0.006,-0.252l0.009,-0.251l0.011,-0.251l0.014,-0.249l0.016,-0.248l0.019,-0.248l0.021,-0.246l0.024,-0.245l0.027,-0.244l0.028,-0.244l0.032,-0.242l0.034,-0.241l0.037,-0.24l0.039,-0.238l0.042,-0.238l0.044,-0.237l0.047,-0.235l0.049,-0.234l0.053,-0.233l0.054,-0.231l0.058,-0.231l0.06,-0.229l0.063,-0.228l0.065,-0.226l0.068,-0.225l0.071,-0.224l0.073,-0.223l0.076,-0.221l0.078,-0.219l0.082,-0.218l0.084,-0.217l0.087,-0.215l0.089,-0.213l0.092,-0.212l0.095,-0.211l0.098,-0.208l0.1,-0.207l0.103,-0.206l0.106,-0.204l0.108,-0.202l0.111,-0.2l0.114,-0.198l0.117,-0.197l0.12,-0.195l0.122,-0.193l0.125,-0.191l0.128,-0.189l0.13,-0.187l0.133,-0.185l0.136,-0.184l0.139,-0.181l0.139,-0.176l0.074,-0.091l0.073,-0.088l0.073,-0.088l0.073,-0.087l0.075,-0.087l0.075,-0.086l0.076,-0.085l0.076,-0.085l0.077,-0.084l0.078,-0.084l0.079,-0.083l0.079,-0.083l0.08,-0.082l0.08,-0.081l0.082,-0.081l0.081,-0.08l0.083,-0.08l0.083,-0.079l0.084,-0.079l0.085,-0.078l0.108,-0.098l0.109,-0.097l0.11,-0.095l0.111,-0.095l0.113,-0.094l0.113,-0.093l0.113,-0.091l0.115,-0.091l0.116,-0.089l0.116,-0.089l0.118,-0.087l0.118,-0.086l0.119,-0.086l0.12,-0.084l0.12,-0.083l0.122,-0.082l0.122,-0.081l0.123,-0.08l0.124,-0.079l0.124,-0.077l0.126,-0.077l0.126,-0.076l0.126,-0.074l0.128,-0.074l0.128,-0.072l0.129,-0.071l0.129,-0.071l0.13,-0.069l0.131,-0.068l0.132,-0.067l0.132,-0.066l0.133,-0.065l0.133,-0.064l0.134,-0.063l0.135,-0.062l0.135,-0.061l0.135,-0.059l0.137,-0.059l0.137,-0.058l0.137,-0.056l0.138,-0.055l0.138,-0.055l0.139,-0.053l0.14,-0.052l0.14,-0.052l0.141,-0.05l0.141,-0.049l0.141,-0.048l0.142,-0.047l0.143,-0.046l0.142,-0.044l0.144,-0.044l0.144,-0.043l0.144,-0.041l0.144,-0.041l0.145,-0.039l0.01,-0.003l-0.115,-0.023l-0.203,-0.039l-0.203,-0.037l-0.203,-0.036l-0.202,-0.034l-0.202,-0.031l-0.202,-0.031l-0.201,-0.028l-0.201,-0.027l-0.201,-0.024l-0.2,-0.023l-0.199,-0.022l-0.199,-0.019l-0.199,-0.018l-0.198,-0.015l-0.197,-0.014l-0.197,-0.012l-0.197,-0.011l-0.195,-0.008l-0.195,-0.007l-0.195,-0.005l-0.193,-0.002l-0.193,-0.002l-0.192,0.001Z" style="fill:#b20068;"/><defs><linearGradient id="_Linear1" x1="0" y1="0" x2="1" y2="0" gradientUnits="userSpaceOnUse" gradientTransform="matrix(5.6332e-15,91.9972,-91.9972,5.6332e-15,55.4412,5.24517)"><stop offset="0" style="stop-color:#fd0093;stop-opacity:1"/><stop offset="1" style="stop-color:#9c0058;stop-opacity:1"/></linearGradient></defs></svg>