<?xml version="1.0" encoding="UTF-8" standalone="no"?><!DOCTYPE svg PUBLIC "-//W3C//DTD SVG 1.1//EN" "http://www.w3.org/Graphics/SVG/1.1/DTD/svg11.dtd"><svg width="100%" height="100%" viewBox="0 0 153 85" version="1.1" xmlns="http://www.w3.org/2000/svg" xmlns:xlink="http://www.w3.org/1999/xlink" xml:space="preserve" xmlns:serif="http://www.serif.com/" style="fill-rule:evenodd;clip-rule:evenodd;stroke-linejoin:round;stroke-miterlimit:1.41421;"><rect id="Artboard1" x="0" y="0" width="153" height="85" style="fill:none;"/><path d="M75.842,71.642c-3.316,-0.492 -6.13,-1.697 -8.517,-3.428l-8.529,8.529l3.475,3.475l-18.345,4.193l4.193,-18.345l3.475,3.475l9.085,-9.085c-0.819,-1.465 -1.535,-3.022 -2.162,-4.639c-2.999,0.838 -6.738,2.472 -11.15,4.693c-11.966,6.024 -16.487,-0.191 -16.487,-0.191c0,0 2.13,0.31 11.387,-3.852c5.259,-2.365 10.092,-5.097 14.632,-5.635c-0.224,-0.834 -0.43,-1.675 -0.619,-2.52c-3.119,0.607 -6.673,1.473 -10.627,2.546c-17.564,4.77 -21.343,-3.281 -21.343,-3.281c0,0 2.662,0.755 16.081,-2.356c5.192,-1.204 10.185,-2.642 14.761,-3.368c-0.087,-0.665 -0.166,-1.326 -0.236,-1.982c-4.221,-0.288 -9.811,0.059 -16.574,0.821c-18.088,2.036 -20.705,-7.022 -20.705,-7.022c0,0 2.534,1.238 16.279,0.239c7.49,-0.545 14.653,-1.641 20.517,-0.627c-0.05,-1.204 -0.077,-2.364 -0.088,-3.465c-4.872,-0.926 -11.769,-1.068 -20.353,-0.751c-20.596,0.762 -22.788,-9.746 -22.788,-9.746c0,0 2.757,1.622 18.361,1.666c9.266,0.027 18.149,-0.725 24.937,1.55c0.056,-1.018 0.115,-1.829 0.161,-2.387c-4.304,-3.791 -14.695,-5.43 -29.684,-6.189c-23.506,-1.191 -24.979,-13.96 -24.979,-13.96c0,0 2.979,2.218 20.727,3.862c16.174,1.498 32.031,1.248 38.134,13.97l17.139,-10.169l17.139,10.169c6.103,-12.722 21.96,-12.472 38.134,-13.97c17.748,-1.644 20.727,-3.862 20.727,-3.862c0,0 -1.473,12.769 -24.979,13.96c-14.989,0.759 -25.38,2.398 -29.684,6.189c0.046,0.558 0.105,1.369 0.161,2.387c6.788,-2.275 15.671,-1.523 24.937,-1.55c15.604,-0.044 18.361,-1.666 18.361,-1.666c0,0 -2.192,10.508 -22.788,9.746c-8.584,-0.317 -15.481,-0.175 -20.353,0.751c-0.011,1.101 -0.038,2.261 -0.088,3.465c5.864,-1.014 13.027,0.082 20.517,0.627c13.745,0.999 16.279,-0.239 16.279,-0.239c0,0 -2.617,9.058 -20.705,7.022c-6.763,-0.762 -12.353,-1.109 -16.574,-0.821c-0.07,0.656 -0.149,1.317 -0.236,1.982c4.576,0.726 9.569,2.164 14.761,3.368c13.419,3.111 16.081,2.356 16.081,2.356c0,0 -3.779,8.051 -21.343,3.281c-3.954,-1.073 -7.508,-1.939 -10.627,-2.546c-0.189,0.845 -0.395,1.686 -0.619,2.52c4.54,0.538 9.373,3.27 14.632,5.635c9.257,4.162 11.387,3.852 11.387,3.852c0,0 -4.521,6.215 -16.487,0.191c-4.412,-2.221 -8.151,-3.855 -11.15,-4.693c-0.627,1.617 -1.343,3.174 -2.162,4.639l9.085,9.085l3.475,-3.475l4.193,18.345l-18.345,-4.193l3.475,-3.475l-8.529,-8.529c-2.425,1.758 -5.291,2.974 -8.675,3.451l-0.158,-0.023Z"/></svg>