<?xml version="1.0" encoding="UTF-8" standalone="no"?><!DOCTYPE svg PUBLIC "-//W3C//DTD SVG 1.1//EN" "http://www.w3.org/Graphics/SVG/1.1/DTD/svg11.dtd"><svg width="100%" height="100%" viewBox="0 0 76 121" version="1.1" xmlns="http://www.w3.org/2000/svg" xmlns:xlink="http://www.w3.org/1999/xlink" xml:space="preserve" xmlns:serif="http://www.serif.com/" style="fill-rule:evenodd;clip-rule:evenodd;stroke-linejoin:round;stroke-miterlimit:1.41421;"><rect id="Artboard1" x="0" y="0" width="75.531" height="120.849" style="fill:none;"/><path id="recruit" d="M61.827,45.576c0,-3.521 -2.858,-6.38 -6.38,-6.38c-11.637,-0.876 -23.405,-0.899 -35.314,0c-3.521,0 -6.38,2.859 -6.38,6.38l0,66.924c0,3.522 2.859,6.381 6.38,6.381c11.178,1.062 22.936,1.085 35.314,0c3.522,0 6.38,-2.859 6.38,-6.381l0,-66.924Zm-41.488,31.157l0,-5.268l17.122,12.316l17.122,-12.316l0,5.268l-17.122,12.316l-17.122,-12.316Zm0,-11.195l0,-5.269l17.122,12.317l17.122,-12.317l0,5.269l-17.122,12.316l-17.122,-12.316Zm0,-11.195l0,-5.269l17.122,12.316l17.122,-12.316l0,5.269l-17.122,12.316l-17.122,-12.316Zm-8.277,-28.273c0.005,0.078 0.04,-0.106 0.148,-0.97c1.629,-12.499 11.637,-23.966 25.087,-24.1c0.109,0 0.219,0 0.328,0c6.034,0.06 11.955,2.488 16.387,6.677c5.044,4.767 8.124,11.445 8.803,18.348c0,0 -0.042,-1.211 0.013,-0.254c0.141,1.872 1.353,3.507 3.645,3.551c1.755,0.046 3.488,0.293 5.198,0.647c0,0 3.241,1.145 1.828,3.364c-0.398,0.624 -1.065,1.021 -1.793,1.253l-68.49,0c-1.512,-0.481 -3.422,-2.348 -1.211,-4.029c2.533,-1.925 7.203,-0.371 8.963,-2.053c0.664,-0.635 0.985,-1.527 1.094,-2.434c-0.006,-0.105 0.045,-0.703 0.045,-0.703c-0.002,0.233 -0.016,0.469 -0.045,0.703Zm25.257,-21.777c-5.107,0.051 -10.092,2.05 -13.905,5.551c-4.618,4.24 -7.422,10.322 -8.03,16.503l-0.173,0.875c-0.351,1.588 -1.173,3.069 -2.441,4.071l49.382,0c-0.701,-0.555 -0.765,-0.68 -1.06,-1.053c-0.746,-0.941 -1.213,-2.083 -1.429,-3.269c0,0 -0.361,-3.132 -1.086,-5.594c-2.691,-9.138 -10.725,-16.916 -20.833,-17.083c-0.142,-0.001 -0.283,-0.001 -0.425,-0.001Z"/></svg>