<?xml version="1.0" encoding="UTF-8" standalone="no"?><!DOCTYPE svg PUBLIC "-//W3C//DTD SVG 1.1//EN" "http://www.w3.org/Graphics/SVG/1.1/DTD/svg11.dtd"><svg width="100%" height="100%" viewBox="0 0 176 177" version="1.1" xmlns="http://www.w3.org/2000/svg" xmlns:xlink="http://www.w3.org/1999/xlink" xml:space="preserve" xmlns:serif="http://www.serif.com/" style="fill-rule:evenodd;clip-rule:evenodd;stroke-linejoin:round;stroke-miterlimit:1.41421;"><rect id="Artboard1" x="0" y="0" width="175.819" height="176.786" style="fill:none;"/><g><circle cx="87.737" cy="88.035" r="78.129"/><path d="M88.007,4.407l0.27,0.001l0.27,0.002l0.269,0.003l0.269,0.004l0.27,0.005l0.268,0.005l0.269,0.007l0.269,0.007l0.268,0.008l0.268,0.009l0.268,0.01l0.267,0.011l0.268,0.011l0.267,0.012l0.267,0.013l0.267,0.014l0.267,0.015l0.266,0.016l0.266,0.016l0.266,0.018l0.266,0.018l0.265,0.019l0.266,0.019l0.265,0.021l0.265,0.022l0.264,0.022l0.265,0.023l0.264,0.024l0.264,0.025l0.264,0.025l0.263,0.026l0.263,0.028l0.264,0.028l0.262,0.028l0.263,0.03l0.262,0.031l0.262,0.031l0.262,0.032l0.262,0.033l0.261,0.033l0.261,0.035l0.261,0.035l0.261,0.036l0.26,0.037l0.26,0.038l0.26,0.038l0.26,0.04l0.259,0.04l0.259,0.041l0.259,0.041l0.258,0.043l0.259,0.043l0.258,0.044l0.258,0.045l0.257,0.046l0.257,0.046l0.257,0.047l0.257,0.048l0.256,0.049l0.257,0.05l0.256,0.05l0.255,0.051l0.255,0.052l0.256,0.053l0.254,0.053l0.255,0.054l0.254,0.055l0.254,0.056l0.254,0.057l0.253,0.057l0.253,0.058l0.253,0.059l0.252,0.059l0.252,0.061l0.252,0.061l0.252,0.062l0.251,0.062l0.251,0.064l0.251,0.064l0.25,0.065l0.251,0.065l0.249,0.067l0.25,0.067l0.249,0.068l0.253,0.07l0.493,0.138l0.495,0.143l0.495,0.145l0.493,0.149l0.492,0.151l0.49,0.154l0.489,0.158l0.488,0.16l0.487,0.163l0.485,0.166l0.484,0.169l0.482,0.172l0.481,0.174l0.48,0.178l0.479,0.18l0.477,0.183l0.475,0.186l0.474,0.189l0.473,0.192l0.471,0.194l0.47,0.197l0.469,0.2l0.467,0.203l0.465,0.205l0.464,0.209l0.462,0.211l0.461,0.213l0.46,0.217l0.457,0.219l0.457,0.221l0.455,0.225l0.453,0.227l0.451,0.23l0.45,0.232l0.449,0.235l0.447,0.238l0.445,0.24l0.443,0.243l0.442,0.245l0.441,0.248l0.438,0.251l0.437,0.253l0.436,0.255l0.433,0.259l0.432,0.26l0.43,0.264l0.429,0.266l0.426,0.268l0.425,0.271l0.424,0.273l0.421,0.276l0.42,0.278l0.418,0.28l0.416,0.283l0.414,0.286l0.413,0.288l0.411,0.29l0.409,0.293l0.407,0.295l0.405,0.298l0.403,0.299l0.402,0.303l0.399,0.304l0.398,0.307l0.396,0.309l0.394,0.312l0.392,0.314l0.39,0.316l0.388,0.318l0.386,0.321l0.384,0.323l0.382,0.325l0.38,0.327l0.379,0.33l0.376,0.332l0.374,0.334l0.372,0.336l0.371,0.339l0.368,0.34l0.366,0.343l0.364,0.345l0.362,0.347l0.36,0.35l0.357,0.351l0.356,0.354l0.354,0.355l0.351,0.358l0.349,0.36l0.347,0.362l0.345,0.364l0.343,0.366l0.341,0.368l0.338,0.37l0.337,0.373l0.334,0.374l0.332,0.376l0.329,0.378l0.328,0.38l0.325,0.383l0.323,0.384l0.321,0.386l0.318,0.388l0.316,0.39l0.314,0.392l0.311,0.394l0.31,0.396l0.307,0.397l0.304,0.4l0.302,0.402l0.3,0.403l0.298,0.405l0.295,0.407l0.292,0.409l0.291,0.411l0.288,0.412l0.285,0.415l0.283,0.416l0.281,0.418l0.278,0.419l0.276,0.422l0.273,0.423l0.271,0.425l0.268,0.427l0.266,0.428l0.263,0.431l0.261,0.432l0.258,0.433l0.256,0.435l0.253,0.437l0.251,0.439l0.248,0.44l0.245,0.442l0.243,0.444l0.24,0.445l0.238,0.447l0.235,0.448l0.232,0.45l0.23,0.452l0.227,0.453l0.224,0.455l0.222,0.456l0.219,0.458l0.216,0.459l0.214,0.461l0.211,0.463l0.208,0.464l0.206,0.465l0.202,0.467l0.2,0.468l0.197,0.47l0.195,0.472l0.191,0.472l0.189,0.475l0.186,0.475l0.183,0.477l0.181,0.478l0.177,0.48l0.175,0.481l0.172,0.483l0.169,0.484l0.166,0.485l0.163,0.487l0.16,0.487l0.157,0.49l0.155,0.49l0.151,0.492l0.148,0.493l0.146,0.494l0.143,0.496l0.138,0.493l0.07,0.253l0.068,0.249l0.067,0.249l0.066,0.25l0.066,0.25l0.065,0.251l0.064,0.25l0.063,0.251l0.063,0.252l0.062,0.251l0.061,0.252l0.06,0.252l0.06,0.253l0.059,0.253l0.058,0.253l0.057,0.253l0.057,0.254l0.055,0.254l0.055,0.254l0.055,0.254l0.053,0.255l0.053,0.255l0.052,0.256l0.051,0.255l0.05,0.256l0.05,0.256l0.048,0.257l0.048,0.256l0.048,0.257l0.046,0.258l0.046,0.257l0.045,0.258l0.044,0.258l0.043,0.258l0.042,0.259l0.042,0.259l0.041,0.259l0.04,0.259l0.039,0.26l0.039,0.26l0.037,0.26l0.037,0.26l0.036,0.26l0.036,0.261l0.034,0.262l0.034,0.261l0.033,0.262l0.032,0.261l0.031,0.262l0.031,0.263l0.029,0.262l0.029,0.263l0.028,0.263l0.027,0.263l0.027,0.264l0.025,0.264l0.025,0.264l0.024,0.264l0.023,0.264l0.022,0.265l0.022,0.265l0.02,0.265l0.02,0.265l0.019,0.266l0.018,0.265l0.017,0.267l0.017,0.266l0.016,0.266l0.014,0.267l0.014,0.267l0.013,0.267l0.013,0.267l0.011,0.267l0.011,0.268l0.01,0.268l0.008,0.268l0.009,0.268l0.007,0.269l0.006,0.268l0.006,0.269l0.004,0.269l0.004,0.269l0.003,0.27l0.002,0.27l0.002,0.269l0,0.27l0,0.27l-0.002,0.27l-0.002,0.27l-0.003,0.269l-0.004,0.269l-0.004,0.27l-0.006,0.268l-0.006,0.269l-0.007,0.269l-0.009,0.268l-0.008,0.268l-0.01,0.268l-0.011,0.267l-0.011,0.268l-0.013,0.267l-0.013,0.267l-0.014,0.267l-0.014,0.267l-0.016,0.266l-0.017,0.266l-0.017,0.266l-0.018,0.266l-0.019,0.265l-0.02,0.266l-0.02,0.265l-0.022,0.265l-0.022,0.264l-0.023,0.265l-0.024,0.264l-0.025,0.264l-0.025,0.264l-0.027,0.263l-0.027,0.264l-0.028,0.263l-0.029,0.262l-0.029,0.263l-0.031,0.262l-0.031,0.262l-0.032,0.262l-0.033,0.262l-0.034,0.261l-0.034,0.261l-0.036,0.261l-0.036,0.261l-0.037,0.26l-0.037,0.26l-0.039,0.26l-0.039,0.26l-0.04,0.259l-0.041,0.259l-0.042,0.259l-0.042,0.258l-0.043,0.259l-0.044,0.258l-0.045,0.258l-0.046,0.257l-0.046,0.257l-0.048,0.257l-0.048,0.257l-0.048,0.257l-0.05,0.256l-0.05,0.255l-0.051,0.256l-0.052,0.255l-0.053,0.256l-0.053,0.254l-0.055,0.255l-0.055,0.254l-0.055,0.254l-0.057,0.254l-0.057,0.253l-0.058,0.253l-0.059,0.253l-0.06,0.252l-0.06,0.253l-0.061,0.251l-0.062,0.252l-0.063,0.251l-0.063,0.251l-0.064,0.251l-0.065,0.25l-0.066,0.251l-0.066,0.249l-0.067,0.25l-0.068,0.249l-0.07,0.253l-0.138,0.493l-0.143,0.495l-0.146,0.495l-0.148,0.493l-0.151,0.492l-0.155,0.49l-0.157,0.489l-0.16,0.488l-0.163,0.487l-0.166,0.485l-0.169,0.484l-0.172,0.482l-0.175,0.481l-0.177,0.48l-0.181,0.479l-0.183,0.477l-0.186,0.475l-0.189,0.474l-0.191,0.473l-0.195,0.471l-0.197,0.47l-0.2,0.469l-0.202,0.467l-0.206,0.465l-0.208,0.464l-0.211,0.462l-0.214,0.461l-0.216,0.46l-0.219,0.457l-0.222,0.457l-0.224,0.455l-0.227,0.453l-0.23,0.451l-0.232,0.45l-0.235,0.449l-0.238,0.447l-0.24,0.445l-0.243,0.443l-0.245,0.442l-0.248,0.441l-0.251,0.438l-0.253,0.437l-0.256,0.436l-0.258,0.433l-0.261,0.432l-0.263,0.43l-0.266,0.429l-0.268,0.427l-0.271,0.424l-0.273,0.424l-0.276,0.421l-0.278,0.42l-0.281,0.418l-0.283,0.416l-0.285,0.414l-0.288,0.413l-0.291,0.411l-0.292,0.409l-0.295,0.407l-0.298,0.405l-0.3,0.403l-0.302,0.402l-0.304,0.399l-0.307,0.398l-0.309,0.396l-0.312,0.394l-0.314,0.392l-0.316,0.39l-0.318,0.388l-0.321,0.386l-0.323,0.384l-0.325,0.382l-0.328,0.381l-0.329,0.378l-0.332,0.376l-0.334,0.374l-0.336,0.372l-0.339,0.37l-0.341,0.369l-0.343,0.366l-0.345,0.364l-0.347,0.362l-0.349,0.36l-0.351,0.357l-0.354,0.356l-0.356,0.354l-0.357,0.351l-0.36,0.349l-0.362,0.347l-0.364,0.345l-0.366,0.343l-0.368,0.341l-0.371,0.338l-0.372,0.337l-0.374,0.334l-0.376,0.332l-0.379,0.329l-0.38,0.328l-0.382,0.325l-0.384,0.323l-0.386,0.321l-0.388,0.318l-0.39,0.316l-0.392,0.314l-0.394,0.312l-0.396,0.309l-0.398,0.307l-0.399,0.304l-0.402,0.302l-0.403,0.3l-0.405,0.298l-0.407,0.295l-0.409,0.292l-0.411,0.291l-0.413,0.288l-0.414,0.285l-0.416,0.283l-0.418,0.281l-0.42,0.278l-0.421,0.276l-0.424,0.273l-0.425,0.271l-0.426,0.268l-0.429,0.266l-0.43,0.263l-0.432,0.261l-0.433,0.258l-0.436,0.256l-0.437,0.253l-0.438,0.251l-0.441,0.248l-0.442,0.245l-0.443,0.243l-0.445,0.24l-0.447,0.238l-0.449,0.235l-0.45,0.232l-0.451,0.23l-0.453,0.227l-0.455,0.224l-0.456,0.222l-0.458,0.219l-0.46,0.216l-0.461,0.214l-0.462,0.211l-0.464,0.208l-0.465,0.206l-0.467,0.202l-0.469,0.2l-0.47,0.197l-0.471,0.195l-0.473,0.191l-0.474,0.189l-0.475,0.186l-0.477,0.183l-0.479,0.181l-0.48,0.177l-0.481,0.175l-0.482,0.172l-0.484,0.169l-0.485,0.166l-0.487,0.163l-0.488,0.16l-0.489,0.157l-0.49,0.155l-0.492,0.151l-0.493,0.148l-0.495,0.146l-0.495,0.143l-0.493,0.138l-0.253,0.07l-0.249,0.068l-0.25,0.067l-0.249,0.066l-0.251,0.066l-0.25,0.065l-0.251,0.064l-0.251,0.063l-0.251,0.063l-0.252,0.062l-0.252,0.061l-0.252,0.06l-0.252,0.06l-0.253,0.059l-0.253,0.058l-0.253,0.057l-0.254,0.057l-0.254,0.055l-0.254,0.055l-0.255,0.055l-0.255,0.053l-0.254,0.053l-0.256,0.052l-0.256,0.051l-0.255,0.05l-0.256,0.05l-0.257,0.048l-0.257,0.048l-0.257,0.048l-0.257,0.046l-0.258,0.046l-0.257,0.045l-0.258,0.044l-0.259,0.043l-0.258,0.042l-0.259,0.042l-0.259,0.041l-0.259,0.04l-0.26,0.039l-0.26,0.039l-0.26,0.037l-0.26,0.037l-0.261,0.036l-0.261,0.036l-0.261,0.034l-0.261,0.034l-0.262,0.033l-0.262,0.032l-0.262,0.031l-0.262,0.031l-0.263,0.029l-0.263,0.029l-0.263,0.028l-0.263,0.027l-0.263,0.027l-0.264,0.025l-0.264,0.025l-0.264,0.024l-0.265,0.023l-0.264,0.022l-0.265,0.022l-0.265,0.02l-0.266,0.02l-0.265,0.019l-0.266,0.018l-0.266,0.017l-0.266,0.017l-0.266,0.016l-0.267,0.014l-0.267,0.014l-0.267,0.013l-0.267,0.013l-0.268,0.011l-0.267,0.011l-0.268,0.01l-0.268,0.009l-0.269,0.008l-0.268,0.007l-0.268,0.006l-0.27,0.006l-0.269,0.004l-0.269,0.004l-0.269,0.003l-0.27,0.002l-0.27,0.002l-0.27,0l-0.27,0l-0.27,-0.002l-0.269,-0.002l-0.27,-0.003l-0.269,-0.004l-0.269,-0.004l-0.269,-0.006l-0.268,-0.006l-0.269,-0.007l-0.268,-0.008l-0.268,-0.009l-0.268,-0.01l-0.268,-0.011l-0.267,-0.011l-0.267,-0.013l-0.267,-0.013l-0.267,-0.014l-0.267,-0.014l-0.266,-0.016l-0.267,-0.017l-0.266,-0.017l-0.265,-0.018l-0.266,-0.019l-0.265,-0.02l-0.265,-0.02l-0.265,-0.022l-0.265,-0.022l-0.264,-0.023l-0.264,-0.024l-0.264,-0.025l-0.264,-0.025l-0.264,-0.027l-0.263,-0.027l-0.263,-0.028l-0.263,-0.029l-0.262,-0.029l-0.263,-0.031l-0.262,-0.031l-0.261,-0.032l-0.262,-0.033l-0.262,-0.034l-0.261,-0.034l-0.26,-0.036l-0.261,-0.036l-0.26,-0.037l-0.26,-0.037l-0.26,-0.039l-0.26,-0.039l-0.259,-0.04l-0.259,-0.041l-0.259,-0.042l-0.259,-0.042l-0.258,-0.043l-0.258,-0.044l-0.258,-0.045l-0.257,-0.046l-0.258,-0.046l-0.257,-0.048l-0.256,-0.048l-0.257,-0.048l-0.256,-0.05l-0.256,-0.05l-0.256,-0.051l-0.255,-0.052l-0.255,-0.053l-0.255,-0.053l-0.254,-0.055l-0.254,-0.055l-0.254,-0.055l-0.254,-0.057l-0.253,-0.057l-0.253,-0.058l-0.253,-0.059l-0.253,-0.06l-0.252,-0.06l-0.252,-0.061l-0.251,-0.062l-0.252,-0.063l-0.251,-0.063l-0.25,-0.064l-0.251,-0.065l-0.25,-0.066l-0.25,-0.066l-0.249,-0.067l-0.249,-0.068l-0.253,-0.07l-0.493,-0.138l-0.496,-0.143l-0.494,-0.146l-0.493,-0.148l-0.492,-0.151l-0.49,-0.155l-0.49,-0.157l-0.488,-0.16l-0.486,-0.163l-0.485,-0.166l-0.484,-0.169l-0.483,-0.172l-0.481,-0.175l-0.48,-0.177l-0.478,-0.181l-0.477,-0.183l-0.476,-0.186l-0.474,-0.189l-0.472,-0.191l-0.472,-0.195l-0.469,-0.197l-0.469,-0.2l-0.467,-0.202l-0.465,-0.206l-0.464,-0.208l-0.463,-0.211l-0.461,-0.214l-0.459,-0.216l-0.458,-0.219l-0.456,-0.222l-0.455,-0.224l-0.453,-0.227l-0.452,-0.23l-0.45,-0.232l-0.448,-0.235l-0.447,-0.238l-0.445,-0.24l-0.444,-0.243l-0.442,-0.245l-0.44,-0.248l-0.439,-0.251l-0.437,-0.253l-0.435,-0.256l-0.434,-0.258l-0.431,-0.261l-0.431,-0.263l-0.428,-0.266l-0.427,-0.268l-0.425,-0.271l-0.423,-0.273l-0.422,-0.276l-0.419,-0.278l-0.418,-0.281l-0.416,-0.283l-0.415,-0.285l-0.412,-0.288l-0.411,-0.291l-0.409,-0.292l-0.407,-0.295l-0.405,-0.298l-0.403,-0.3l-0.402,-0.302l-0.4,-0.304l-0.397,-0.307l-0.396,-0.309l-0.394,-0.312l-0.392,-0.314l-0.39,-0.316l-0.388,-0.318l-0.386,-0.321l-0.384,-0.323l-0.383,-0.325l-0.38,-0.328l-0.378,-0.329l-0.376,-0.332l-0.374,-0.334l-0.373,-0.336l-0.37,-0.339l-0.368,-0.341l-0.366,-0.343l-0.364,-0.345l-0.362,-0.347l-0.36,-0.349l-0.358,-0.351l-0.355,-0.354l-0.354,-0.356l-0.351,-0.357l-0.35,-0.36l-0.347,-0.362l-0.345,-0.364l-0.343,-0.366l-0.34,-0.369l-0.339,-0.37l-0.336,-0.372l-0.334,-0.374l-0.332,-0.376l-0.33,-0.379l-0.327,-0.38l-0.325,-0.382l-0.323,-0.384l-0.321,-0.386l-0.318,-0.388l-0.317,-0.39l-0.313,-0.392l-0.312,-0.394l-0.309,-0.396l-0.307,-0.398l-0.304,-0.399l-0.303,-0.402l-0.299,-0.403l-0.298,-0.405l-0.295,-0.407l-0.293,-0.409l-0.29,-0.411l-0.288,-0.413l-0.286,-0.414l-0.283,-0.416l-0.28,-0.418l-0.278,-0.42l-0.276,-0.421l-0.273,-0.424l-0.271,-0.425l-0.268,-0.426l-0.266,-0.429l-0.264,-0.43l-0.26,-0.432l-0.259,-0.433l-0.255,-0.436l-0.253,-0.437l-0.251,-0.438l-0.248,-0.441l-0.245,-0.442l-0.243,-0.443l-0.241,-0.445l-0.237,-0.447l-0.235,-0.449l-0.232,-0.45l-0.23,-0.451l-0.227,-0.453l-0.225,-0.455l-0.221,-0.457l-0.219,-0.457l-0.217,-0.46l-0.213,-0.461l-0.211,-0.462l-0.209,-0.464l-0.205,-0.465l-0.203,-0.467l-0.2,-0.469l-0.197,-0.47l-0.194,-0.471l-0.192,-0.473l-0.189,-0.474l-0.186,-0.475l-0.183,-0.477l-0.18,-0.479l-0.178,-0.48l-0.174,-0.481l-0.172,-0.482l-0.169,-0.484l-0.166,-0.485l-0.163,-0.487l-0.16,-0.488l-0.158,-0.489l-0.154,-0.49l-0.151,-0.492l-0.149,-0.493l-0.145,-0.495l-0.143,-0.495l-0.138,-0.493l-0.07,-0.253l-0.068,-0.249l-0.067,-0.25l-0.067,-0.249l-0.065,-0.251l-0.065,-0.25l-0.064,-0.251l-0.064,-0.251l-0.062,-0.251l-0.062,-0.252l-0.061,-0.251l-0.061,-0.253l-0.059,-0.252l-0.059,-0.253l-0.058,-0.253l-0.057,-0.253l-0.057,-0.254l-0.056,-0.254l-0.055,-0.254l-0.054,-0.255l-0.053,-0.254l-0.053,-0.256l-0.052,-0.255l-0.051,-0.255l-0.05,-0.256l-0.05,-0.257l-0.049,-0.256l-0.048,-0.257l-0.047,-0.257l-0.046,-0.257l-0.046,-0.257l-0.045,-0.258l-0.044,-0.258l-0.043,-0.259l-0.043,-0.258l-0.041,-0.259l-0.041,-0.259l-0.04,-0.259l-0.04,-0.26l-0.038,-0.26l-0.038,-0.26l-0.037,-0.26l-0.036,-0.261l-0.035,-0.261l-0.035,-0.261l-0.033,-0.261l-0.033,-0.262l-0.032,-0.262l-0.031,-0.262l-0.031,-0.262l-0.03,-0.263l-0.028,-0.262l-0.028,-0.264l-0.028,-0.263l-0.026,-0.263l-0.025,-0.264l-0.025,-0.264l-0.024,-0.264l-0.023,-0.265l-0.022,-0.264l-0.022,-0.265l-0.021,-0.265l-0.019,-0.266l-0.019,-0.265l-0.018,-0.266l-0.018,-0.266l-0.016,-0.266l-0.016,-0.266l-0.015,-0.267l-0.014,-0.267l-0.013,-0.267l-0.012,-0.267l-0.012,-0.268l-0.01,-0.267l-0.01,-0.268l-0.009,-0.268l-0.008,-0.268l-0.007,-0.269l-0.007,-0.269l-0.005,-0.268l-0.005,-0.27l-0.004,-0.269l-0.003,-0.269l-0.002,-0.27l-0.001,-0.27l0,-0.27l0,-0.27l0.001,-0.269l0.002,-0.27l0.003,-0.27l0.004,-0.269l0.005,-0.269l0.005,-0.269l0.007,-0.268l0.007,-0.269l0.008,-0.268l0.009,-0.268l0.01,-0.268l0.01,-0.268l0.012,-0.267l0.012,-0.267l0.013,-0.267l0.014,-0.267l0.015,-0.267l0.016,-0.266l0.016,-0.266l0.018,-0.266l0.018,-0.266l0.019,-0.266l0.019,-0.265l0.021,-0.265l0.022,-0.265l0.022,-0.265l0.023,-0.264l0.024,-0.264l0.025,-0.264l0.025,-0.264l0.026,-0.264l0.028,-0.263l0.028,-0.263l0.028,-0.263l0.03,-0.262l0.031,-0.263l0.031,-0.262l0.032,-0.261l0.033,-0.262l0.033,-0.261l0.035,-0.262l0.035,-0.26l0.036,-0.261l0.037,-0.26l0.038,-0.26l0.038,-0.26l0.04,-0.26l0.04,-0.259l0.041,-0.259l0.041,-0.259l0.043,-0.259l0.043,-0.258l0.044,-0.258l0.045,-0.258l0.046,-0.257l0.046,-0.258l0.047,-0.257l0.048,-0.256l0.049,-0.257l0.05,-0.256l0.05,-0.256l0.051,-0.255l0.052,-0.256l0.053,-0.255l0.053,-0.255l0.054,-0.254l0.055,-0.254l0.056,-0.254l0.057,-0.254l0.057,-0.253l0.058,-0.253l0.059,-0.253l0.059,-0.253l0.061,-0.252l0.061,-0.252l0.062,-0.251l0.062,-0.252l0.064,-0.251l0.064,-0.25l0.065,-0.251l0.065,-0.25l0.067,-0.25l0.067,-0.249l0.068,-0.249l0.07,-0.253l0.138,-0.493l0.143,-0.496l0.145,-0.494l0.149,-0.493l0.151,-0.492l0.154,-0.49l0.158,-0.49l0.16,-0.487l0.163,-0.487l0.166,-0.485l0.169,-0.484l0.172,-0.483l0.174,-0.481l0.178,-0.48l0.18,-0.478l0.183,-0.477l0.186,-0.476l0.189,-0.474l0.192,-0.472l0.194,-0.472l0.197,-0.47l0.2,-0.468l0.203,-0.467l0.205,-0.465l0.209,-0.464l0.211,-0.463l0.213,-0.461l0.217,-0.459l0.219,-0.458l0.221,-0.456l0.225,-0.455l0.227,-0.453l0.23,-0.452l0.232,-0.45l0.235,-0.448l0.237,-0.447l0.241,-0.445l0.243,-0.444l0.245,-0.442l0.248,-0.44l0.251,-0.439l0.253,-0.437l0.255,-0.435l0.259,-0.433l0.26,-0.432l0.264,-0.431l0.266,-0.428l0.268,-0.427l0.271,-0.425l0.273,-0.423l0.276,-0.422l0.278,-0.419l0.28,-0.418l0.283,-0.416l0.286,-0.415l0.288,-0.412l0.29,-0.411l0.293,-0.409l0.295,-0.407l0.298,-0.405l0.299,-0.403l0.303,-0.402l0.304,-0.4l0.307,-0.397l0.309,-0.396l0.312,-0.394l0.313,-0.392l0.317,-0.39l0.318,-0.388l0.321,-0.386l0.323,-0.384l0.325,-0.383l0.327,-0.38l0.33,-0.378l0.332,-0.376l0.334,-0.374l0.336,-0.373l0.339,-0.37l0.34,-0.368l0.343,-0.366l0.345,-0.364l0.347,-0.362l0.35,-0.36l0.351,-0.358l0.354,-0.355l0.355,-0.354l0.358,-0.351l0.36,-0.35l0.362,-0.347l0.364,-0.345l0.366,-0.343l0.368,-0.34l0.37,-0.339l0.373,-0.336l0.374,-0.334l0.376,-0.332l0.378,-0.33l0.38,-0.327l0.383,-0.325l0.384,-0.323l0.386,-0.321l0.388,-0.318l0.39,-0.316l0.392,-0.314l0.394,-0.312l0.396,-0.309l0.397,-0.307l0.4,-0.304l0.402,-0.303l0.403,-0.299l0.405,-0.298l0.407,-0.295l0.409,-0.293l0.411,-0.29l0.412,-0.288l0.415,-0.286l0.416,-0.283l0.418,-0.28l0.419,-0.278l0.422,-0.276l0.423,-0.273l0.425,-0.271l0.427,-0.268l0.428,-0.266l0.431,-0.264l0.432,-0.26l0.433,-0.259l0.435,-0.255l0.437,-0.253l0.439,-0.251l0.44,-0.248l0.442,-0.245l0.444,-0.243l0.445,-0.24l0.447,-0.238l0.448,-0.235l0.45,-0.232l0.452,-0.23l0.453,-0.227l0.455,-0.225l0.456,-0.221l0.458,-0.219l0.459,-0.217l0.461,-0.213l0.463,-0.211l0.464,-0.209l0.465,-0.205l0.467,-0.203l0.468,-0.2l0.47,-0.197l0.472,-0.194l0.472,-0.192l0.474,-0.189l0.476,-0.186l0.477,-0.183l0.478,-0.18l0.48,-0.178l0.481,-0.174l0.483,-0.172l0.484,-0.169l0.485,-0.166l0.487,-0.163l0.487,-0.16l0.49,-0.158l0.49,-0.154l0.492,-0.151l0.493,-0.149l0.494,-0.145l0.496,-0.143l0.493,-0.138l0.253,-0.07l0.249,-0.068l0.249,-0.067l0.25,-0.067l0.25,-0.065l0.251,-0.065l0.25,-0.064l0.251,-0.064l0.252,-0.062l0.251,-0.062l0.252,-0.061l0.252,-0.061l0.253,-0.059l0.253,-0.059l0.253,-0.058l0.253,-0.057l0.254,-0.057l0.254,-0.056l0.254,-0.055l0.254,-0.054l0.255,-0.053l0.255,-0.053l0.256,-0.052l0.255,-0.051l0.256,-0.05l0.256,-0.05l0.257,-0.049l0.256,-0.048l0.257,-0.047l0.258,-0.046l0.257,-0.046l0.258,-0.045l0.258,-0.044l0.258,-0.043l0.259,-0.043l0.259,-0.041l0.259,-0.041l0.259,-0.04l0.26,-0.04l0.26,-0.038l0.26,-0.038l0.26,-0.037l0.261,-0.036l0.26,-0.035l0.262,-0.035l0.261,-0.033l0.262,-0.033l0.261,-0.032l0.262,-0.031l0.263,-0.031l0.262,-0.03l0.263,-0.028l0.263,-0.028l0.263,-0.028l0.264,-0.026l0.264,-0.025l0.264,-0.025l0.264,-0.024l0.264,-0.023l0.265,-0.022l0.265,-0.022l0.265,-0.021l0.265,-0.019l0.266,-0.019l0.266,-0.018l0.266,-0.018l0.266,-0.016l0.266,-0.016l0.267,-0.015l0.267,-0.014l0.267,-0.013l0.267,-0.012l0.267,-0.011l0.268,-0.011l0.268,-0.01l0.268,-0.009l0.268,-0.008l0.269,-0.007l0.268,-0.007l0.269,-0.005l0.269,-0.005l0.269,-0.004l0.27,-0.003l0.27,-0.002l0.269,-0.001l0.27,0l0.27,0Zm-0.522,5.5l-0.253,0.001l-0.252,0.002l-0.252,0.003l-0.252,0.004l-0.251,0.004l-0.252,0.005l-0.251,0.006l-0.251,0.007l-0.251,0.007l-0.25,0.009l-0.251,0.009l-0.25,0.01l-0.25,0.011l-0.25,0.011l-0.25,0.012l-0.249,0.013l-0.249,0.014l-0.249,0.015l-0.249,0.015l-0.249,0.016l-0.248,0.017l-0.248,0.018l-0.248,0.019l-0.248,0.019l-0.248,0.02l-0.247,0.021l-0.247,0.021l-0.247,0.023l-0.246,0.023l-0.247,0.024l-0.246,0.024l-0.246,0.026l-0.246,0.026l-0.245,0.027l-0.246,0.027l-0.245,0.029l-0.245,0.029l-0.244,0.03l-0.245,0.031l-0.244,0.031l-0.244,0.032l-0.243,0.033l-0.244,0.034l-0.243,0.035l-0.243,0.035l-0.243,0.036l-0.242,0.036l-0.242,0.038l-0.242,0.038l-0.242,0.039l-0.242,0.04l-0.241,0.04l-0.241,0.041l-0.241,0.042l-0.24,0.043l-0.24,0.043l-0.24,0.044l-0.24,0.045l-0.24,0.046l-0.239,0.046l-0.239,0.047l-0.239,0.048l-0.238,0.048l-0.238,0.049l-0.238,0.05l-0.238,0.051l-0.237,0.051l-0.237,0.052l-0.237,0.053l-0.237,0.053l-0.236,0.055l-0.236,0.055l-0.236,0.055l-0.235,0.057l-0.236,0.057l-0.234,0.057l-0.235,0.059l-0.235,0.059l-0.234,0.06l-0.233,0.061l-0.234,0.061l-0.233,0.062l-0.233,0.063l-0.233,0.063l-0.232,0.064l-0.464,0.131l-0.463,0.133l-0.461,0.136l-0.461,0.138l-0.459,0.142l-0.458,0.144l-0.457,0.147l-0.455,0.149l-0.455,0.152l-0.453,0.155l-0.452,0.158l-0.45,0.161l-0.449,0.163l-0.448,0.165l-0.447,0.169l-0.446,0.171l-0.444,0.173l-0.442,0.177l-0.442,0.179l-0.44,0.181l-0.439,0.184l-0.437,0.187l-0.436,0.189l-0.435,0.192l-0.433,0.195l-0.432,0.197l-0.43,0.199l-0.429,0.202l-0.428,0.205l-0.426,0.207l-0.425,0.21l-0.423,0.212l-0.422,0.214l-0.421,0.217l-0.418,0.22l-0.418,0.222l-0.416,0.224l-0.414,0.227l-0.413,0.229l-0.411,0.232l-0.41,0.234l-0.408,0.237l-0.407,0.238l-0.405,0.242l-0.403,0.243l-0.402,0.246l-0.401,0.249l-0.398,0.25l-0.397,0.253l-0.396,0.256l-0.394,0.257l-0.392,0.26l-0.391,0.262l-0.388,0.265l-0.388,0.267l-0.385,0.269l-0.384,0.271l-0.382,0.274l-0.38,0.275l-0.379,0.278l-0.377,0.28l-0.375,0.283l-0.374,0.285l-0.371,0.286l-0.37,0.289l-0.368,0.291l-0.367,0.294l-0.364,0.295l-0.363,0.298l-0.361,0.299l-0.359,0.302l-0.357,0.304l-0.355,0.306l-0.354,0.308l-0.352,0.311l-0.349,0.312l-0.348,0.314l-0.346,0.317l-0.344,0.318l-0.342,0.32l-0.341,0.323l-0.338,0.324l-0.336,0.327l-0.335,0.328l-0.332,0.331l-0.331,0.332l-0.328,0.335l-0.327,0.336l-0.324,0.338l-0.323,0.341l-0.32,0.342l-0.319,0.344l-0.316,0.346l-0.314,0.348l-0.312,0.349l-0.311,0.352l-0.308,0.354l-0.306,0.355l-0.304,0.357l-0.302,0.359l-0.299,0.361l-0.298,0.363l-0.295,0.364l-0.294,0.367l-0.291,0.368l-0.289,0.37l-0.287,0.371l-0.284,0.374l-0.283,0.375l-0.28,0.377l-0.278,0.379l-0.275,0.38l-0.274,0.382l-0.271,0.384l-0.269,0.385l-0.267,0.388l-0.265,0.389l-0.262,0.39l-0.26,0.392l-0.257,0.394l-0.256,0.396l-0.253,0.397l-0.25,0.398l-0.249,0.401l-0.246,0.402l-0.243,0.403l-0.242,0.405l-0.239,0.407l-0.236,0.408l-0.234,0.41l-0.232,0.411l-0.229,0.413l-0.227,0.414l-0.224,0.416l-0.222,0.418l-0.22,0.418l-0.217,0.421l-0.214,0.422l-0.212,0.423l-0.21,0.425l-0.207,0.426l-0.205,0.428l-0.202,0.429l-0.199,0.43l-0.197,0.432l-0.195,0.433l-0.192,0.435l-0.189,0.436l-0.187,0.437l-0.184,0.439l-0.181,0.44l-0.179,0.442l-0.177,0.442l-0.173,0.445l-0.171,0.445l-0.169,0.447l-0.165,0.448l-0.163,0.449l-0.161,0.45l-0.158,0.452l-0.155,0.453l-0.152,0.455l-0.149,0.455l-0.147,0.457l-0.144,0.458l-0.142,0.459l-0.138,0.461l-0.136,0.461l-0.133,0.463l-0.131,0.464l-0.064,0.232l-0.063,0.233l-0.063,0.233l-0.062,0.233l-0.061,0.234l-0.061,0.233l-0.06,0.234l-0.059,0.235l-0.059,0.235l-0.057,0.234l-0.057,0.236l-0.057,0.235l-0.055,0.236l-0.055,0.236l-0.055,0.236l-0.053,0.237l-0.053,0.237l-0.052,0.237l-0.051,0.237l-0.051,0.238l-0.05,0.238l-0.049,0.238l-0.048,0.238l-0.048,0.239l-0.047,0.239l-0.046,0.239l-0.046,0.24l-0.045,0.24l-0.044,0.24l-0.043,0.24l-0.043,0.24l-0.042,0.241l-0.041,0.241l-0.04,0.241l-0.04,0.242l-0.039,0.242l-0.038,0.242l-0.038,0.242l-0.036,0.242l-0.036,0.243l-0.035,0.243l-0.035,0.243l-0.034,0.244l-0.033,0.243l-0.032,0.244l-0.031,0.244l-0.031,0.245l-0.03,0.244l-0.029,0.245l-0.029,0.245l-0.027,0.246l-0.027,0.245l-0.026,0.246l-0.026,0.246l-0.024,0.246l-0.024,0.247l-0.023,0.246l-0.023,0.247l-0.021,0.247l-0.021,0.247l-0.02,0.248l-0.019,0.248l-0.019,0.248l-0.018,0.248l-0.017,0.248l-0.016,0.249l-0.015,0.249l-0.015,0.249l-0.014,0.249l-0.013,0.249l-0.012,0.25l-0.011,0.25l-0.011,0.25l-0.01,0.25l-0.009,0.251l-0.009,0.25l-0.007,0.251l-0.007,0.251l-0.006,0.251l-0.005,0.252l-0.004,0.251l-0.004,0.252l-0.003,0.252l-0.002,0.252l-0.001,0.253l0,0.252l0,0.253l0.001,0.252l0.002,0.252l0.003,0.252l0.004,0.252l0.004,0.252l0.005,0.251l0.006,0.252l0.007,0.251l0.007,0.25l0.009,0.251l0.009,0.251l0.01,0.25l0.011,0.25l0.011,0.25l0.012,0.249l0.013,0.25l0.014,0.249l0.015,0.249l0.015,0.249l0.016,0.248l0.017,0.249l0.018,0.248l0.019,0.248l0.019,0.248l0.02,0.247l0.021,0.248l0.021,0.247l0.023,0.246l0.023,0.247l0.024,0.247l0.024,0.246l0.026,0.246l0.026,0.246l0.027,0.245l0.027,0.245l0.029,0.245l0.029,0.245l0.03,0.245l0.031,0.244l0.031,0.244l0.032,0.244l0.033,0.244l0.034,0.244l0.035,0.243l0.035,0.243l0.036,0.242l0.036,0.243l0.038,0.242l0.038,0.242l0.039,0.242l0.04,0.241l0.04,0.242l0.041,0.241l0.042,0.24l0.043,0.241l0.043,0.24l0.044,0.24l0.045,0.24l0.046,0.239l0.046,0.24l0.047,0.239l0.048,0.238l0.048,0.239l0.049,0.238l0.05,0.238l0.051,0.237l0.051,0.238l0.052,0.237l0.053,0.237l0.053,0.236l0.055,0.237l0.055,0.236l0.055,0.236l0.057,0.235l0.057,0.235l0.057,0.235l0.059,0.235l0.059,0.234l0.06,0.234l0.061,0.234l0.061,0.234l0.062,0.233l0.063,0.233l0.063,0.233l0.064,0.232l0.131,0.464l0.133,0.463l0.136,0.461l0.138,0.461l0.142,0.459l0.144,0.458l0.147,0.456l0.149,0.456l0.152,0.454l0.155,0.453l0.158,0.452l0.161,0.451l0.163,0.449l0.165,0.448l0.169,0.447l0.171,0.445l0.173,0.444l0.177,0.443l0.179,0.442l0.181,0.44l0.184,0.438l0.187,0.438l0.189,0.436l0.192,0.435l0.195,0.433l0.197,0.432l0.199,0.43l0.202,0.429l0.205,0.428l0.207,0.426l0.21,0.425l0.212,0.423l0.214,0.422l0.217,0.42l0.22,0.419l0.222,0.417l0.224,0.416l0.227,0.415l0.229,0.413l0.232,0.411l0.234,0.41l0.236,0.408l0.239,0.407l0.242,0.405l0.243,0.403l0.246,0.402l0.249,0.4l0.25,0.399l0.253,0.397l0.256,0.396l0.257,0.393l0.26,0.393l0.262,0.39l0.265,0.389l0.267,0.387l0.269,0.386l0.271,0.384l0.274,0.382l0.275,0.38l0.278,0.379l0.28,0.377l0.283,0.375l0.284,0.373l0.287,0.372l0.289,0.37l0.291,0.368l0.294,0.366l0.295,0.365l0.298,0.363l0.299,0.36l0.302,0.359l0.304,0.358l0.306,0.355l0.308,0.354l0.311,0.351l0.312,0.35l0.314,0.348l0.316,0.346l0.319,0.344l0.32,0.342l0.323,0.34l0.324,0.339l0.327,0.336l0.328,0.334l0.331,0.333l0.332,0.33l0.335,0.329l0.336,0.326l0.338,0.325l0.341,0.322l0.342,0.321l0.344,0.318l0.346,0.317l0.348,0.314l0.349,0.312l0.352,0.31l0.354,0.308l0.355,0.307l0.357,0.303l0.359,0.302l0.361,0.3l0.363,0.298l0.364,0.295l0.367,0.293l0.368,0.291l0.37,0.289l0.371,0.287l0.374,0.285l0.375,0.282l0.377,0.28l0.379,0.278l0.38,0.276l0.382,0.274l0.384,0.271l0.385,0.269l0.388,0.267l0.388,0.264l0.391,0.263l0.392,0.259l0.394,0.258l0.396,0.255l0.397,0.253l0.398,0.251l0.401,0.248l0.402,0.246l0.403,0.244l0.405,0.241l0.407,0.239l0.408,0.237l0.41,0.234l0.411,0.231l0.413,0.23l0.414,0.227l0.416,0.224l0.418,0.222l0.418,0.219l0.421,0.218l0.422,0.214l0.423,0.212l0.425,0.21l0.426,0.207l0.428,0.204l0.429,0.202l0.43,0.2l0.432,0.197l0.433,0.194l0.435,0.192l0.436,0.19l0.437,0.186l0.439,0.184l0.44,0.182l0.442,0.179l0.442,0.176l0.444,0.174l0.446,0.171l0.447,0.168l0.448,0.166l0.449,0.163l0.45,0.161l0.452,0.157l0.453,0.155l0.455,0.153l0.455,0.149l0.457,0.147l0.458,0.144l0.459,0.142l0.461,0.138l0.461,0.136l0.463,0.133l0.464,0.13l0.232,0.065l0.233,0.063l0.233,0.063l0.233,0.062l0.234,0.061l0.233,0.061l0.234,0.06l0.235,0.059l0.235,0.058l0.234,0.058l0.236,0.057l0.235,0.056l0.236,0.056l0.236,0.055l0.236,0.054l0.237,0.054l0.237,0.053l0.237,0.052l0.237,0.051l0.238,0.051l0.238,0.049l0.238,0.05l0.238,0.048l0.239,0.048l0.239,0.047l0.239,0.046l0.24,0.046l0.24,0.044l0.24,0.045l0.24,0.043l0.24,0.043l0.241,0.041l0.241,0.042l0.241,0.04l0.242,0.04l0.242,0.039l0.242,0.038l0.242,0.037l0.242,0.037l0.243,0.036l0.243,0.035l0.243,0.035l0.244,0.033l0.243,0.033l0.244,0.032l0.244,0.032l0.245,0.031l0.244,0.03l0.245,0.029l0.245,0.028l0.246,0.028l0.245,0.027l0.246,0.026l0.246,0.025l0.246,0.025l0.247,0.024l0.246,0.023l0.247,0.022l0.247,0.022l0.247,0.021l0.248,0.02l0.248,0.019l0.248,0.019l0.248,0.017l0.248,0.017l0.249,0.016l0.249,0.016l0.249,0.014l0.249,0.014l0.249,0.013l0.25,0.013l0.25,0.011l0.25,0.011l0.25,0.01l0.251,0.009l0.25,0.008l0.251,0.008l0.251,0.007l0.251,0.006l0.252,0.005l0.251,0.004l0.252,0.004l0.252,0.003l0.252,0.002l0.253,0.001l0.252,0l0.253,0l0.252,-0.001l0.252,-0.002l0.252,-0.003l0.252,-0.004l0.252,-0.004l0.251,-0.005l0.252,-0.006l0.251,-0.007l0.25,-0.008l0.251,-0.008l0.251,-0.009l0.25,-0.01l0.25,-0.011l0.25,-0.011l0.249,-0.013l0.25,-0.013l0.249,-0.014l0.249,-0.014l0.249,-0.016l0.248,-0.016l0.249,-0.017l0.248,-0.017l0.248,-0.019l0.248,-0.019l0.247,-0.02l0.248,-0.021l0.247,-0.022l0.246,-0.022l0.247,-0.023l0.247,-0.024l0.246,-0.025l0.246,-0.025l0.246,-0.026l0.245,-0.027l0.245,-0.028l0.245,-0.028l0.245,-0.029l0.245,-0.03l0.244,-0.031l0.244,-0.032l0.244,-0.032l0.244,-0.033l0.244,-0.033l0.243,-0.035l0.243,-0.035l0.242,-0.036l0.243,-0.037l0.242,-0.037l0.242,-0.038l0.242,-0.039l0.241,-0.04l0.242,-0.04l0.241,-0.042l0.24,-0.041l0.241,-0.043l0.24,-0.043l0.24,-0.045l0.24,-0.044l0.239,-0.046l0.24,-0.046l0.239,-0.047l0.238,-0.048l0.239,-0.048l0.238,-0.05l0.238,-0.049l0.237,-0.051l0.238,-0.051l0.237,-0.052l0.237,-0.053l0.236,-0.054l0.237,-0.054l0.236,-0.055l0.236,-0.056l0.235,-0.056l0.235,-0.057l0.235,-0.058l0.235,-0.058l0.234,-0.059l0.234,-0.06l0.234,-0.061l0.234,-0.061l0.233,-0.062l0.233,-0.063l0.233,-0.063l0.232,-0.065l0.464,-0.13l0.463,-0.133l0.461,-0.136l0.461,-0.138l0.459,-0.142l0.458,-0.144l0.456,-0.147l0.456,-0.149l0.454,-0.153l0.453,-0.155l0.452,-0.157l0.451,-0.161l0.449,-0.163l0.448,-0.166l0.447,-0.168l0.445,-0.171l0.444,-0.174l0.443,-0.176l0.442,-0.179l0.44,-0.182l0.438,-0.184l0.438,-0.186l0.436,-0.19l0.434,-0.192l0.434,-0.194l0.432,-0.197l0.43,-0.2l0.429,-0.202l0.428,-0.204l0.426,-0.207l0.425,-0.21l0.423,-0.212l0.422,-0.214l0.42,-0.218l0.419,-0.219l0.417,-0.222l0.416,-0.224l0.415,-0.227l0.413,-0.23l0.411,-0.231l0.41,-0.234l0.408,-0.237l0.407,-0.239l0.405,-0.241l0.403,-0.244l0.402,-0.246l0.4,-0.248l0.399,-0.251l0.397,-0.253l0.396,-0.255l0.393,-0.258l0.393,-0.259l0.39,-0.263l0.389,-0.264l0.387,-0.267l0.386,-0.269l0.384,-0.271l0.382,-0.274l0.38,-0.276l0.379,-0.278l0.377,-0.28l0.375,-0.282l0.373,-0.285l0.372,-0.287l0.37,-0.289l0.368,-0.291l0.366,-0.293l0.365,-0.295l0.362,-0.298l0.361,-0.3l0.359,-0.302l0.358,-0.303l0.355,-0.307l0.354,-0.308l0.351,-0.31l0.35,-0.312l0.348,-0.314l0.346,-0.317l0.344,-0.318l0.342,-0.321l0.34,-0.322l0.339,-0.325l0.336,-0.326l0.334,-0.329l0.333,-0.33l0.33,-0.333l0.329,-0.334l0.326,-0.336l0.325,-0.339l0.322,-0.34l0.321,-0.342l0.318,-0.344l0.317,-0.346l0.314,-0.348l0.312,-0.35l0.31,-0.351l0.308,-0.354l0.307,-0.355l0.303,-0.358l0.302,-0.359l0.3,-0.36l0.298,-0.363l0.295,-0.365l0.293,-0.366l0.291,-0.368l0.289,-0.37l0.287,-0.372l0.285,-0.373l0.282,-0.375l0.28,-0.377l0.278,-0.379l0.276,-0.38l0.274,-0.382l0.271,-0.384l0.269,-0.386l0.267,-0.387l0.264,-0.389l0.263,-0.39l0.259,-0.393l0.258,-0.393l0.255,-0.396l0.253,-0.397l0.251,-0.399l0.248,-0.4l0.246,-0.402l0.244,-0.403l0.241,-0.405l0.239,-0.407l0.237,-0.408l0.234,-0.41l0.231,-0.411l0.23,-0.413l0.227,-0.415l0.224,-0.416l0.222,-0.417l0.219,-0.419l0.217,-0.42l0.215,-0.422l0.212,-0.423l0.21,-0.425l0.207,-0.426l0.204,-0.428l0.202,-0.429l0.2,-0.43l0.197,-0.432l0.194,-0.433l0.192,-0.435l0.19,-0.436l0.186,-0.438l0.184,-0.438l0.182,-0.44l0.179,-0.442l0.176,-0.443l0.174,-0.444l0.171,-0.445l0.168,-0.447l0.166,-0.448l0.163,-0.449l0.16,-0.451l0.158,-0.452l0.155,-0.453l0.153,-0.454l0.149,-0.456l0.147,-0.456l0.144,-0.458l0.142,-0.459l0.138,-0.461l0.136,-0.461l0.133,-0.463l0.13,-0.464l0.065,-0.232l0.063,-0.233l0.063,-0.233l0.062,-0.233l0.061,-0.234l0.061,-0.234l0.06,-0.234l0.059,-0.234l0.058,-0.235l0.058,-0.235l0.057,-0.235l0.056,-0.235l0.056,-0.236l0.055,-0.236l0.054,-0.237l0.054,-0.236l0.052,-0.237l0.053,-0.237l0.051,-0.238l0.051,-0.237l0.049,-0.238l0.05,-0.238l0.048,-0.239l0.048,-0.238l0.047,-0.239l0.046,-0.24l0.046,-0.239l0.044,-0.24l0.045,-0.24l0.043,-0.24l0.043,-0.241l0.041,-0.24l0.042,-0.241l0.04,-0.242l0.04,-0.241l0.039,-0.242l0.038,-0.242l0.037,-0.242l0.037,-0.243l0.036,-0.242l0.035,-0.243l0.035,-0.243l0.033,-0.244l0.033,-0.244l0.032,-0.244l0.032,-0.244l0.031,-0.244l0.03,-0.245l0.029,-0.245l0.028,-0.245l0.028,-0.245l0.027,-0.245l0.026,-0.246l0.025,-0.246l0.025,-0.246l0.024,-0.247l0.023,-0.247l0.022,-0.246l0.022,-0.247l0.021,-0.248l0.02,-0.247l0.019,-0.248l0.019,-0.248l0.017,-0.248l0.017,-0.249l0.016,-0.248l0.016,-0.249l0.014,-0.249l0.014,-0.249l0.013,-0.25l0.013,-0.249l0.011,-0.25l0.011,-0.25l0.01,-0.25l0.009,-0.251l0.008,-0.251l0.008,-0.25l0.007,-0.251l0.006,-0.252l0.005,-0.251l0.004,-0.252l0.004,-0.252l0.003,-0.252l0.002,-0.252l0.001,-0.252l0,-0.253l0,-0.252l-0.001,-0.253l-0.002,-0.252l-0.003,-0.252l-0.004,-0.252l-0.004,-0.251l-0.005,-0.252l-0.006,-0.251l-0.007,-0.251l-0.008,-0.251l-0.008,-0.25l-0.009,-0.251l-0.01,-0.25l-0.011,-0.25l-0.011,-0.25l-0.013,-0.25l-0.013,-0.249l-0.014,-0.249l-0.014,-0.249l-0.016,-0.249l-0.016,-0.249l-0.017,-0.248l-0.017,-0.248l-0.019,-0.248l-0.019,-0.248l-0.02,-0.248l-0.021,-0.247l-0.022,-0.247l-0.022,-0.247l-0.023,-0.246l-0.024,-0.247l-0.025,-0.246l-0.025,-0.246l-0.026,-0.246l-0.027,-0.245l-0.028,-0.246l-0.028,-0.245l-0.029,-0.245l-0.03,-0.244l-0.031,-0.245l-0.032,-0.244l-0.032,-0.244l-0.033,-0.243l-0.033,-0.244l-0.035,-0.243l-0.035,-0.243l-0.036,-0.243l-0.037,-0.242l-0.037,-0.242l-0.038,-0.242l-0.039,-0.242l-0.04,-0.242l-0.04,-0.241l-0.042,-0.241l-0.041,-0.241l-0.043,-0.24l-0.043,-0.24l-0.045,-0.24l-0.044,-0.24l-0.046,-0.24l-0.046,-0.239l-0.047,-0.239l-0.048,-0.239l-0.048,-0.238l-0.05,-0.238l-0.049,-0.238l-0.051,-0.238l-0.051,-0.237l-0.053,-0.237l-0.052,-0.237l-0.054,-0.237l-0.054,-0.236l-0.055,-0.236l-0.056,-0.236l-0.056,-0.235l-0.057,-0.236l-0.058,-0.234l-0.058,-0.235l-0.059,-0.235l-0.06,-0.234l-0.061,-0.233l-0.061,-0.234l-0.062,-0.233l-0.063,-0.233l-0.063,-0.233l-0.065,-0.232l-0.13,-0.464l-0.133,-0.463l-0.136,-0.461l-0.138,-0.461l-0.142,-0.459l-0.144,-0.458l-0.147,-0.457l-0.149,-0.455l-0.153,-0.455l-0.155,-0.453l-0.158,-0.452l-0.16,-0.45l-0.163,-0.449l-0.166,-0.448l-0.168,-0.447l-0.171,-0.445l-0.174,-0.445l-0.176,-0.442l-0.179,-0.442l-0.182,-0.44l-0.184,-0.439l-0.186,-0.437l-0.19,-0.436l-0.192,-0.435l-0.194,-0.433l-0.197,-0.432l-0.2,-0.43l-0.202,-0.429l-0.204,-0.428l-0.207,-0.426l-0.21,-0.425l-0.212,-0.423l-0.215,-0.422l-0.217,-0.421l-0.219,-0.418l-0.222,-0.418l-0.224,-0.416l-0.227,-0.414l-0.23,-0.413l-0.231,-0.411l-0.234,-0.41l-0.237,-0.408l-0.239,-0.407l-0.241,-0.405l-0.244,-0.403l-0.246,-0.402l-0.248,-0.401l-0.251,-0.398l-0.253,-0.397l-0.255,-0.396l-0.258,-0.394l-0.259,-0.392l-0.263,-0.39l-0.264,-0.389l-0.267,-0.388l-0.269,-0.385l-0.271,-0.384l-0.274,-0.382l-0.276,-0.38l-0.278,-0.379l-0.28,-0.377l-0.282,-0.375l-0.285,-0.374l-0.287,-0.371l-0.289,-0.37l-0.291,-0.368l-0.293,-0.367l-0.295,-0.364l-0.298,-0.363l-0.3,-0.361l-0.302,-0.359l-0.303,-0.357l-0.307,-0.355l-0.308,-0.354l-0.31,-0.352l-0.312,-0.349l-0.314,-0.348l-0.317,-0.346l-0.318,-0.344l-0.321,-0.342l-0.322,-0.341l-0.325,-0.338l-0.326,-0.336l-0.329,-0.335l-0.33,-0.332l-0.333,-0.331l-0.334,-0.328l-0.336,-0.327l-0.339,-0.324l-0.34,-0.323l-0.342,-0.32l-0.344,-0.318l-0.346,-0.317l-0.348,-0.314l-0.35,-0.312l-0.351,-0.311l-0.354,-0.308l-0.355,-0.306l-0.358,-0.304l-0.359,-0.302l-0.361,-0.299l-0.362,-0.298l-0.365,-0.295l-0.366,-0.294l-0.368,-0.291l-0.37,-0.289l-0.372,-0.286l-0.373,-0.285l-0.375,-0.283l-0.377,-0.28l-0.379,-0.278l-0.38,-0.275l-0.382,-0.274l-0.384,-0.271l-0.386,-0.269l-0.387,-0.267l-0.389,-0.265l-0.39,-0.262l-0.393,-0.26l-0.393,-0.257l-0.396,-0.256l-0.397,-0.253l-0.399,-0.25l-0.4,-0.249l-0.402,-0.246l-0.403,-0.243l-0.405,-0.242l-0.407,-0.238l-0.408,-0.237l-0.41,-0.234l-0.411,-0.232l-0.413,-0.229l-0.415,-0.227l-0.416,-0.224l-0.417,-0.222l-0.419,-0.22l-0.42,-0.217l-0.422,-0.214l-0.423,-0.212l-0.425,-0.21l-0.426,-0.207l-0.428,-0.205l-0.429,-0.202l-0.43,-0.199l-0.432,-0.197l-0.434,-0.195l-0.434,-0.192l-0.436,-0.189l-0.438,-0.187l-0.438,-0.184l-0.44,-0.181l-0.442,-0.179l-0.443,-0.177l-0.444,-0.173l-0.445,-0.171l-0.447,-0.169l-0.448,-0.165l-0.449,-0.163l-0.451,-0.161l-0.452,-0.158l-0.453,-0.155l-0.454,-0.152l-0.456,-0.149l-0.456,-0.147l-0.458,-0.144l-0.459,-0.142l-0.461,-0.138l-0.461,-0.136l-0.463,-0.133l-0.464,-0.131l-0.232,-0.064l-0.233,-0.063l-0.233,-0.063l-0.233,-0.062l-0.234,-0.061l-0.234,-0.061l-0.234,-0.06l-0.234,-0.059l-0.235,-0.059l-0.235,-0.057l-0.235,-0.057l-0.235,-0.057l-0.236,-0.055l-0.236,-0.055l-0.237,-0.055l-0.236,-0.053l-0.237,-0.053l-0.237,-0.052l-0.238,-0.051l-0.237,-0.051l-0.238,-0.05l-0.238,-0.049l-0.239,-0.048l-0.238,-0.048l-0.239,-0.047l-0.24,-0.046l-0.239,-0.046l-0.24,-0.045l-0.24,-0.044l-0.24,-0.043l-0.241,-0.043l-0.24,-0.042l-0.241,-0.041l-0.242,-0.04l-0.241,-0.04l-0.242,-0.039l-0.242,-0.038l-0.242,-0.038l-0.243,-0.036l-0.242,-0.036l-0.243,-0.035l-0.243,-0.035l-0.244,-0.034l-0.244,-0.033l-0.244,-0.032l-0.244,-0.031l-0.244,-0.031l-0.245,-0.03l-0.245,-0.029l-0.245,-0.029l-0.245,-0.027l-0.245,-0.027l-0.246,-0.026l-0.246,-0.026l-0.246,-0.024l-0.247,-0.024l-0.247,-0.023l-0.246,-0.023l-0.247,-0.021l-0.248,-0.021l-0.247,-0.02l-0.248,-0.019l-0.248,-0.019l-0.248,-0.018l-0.249,-0.017l-0.248,-0.016l-0.249,-0.015l-0.249,-0.015l-0.249,-0.014l-0.25,-0.013l-0.249,-0.012l-0.25,-0.011l-0.25,-0.011l-0.25,-0.01l-0.251,-0.009l-0.251,-0.009l-0.25,-0.007l-0.251,-0.007l-0.252,-0.006l-0.251,-0.005l-0.252,-0.004l-0.252,-0.004l-0.252,-0.003l-0.252,-0.002l-0.252,-0.001l-0.253,0l-0.252,0Z" style="fill-opacity:0.686275;"/><path d="M87.746,88.032l-55.245,55.245c-30.491,-30.491 -30.491,-80 0,-110.491l55.245,55.246Z" style="fill:url(#_Linear1);"/><path d="M87.746,88.032l55.245,-55.246c-30.49,-30.49 -80,-30.49 -110.49,0l55.245,55.246Z" style="fill:url(#_Linear2);"/><path d="M87.729,88.014l-55.246,55.246c30.491,30.49 80,30.49 110.491,0l-55.245,-55.246Z" style="fill:url(#_Linear3);"/><path d="M87.729,88.014l55.245,-55.245c30.491,30.491 30.491,80 0,110.491l-55.245,-55.246Z" style="fill:url(#_Linear4);"/></g><defs><linearGradient id="_Linear1" x1="0" y1="0" x2="1" y2="0" gradientUnits="userSpaceOnUse" gradientTransform="matrix(78.0959,0,7.10543e-15,78.0959,9.63264,88.0317)"><stop offset="0" style="stop-color:#e6bf30;stop-opacity:1"/><stop offset="1" style="stop-color:#e8d389;stop-opacity:1"/></linearGradient><linearGradient id="_Linear2" x1="0" y1="0" x2="1" y2="0" gradientUnits="userSpaceOnUse" gradientTransform="matrix(9.23706e-14,-78.1135,78.1135,9.9476e-14,87.7286,88.0317)"><stop offset="0" style="stop-color:#c9b09b;stop-opacity:1"/><stop offset="1" style="stop-color:#938277;stop-opacity:1"/></linearGradient><linearGradient id="_Linear3" x1="0" y1="0" x2="1" y2="0" gradientUnits="userSpaceOnUse" gradientTransform="matrix(9.9476e-14,78.1135,-78.1135,9.23706e-14,87.7286,88.0142)"><stop offset="0" style="stop-color:#607a86;stop-opacity:1"/><stop offset="1" style="stop-color:#343d3f;stop-opacity:1"/></linearGradient><linearGradient id="_Linear4" x1="0" y1="0" x2="1" y2="0" gradientUnits="userSpaceOnUse" gradientTransform="matrix(78.1135,-0.0175202,0.0175202,78.1135,87.7286,88.0317)"><stop offset="0" style="stop-color:#b96e3c;stop-opacity:1"/><stop offset="1" style="stop-color:#8d512b;stop-opacity:1"/></linearGradient></defs></svg>