<?xml version="1.0" encoding="UTF-8" standalone="no"?><!DOCTYPE svg PUBLIC "-//W3C//DTD SVG 1.1//EN" "http://www.w3.org/Graphics/SVG/1.1/DTD/svg11.dtd"><svg width="100%" height="100%" viewBox="0 0 171 161" version="1.1" xmlns="http://www.w3.org/2000/svg" xmlns:xlink="http://www.w3.org/1999/xlink" xml:space="preserve" xmlns:serif="http://www.serif.com/" style="fill-rule:evenodd;clip-rule:evenodd;stroke-linejoin:round;stroke-miterlimit:1.41421;"><rect id="Artboard1" x="0" y="0" width="170.585" height="160.812" style="fill:none;"/><g><path d="M108.891,55.852l55.339,6.832l-40.755,38.054l10.604,54.742l-48.786,-27l-48.787,27l10.604,-54.742l-40.755,-38.054l55.339,-6.832l23.599,-50.52l23.598,50.52Zm-43.166,5.548l-45.887,5.665l33.794,31.554l-8.792,45.392l40.453,-22.389l40.453,22.389l-8.793,-45.392l33.794,-31.554l-45.887,-5.665l-19.567,-41.891l-19.568,41.891Z" style="fill:#f1ce53;"/><path d="M85.265,14.195l0.029,-0.061l21.105,45.184l0.015,0.002l-21.12,19.209l-0.029,-64.334Z" style="fill:#f1ce53;"/><path d="M85.346,14.247l-0.028,64.282l-21.127,-19.217l21.103,-45.178l0.052,0.113Z" style="fill:#f1e7b5;"/></g></svg>