<svg width="100%" height="100%" viewBox="0 0 45 52" version="1.1" xmlns="http://www.w3.org/2000/svg" xmlns:xlink="http://www.w3.org/1999/xlink" xml:space="preserve" xmlns:serif="http://www.serif.com/" style="fill-rule:evenodd;clip-rule:evenodd;stroke-linejoin:round;stroke-miterlimit:1.41421;">
  <path d="M22.071,6.781c3.153,0.006 5.71,2.567 5.71,5.72c0,0.91 -0.212,1.77 -0.59,2.533l0.156,0.002c4.6,0.043 8.876,2.344 10.065,3.33c1.189,0.986 2.986,3.277 2.896,4.924c-0.064,1.184 -0.858,2.124 -1.3,2.561c-0.173,0.169 -0.405,0.263 -0.647,0.263c-1.237,-0.001 -5.319,-0.004 -5.8,0c-0.569,0.005 -0.797,1.459 -0.725,2.462c0.073,1.004 4.206,7.265 5.286,9.486c0.674,1.384 1.408,3.575 1.867,5.029c0.112,0.348 0.053,0.729 -0.161,1.026c-0.214,0.298 -0.556,0.476 -0.922,0.48c-2.827,0.034 -8.704,0.105 -10.156,0.122c-0.212,0.003 -0.414,-0.088 -0.552,-0.248c-0.426,-0.493 -1.358,-1.598 -1.806,-2.354c-0.44,-0.744 -2.072,-3.19 -2.876,-4.391c-0.101,-0.152 -0.271,-0.243 -0.453,-0.243c-0.182,0 -0.352,0.091 -0.453,0.243c-0.805,1.201 -2.436,3.647 -2.876,4.391c-0.448,0.756 -1.38,1.861 -1.807,2.354c-0.138,0.16 -0.34,0.251 -0.551,0.248c-1.453,-0.017 -7.33,-0.088 -10.157,-0.122c-0.366,-0.004 -0.708,-0.182 -0.922,-0.48c-0.213,-0.297 -0.273,-0.678 -0.16,-1.026c0.459,-1.454 1.193,-3.645 1.866,-5.029c1.08,-2.221 5.214,-8.482 5.286,-9.486c0.073,-1.003 -0.156,-2.457 -0.724,-2.462c-0.481,-0.004 -4.563,-0.001 -5.801,0c-0.241,0 -0.474,-0.094 -0.647,-0.263c-0.441,-0.437 -1.235,-1.377 -1.3,-2.561c-0.09,-1.647 1.707,-3.938 2.897,-4.924c1.189,-0.986 5.465,-3.287 10.064,-3.33l0.157,-0.002c-0.378,-0.763 -0.591,-1.623 -0.591,-2.533c0,-3.153 2.558,-5.714 5.71,-5.72l0.007,0l0.002,0l0.001,0l0.007,0Z" />
</svg>